<svg width="250" height="160" viewBox="0 0 250 160" fill="none" xmlns="http://www.w3.org/2000/svg">
<rect x="51.875" y="6.875" width="146.25" height="146.25" rx="73.125" fill="#E8E8E8"/>
<rect x="51.875" y="6.875" width="146.25" height="146.25" rx="73.125" stroke="#A7A7A7" stroke-width="3.75"/>
<path d="M167 80.1053C167 56.8632 148.184 38 125 38C101.816 38 83 56.8632 83 80.1053C83 100.484 97.448 117.453 116.6 121.368V92.7368H108.2V80.1053H116.6V69.5789C116.6 61.4526 123.194 54.8421 131.3 54.8421H141.8V67.4737H133.4C131.09 67.4737 129.2 69.3684 129.2 71.6842V80.1053H141.8V92.7368H129.2V122C150.41 119.895 167 101.958 167 80.1053Z" fill="#646464"/>
</svg>
