<svg width="250" height="160" viewBox="0 0 250 160" fill="none" xmlns="http://www.w3.org/2000/svg">
<rect x="51.875" y="6.875" width="146.25" height="146.25" rx="73.125" fill="#E8E8E8"/>
<rect x="51.875" y="6.875" width="146.25" height="146.25" rx="73.125" stroke="#A7A7A7" stroke-width="3.75"/>
<path d="M150.847 54.8C155.009 63.914 154.061 74.666 149.488 83.402C145.614 90.5 140.052 96.506 135.313 103.1C133.253 106.04 131.192 109.19 129.668 112.592C129.132 113.726 128.761 114.902 128.349 116.078C127.937 117.254 127.566 118.43 127.195 119.606C126.825 120.698 126.371 122 125.012 122C123.405 122 122.951 120.152 122.622 118.892C121.633 115.826 120.644 112.886 119.119 110.072C117.389 106.754 115.205 103.688 112.98 100.706L150.847 54.8ZM113.144 64.964L99.5467 81.428C102.06 86.846 105.81 91.466 109.395 96.086C110.26 97.136 111.125 98.228 111.949 99.362L129.132 78.614L128.967 78.656C122.951 80.756 116.276 77.648 113.886 71.6C113.557 70.886 113.309 70.046 113.144 69.206C112.914 67.8159 112.914 66.3961 113.144 65.006V64.964ZM102.678 49.004L102.637 49.046C95.9618 57.656 94.8081 69.626 98.805 79.748L115.246 59.84L115.04 59.63L102.678 49.004ZM134.159 39.512L120.891 55.514L121.056 55.472C126.577 53.54 132.758 55.976 135.56 61.1C136.178 62.276 136.673 63.536 136.838 64.796C137.085 66.392 137.167 67.526 136.879 69.08V69.122L150.064 53.162C146.614 46.7785 140.96 41.929 134.2 39.554L134.159 39.512ZM116.317 58.538L132.429 39.008L132.264 38.966C129.874 38.336 127.443 38 125.012 38C116.894 38 109.23 41.57 103.791 47.702L103.708 47.744L116.317 58.538Z" fill="#646464"/>
</svg>
