<svg width="250" height="160" viewBox="0 0 250 160" fill="none" xmlns="http://www.w3.org/2000/svg">
<rect x="51.875" y="6.875" width="146.25" height="146.25" rx="73.125" fill="#E8E8E8"/>
<rect x="51.875" y="6.875" width="146.25" height="146.25" rx="73.125" stroke="#A7A7A7" stroke-width="3.75"/>
<path fill-rule="evenodd" clip-rule="evenodd" d="M143.667 38C149.855 38 155.79 40.4583 160.166 44.8342C164.542 49.21 167 55.1449 167 61.3333V98.6667C167 104.855 164.542 110.79 160.166 115.166C155.79 119.542 149.855 122 143.667 122H106.333C100.145 122 94.21 119.542 89.8342 115.166C85.4583 110.79 83 104.855 83 98.6667V61.3333C83 55.1449 85.4583 49.21 89.8342 44.8342C94.21 40.4583 100.145 38 106.333 38H143.667ZM143.667 47.3333H106.333C102.62 47.3333 99.0593 48.8083 96.4338 51.4338C93.8083 54.0593 92.3333 57.6203 92.3333 61.3333V98.6667C92.3333 102.38 93.8083 105.941 96.4338 108.566C99.0593 111.192 102.62 112.667 106.333 112.667H143.667C147.38 112.667 150.941 111.192 153.566 108.566C156.192 105.941 157.667 102.38 157.667 98.6667V61.3333C157.667 57.6203 156.192 54.0593 153.566 51.4338C150.941 48.8083 147.38 47.3333 143.667 47.3333ZM125 61.3333C129.951 61.3333 134.699 63.3 138.199 66.8007C141.7 70.3013 143.667 75.0493 143.667 80C143.667 84.9507 141.7 89.6986 138.199 93.1993C134.699 96.7 129.951 98.6667 125 98.6667C120.049 98.6667 115.301 96.7 111.801 93.1993C108.3 89.6986 106.333 84.9507 106.333 80C106.333 75.0493 108.3 70.3013 111.801 66.8007C115.301 63.3 120.049 61.3333 125 61.3333ZM125 70.6667C122.525 70.6667 120.151 71.65 118.4 73.4003C116.65 75.1507 115.667 77.5246 115.667 80C115.667 82.4754 116.65 84.8493 118.4 86.5997C120.151 88.35 122.525 89.3333 125 89.3333C127.475 89.3333 129.849 88.35 131.6 86.5997C133.35 84.8493 134.333 82.4754 134.333 80C134.333 77.5246 133.35 75.1507 131.6 73.4003C129.849 71.65 127.475 70.6667 125 70.6667ZM146 54.3333C147.238 54.3333 148.425 54.825 149.3 55.7002C150.175 56.5753 150.667 57.7623 150.667 59C150.667 60.2377 150.175 61.4247 149.3 62.2998C148.425 63.175 147.238 63.6667 146 63.6667C144.762 63.6667 143.575 63.175 142.7 62.2998C141.825 61.4247 141.333 60.2377 141.333 59C141.333 57.7623 141.825 56.5753 142.7 55.7002C143.575 54.825 144.762 54.3333 146 54.3333Z" fill="#646464"/>
</svg>
