<svg width="250" height="160" viewBox="0 0 250 160" fill="none" xmlns="http://www.w3.org/2000/svg">
<rect x="51.875" y="6.875" width="146.25" height="146.25" rx="73.125" fill="#E8E8E8"/>
<rect x="51.875" y="6.875" width="146.25" height="146.25" rx="73.125" stroke="#A7A7A7" stroke-width="3.75"/>
<path d="M83.6921 64.3313C82.5681 62.6303 82.6841 62.6303 85.0042 60.5339C89.9322 56.0776 94.5803 51.2011 99.9484 47.3049C104.808 43.7959 111.253 41.5306 115.657 47.1113C119.713 52.2555 119.809 60.0521 120.837 66.2629C121.865 72.7044 122.849 79.2942 125.041 85.4557C125.649 87.1896 126.813 90.468 128.913 90.744C131.625 91.127 134.385 86.23 135.645 84.4013C138.913 79.5414 143.345 72.9969 142.785 66.7489C142.233 60.1097 135.273 61.3577 130.921 62.9433C131.621 55.4927 138.353 47.1155 144.841 44.286C151.721 41.3453 161.945 41.3947 165.401 49.3807C169.089 58.038 165.773 68.0916 161.753 75.9376C157.369 84.4549 151.717 92.3379 145.681 99.702C140.357 106.242 134.057 113.417 126.121 116.543C117.053 120.102 111.681 113.166 108.593 105.134C105.22 96.3906 103.544 86.576 101.112 77.4738C100.088 73.6229 98.8724 69.2448 96.4443 66.0652C93.2763 61.9713 89.6762 65.8222 86.5482 68.0339C85.4682 66.9343 84.5842 65.5339 83.6921 64.3313Z" fill="#646464"/>
</svg>
