<svg width="250" height="160" viewBox="0 0 250 160" fill="none" xmlns="http://www.w3.org/2000/svg">
<rect x="51.875" y="6.875" width="146.25" height="146.25" rx="73.125" fill="#E8E8E8"/>
<rect x="51.875" y="6.875" width="146.25" height="146.25" rx="73.125" stroke="#A7A7A7" stroke-width="3.75"/>
<path d="M126.027 47C128.27 47.0124 133.881 47.066 139.846 47.3011L141.963 47.3919C147.965 47.6683 153.963 48.1468 156.94 48.9595C160.91 50.0568 164.026 53.2498 165.081 57.3008C166.761 63.7362 166.971 76.2852 166.996 79.3255L167 79.9526V80.6703C166.971 83.7107 166.761 96.2638 165.081 102.695C164.014 106.758 160.893 109.956 156.94 111.036C153.963 111.849 147.965 112.328 141.963 112.604L139.846 112.699C133.881 112.93 128.27 112.988 126.027 112.996L125.04 113H123.969C119.223 112.971 99.3724 112.761 93.0553 111.036C89.0903 109.939 85.9695 106.746 84.9153 102.695C83.2352 96.2597 83.0252 83.7107 83 80.6703V79.3255C83.0252 76.2852 83.2352 63.732 84.9153 57.3008C85.9821 53.2374 89.1029 50.0403 93.0595 48.9636C99.3724 47.2351 119.227 47.0248 123.973 47H126.027ZM116.597 65.5637V94.4405L141.799 80.0021L116.597 65.5637Z" fill="#646464"/>
</svg>
