<svg width="250" height="160" viewBox="0 0 250 160" fill="none" xmlns="http://www.w3.org/2000/svg">
<rect x="5" y="63.4101" width="76.3134" height="33.1797" rx="2.21198" fill="#A7A7A7"/>
<path d="M18.6603 84.8472V81.2432H21.5435V84.8472C21.5435 85.2437 21.8679 85.568 22.2643 85.568H24.4267C24.8231 85.568 25.1475 85.2437 25.1475 84.8472V79.8017H26.3729C26.7044 79.8017 26.863 79.3908 26.6107 79.1746L20.5849 73.747C20.311 73.5019 19.8929 73.5019 19.619 73.747L13.5932 79.1746C13.3481 79.3908 13.4995 79.8017 13.831 79.8017H15.0564V84.8472C15.0564 85.2437 15.3807 85.568 15.7772 85.568H17.9395C18.336 85.568 18.6603 85.2437 18.6603 84.8472Z" fill="#6660EF"/>
<rect x="32.4658" y="74.47" width="42.0276" height="11.0599" rx="2.21198" fill="#E8E8E8"/>
<rect x="86.8433" y="63.4101" width="76.3134" height="33.1797" rx="2.21198" fill="#A7A7A7"/>
<rect x="98.8252" y="74.47" width="54.0596" height="10.8119" rx="2.21198" fill="#E8E8E8"/>
<rect x="168.687" y="63.4101" width="76.3134" height="33.1797" rx="2.21198" fill="#A7A7A7"/>
<rect x="180.668" y="74.47" width="54.0596" height="10.8119" rx="2.21198" fill="#E8E8E8"/>
</svg>
