<svg width="250" height="160" viewBox="0 0 250 160" fill="none" xmlns="http://www.w3.org/2000/svg">
<path d="M12.1756 84.8431V81.2556H15.0456V84.8431C15.0456 85.2377 15.3684 85.5606 15.7631 85.5606H17.9155C18.3101 85.5606 18.633 85.2377 18.633 84.8431V79.8206H19.8527C20.1828 79.8206 20.3406 79.4117 20.0895 79.1964L14.0913 73.7937C13.8187 73.5498 13.4025 73.5498 13.1299 73.7937L7.13166 79.1964C6.88772 79.4117 7.03839 79.8206 7.36843 79.8206H8.58816V84.8431C8.58816 85.2377 8.91103 85.5606 9.30565 85.5606H11.4581C11.8527 85.5606 12.1756 85.2377 12.1756 84.8431Z" fill="#6660EF"/>
<rect x="27.6011" y="74.4395" width="53.8117" height="10.7623" rx="1.11685" fill="#A7A7A7"/>
<path fill-rule="evenodd" clip-rule="evenodd" d="M99.2533 79.7076C99.4646 79.9192 99.5833 80.2059 99.5833 80.5049C99.5833 80.8039 99.4646 81.0907 99.2533 81.3023L94.9989 85.5583C94.7872 85.7698 94.5002 85.8886 94.2009 85.8886C93.9016 85.8885 93.6146 85.7695 93.4031 85.5579C93.1915 85.3462 93.0727 85.0592 93.0728 84.7599C93.0728 84.4606 93.1918 84.1736 93.4034 83.9621L96.8606 80.5049L93.4034 77.0478C93.1978 76.8351 93.0839 76.5501 93.0864 76.2543C93.0888 75.9585 93.2073 75.6754 93.4164 75.4661C93.6255 75.2568 93.9085 75.138 94.2043 75.1353C94.5002 75.1326 94.7852 75.2462 94.9981 75.4516L99.2541 79.7068L99.2533 79.7076Z" fill="#646464"/>
<rect x="109.395" y="74.4394" width="53.8117" height="10.7623" rx="1.11685" fill="#A7A7A7"/>
<path fill-rule="evenodd" clip-rule="evenodd" d="M181.047 79.7076C181.259 79.9192 181.377 80.2059 181.377 80.5049C181.377 80.8039 181.259 81.0907 181.047 81.3023L176.793 85.5583C176.581 85.7698 176.294 85.8886 175.995 85.8886C175.696 85.8885 175.409 85.7695 175.197 85.5579C174.985 85.3462 174.867 85.0592 174.867 84.7599C174.867 84.4606 174.986 84.1736 175.197 83.9621L178.655 80.5049L175.197 77.0478C174.992 76.8351 174.878 76.5501 174.88 76.2543C174.883 75.9585 175.001 75.6754 175.21 75.4661C175.419 75.2568 175.702 75.138 175.998 75.1353C176.294 75.1326 176.579 75.2462 176.792 75.4516L181.048 79.7068L181.047 79.7076Z" fill="#646464"/>
<rect x="191.188" y="74.4394" width="53.8117" height="10.7623" rx="1.11685" fill="#A7A7A7"/>
</svg>
