<svg width="250" height="160" viewBox="0 0 250 160" fill="none" xmlns="http://www.w3.org/2000/svg">
<mask id="path-1-inside-1_2880_180" fill="white">
<path d="M224 16C224 27.598 233.402 37 245 37V123C233.402 123 224 132.402 224 144H26C26 132.402 16.598 123 5 123V37C16.598 37 26 27.598 26 16H224Z"/>
</mask>
<path d="M224 16C224 27.598 233.402 37 245 37V123C233.402 123 224 132.402 224 144H26C26 132.402 16.598 123 5 123V37C16.598 37 26 27.598 26 16H224Z" fill="#A7A7A7"/>
<path d="M224 16H228V12H224V16ZM245 37H249V33H245V37ZM245 123V127H249V123H245ZM224 144V148H228V144H224ZM26 144H22V148H26V144ZM5 123H1V127H5V123ZM5 37V33H1V37H5ZM26 16V12H22V16H26ZM224 16H220C220 29.8071 231.193 41 245 41V37V33C235.611 33 228 25.3888 228 16H224ZM245 37H241V123H245H249V37H245ZM245 123V119C231.193 119 220 130.193 220 144H224H228C228 134.611 235.611 127 245 127V123ZM224 144V140H26V144V148H224V144ZM26 144H30C30 130.193 18.8071 119 5 119V123V127C14.3888 127 22 134.611 22 144H26ZM5 123H9V37H5H1V123H5ZM5 37V41C18.8071 41 30 29.8071 30 16H26H22C22 25.3888 14.3888 33 5 33V37ZM26 16V20H224V16V12H26V16Z" fill="#646464" mask="url(#path-1-inside-1_2880_180)"/>
</svg>
