<svg width="39" height="20" viewBox="0 0 39 20" fill="none" xmlns="http://www.w3.org/2000/svg">
<path d="M35 0C37.2091 0 39 1.79086 39 4V16C39 18.2091 37.2091 20 35 20H4C1.79086 20 3.22133e-08 18.2091 0 16V4C0 1.79086 1.79086 2.81862e-08 4 0H35Z" fill="#8072FC"/>
<path d="M26.374 6C27.0572 6 27.6726 6.15736 28.2197 6.47168C28.7692 6.78346 29.2029 7.23741 29.5205 7.83301C29.8406 8.42864 30.001 9.15097 30.001 10C30.001 10.849 29.8406 11.5714 29.5205 12.167C29.2029 12.7626 28.7693 13.2179 28.2197 13.5322C27.6726 13.844 27.0572 14 26.374 14C25.6859 14 25.0685 13.8425 24.5215 13.5283C23.9744 13.214 23.5413 12.7588 23.2236 12.1631C22.9061 11.5675 22.7471 10.8464 22.7471 10C22.7471 9.15102 22.9061 8.42862 23.2236 7.83301C23.5413 7.23732 23.9744 6.78346 24.5215 6.47168C25.0685 6.15746 25.6859 6.00001 26.374 6ZM12.0557 6.10645C12.643 6.10646 13.1432 6.21976 13.5566 6.44531C13.9701 6.66838 14.2851 6.97899 14.502 7.37695C14.7212 7.77229 14.831 8.22818 14.8311 8.74512C14.8311 9.26215 14.7208 9.71886 14.499 10.1143C14.2772 10.5097 13.9552 10.8176 13.5342 11.0381C13.1157 11.2586 12.6087 11.3691 12.0137 11.3691H10.6377V13.8936H9V6.10645H12.0557ZM18.9512 6.10645C19.5358 6.1065 20.0349 6.21156 20.4482 6.42188C20.8641 6.62969 21.1806 6.92497 21.3975 7.30762C21.6168 7.68784 21.7266 8.13582 21.7266 8.65039C21.7265 9.16729 21.6153 9.61186 21.3936 9.98438C21.1717 10.3544 20.8507 10.6392 20.4297 10.8369C20.4065 10.8479 20.3821 10.8568 20.3584 10.8672L22.0029 13.8936H20.1953L18.7275 11.1328H17.5322V13.8936H15.8955V6.10645H18.9512ZM26.374 7.45605C25.9782 7.45606 25.6328 7.55385 25.3379 7.74902C25.0429 7.9442 24.8133 8.23071 24.6494 8.6084C24.4881 8.98606 24.4072 9.45001 24.4072 10C24.4072 10.55 24.4881 11.0139 24.6494 11.3916C24.8133 11.7693 25.0429 12.0558 25.3379 12.251C25.6328 12.4461 25.9782 12.5439 26.374 12.5439C26.7698 12.5439 27.1152 12.4461 27.4102 12.251C27.7051 12.0558 27.9334 11.7693 28.0947 11.3916C28.2586 11.0139 28.3408 10.55 28.3408 10C28.3408 9.44997 28.2586 8.98608 28.0947 8.6084C27.9334 8.23071 27.7051 7.9442 27.4102 7.74902C27.1152 7.55387 26.7698 7.45605 26.374 7.45605ZM10.6377 10.0498H11.749C12.0642 10.0498 12.3241 9.99474 12.5283 9.88574C12.735 9.77422 12.8884 9.62091 12.9893 9.42578C13.0926 9.22807 13.1445 9.00113 13.1445 8.74512C13.1445 8.48669 13.0926 8.26093 12.9893 8.06836C12.8884 7.87337 12.7349 7.72261 12.5283 7.61621C12.3217 7.50727 12.0596 7.45318 11.7422 7.45312H10.6377V10.0498ZM17.5322 9.80957H18.6445C18.9571 9.80956 19.2171 9.76683 19.4238 9.68066C19.6303 9.59451 19.784 9.46515 19.8848 9.29297C19.9881 9.12066 20.04 8.9063 20.04 8.65039C20.04 8.39184 19.9881 8.17353 19.8848 7.99609C19.7839 7.81872 19.6291 7.68402 19.4199 7.59277C19.2132 7.49899 18.9519 7.45215 18.6367 7.45215H17.5322V9.80957Z" fill="white"/>
</svg>
