<svg xmlns="http://www.w3.org/2000/svg" width="250" height="160" fill="none"><path fill="#646464" d="M16 45h69v70H16zM90 45h69v70H90zM164 45h69v70h-69z"/><path fill="#E8E8E8" d="M20 49h61v26H20z"/><path fill="#646464" d="M24.36 54.89v-1.3h6.08v1.3h-2.26V61h-1.55v-6.11h-2.27ZM31.44 61v-7.4h5v1.29H33v1.76h3.17v1.3H33v1.76h3.44V61h-5Zm7.7-7.4 1.5 2.52h.06l1.5-2.52h1.77l-2.26 3.7L44 61h-1.8l-1.51-2.53h-.06L39.12 61h-1.8l2.33-3.7-2.28-3.7h1.78Zm5.54 1.29v-1.3h6.08v1.3h-2.27V61h-1.55v-6.11h-2.26ZM27 65.18V71h-1.23v-4.65h-.03l-1.33.83V66.1l1.44-.9H27Z"/><path fill="#E8E8E8" d="M94 49h61v26H94z"/><path fill="#646464" d="M98.36 54.89v-1.3h6.08v1.3h-2.26V61h-1.55v-6.11h-2.27Zm7.08 6.11v-7.4h5v1.29H107v1.76h3.17v1.3H107v1.76h3.44V61h-5Zm7.7-7.4 1.5 2.52h.06l1.5-2.52h1.77l-2.26 3.7L118 61h-1.8l-1.51-2.53h-.06L113.12 61h-1.8l2.33-3.7-2.28-3.7h1.78Zm5.53 1.29v-1.3h6.09v1.3h-2.27V61h-1.55v-6.11h-2.27ZM98.47 71v-.89l2.07-1.91.45-.46c.12-.14.2-.27.27-.4.06-.14.1-.28.1-.43a.77.77 0 0 0-.44-.73 1 1 0 0 0-.46-.1.96.96 0 0 0-.46.1.74.74 0 0 0-.31.31 1 1 0 0 0-.1.48H98.4a1.73 1.73 0 0 1 .98-1.64 2.4 2.4 0 0 1 1.08-.23c.42 0 .78.08 1.09.22.31.15.55.35.72.61a1.71 1.71 0 0 1 .13 1.54c-.08.22-.24.46-.46.72-.22.26-.53.57-.92.93l-.85.83V70h2.44V71h-4.15Z"/><path fill="#E8E8E8" d="M168 49h61v26h-61z"/><path fill="#646464" d="M172.36 54.89v-1.3h6.08v1.3h-2.26V61h-1.55v-6.11h-2.27Zm7.08 6.11v-7.4h5v1.29H181v1.76h3.17v1.3H181v1.76h3.44V61h-5Zm7.7-7.4 1.5 2.52h.06l1.5-2.52h1.77l-2.26 3.7L192 61h-1.8l-1.51-2.53h-.06L187.12 61h-1.8l2.33-3.7-2.28-3.7h1.78Zm5.54 1.29v-1.3h6.08v1.3h-2.27V61h-1.55v-6.11h-2.26ZM174.62 71.08c-.42 0-.8-.07-1.13-.22a1.94 1.94 0 0 1-.78-.6 1.53 1.53 0 0 1-.3-.9h1.24c.01.14.06.26.14.37.09.1.2.19.35.25.14.06.3.09.49.09.18 0 .35-.04.5-.1a.81.81 0 0 0 .33-.28.7.7 0 0 0 .12-.4c0-.16-.04-.3-.13-.42a.84.84 0 0 0-.37-.28c-.16-.07-.35-.1-.57-.1h-.54v-.9h.54c.19 0 .35-.04.5-.1a.7.7 0 0 0 .45-.67.7.7 0 0 0-.4-.65 1.13 1.13 0 0 0-.89 0 .8.8 0 0 0-.33.25.66.66 0 0 0-.13.39h-1.18c0-.34.1-.63.29-.89.18-.26.43-.45.75-.6.31-.14.67-.22 1.07-.22s.75.08 1.05.22c.3.15.54.34.7.6.17.24.26.51.26.82 0 .33-.1.6-.3.82-.21.21-.48.35-.8.41v.05c.43.05.75.2.98.44.22.24.33.54.33.9 0 .34-.1.63-.29.89-.19.26-.45.46-.79.6-.34.16-.72.23-1.16.23Z"/></svg>