<svg xmlns="http://www.w3.org/2000/svg" width="250" height="160" fill="none"><path fill="#646464" d="M17 59h69v18H17z"/><path fill="#E8E8E8" d="M22.36 65.89v-1.3h6.08v1.3h-2.26V72h-1.55v-6.11h-2.27ZM29.44 72v-7.4h5v1.29H31v1.76h3.17v1.3H31v1.76h3.44V72h-5Zm7.7-7.4 1.5 2.52h.06l1.5-2.53h1.77l-2.26 3.7L42 72h-1.8l-1.51-2.53h-.06L37.12 72h-1.8l2.33-3.7-2.28-3.7h1.78Zm5.54 1.29v-1.3h6.08v1.3h-2.27V72h-1.55v-6.11h-2.26Z"/><circle cx="76.64" cy="68" r="4" fill="#E8E8E8"/><path fill="#646464" d="M77.2 66.3V70h-.78v-2.96h-.02l-.85.53v-.7l.92-.57h.73ZM91 59h69v18H91z"/><path fill="#E8E8E8" d="M97.2 65.89v-1.3h6.08v1.3H101V72h-1.55v-6.11H97.2Zm7.08 6.11v-7.4h4.99v1.29h-3.43v1.76h3.17v1.3h-3.17v1.76h3.44V72h-5Zm7.7-7.4 1.5 2.52h.05l1.5-2.53h1.77l-2.26 3.7 2.31 3.71h-1.8l-1.52-2.53h-.06L111.95 72h-1.79l2.32-3.7-2.28-3.7h1.78Zm5.53 1.29v-1.3h6.08v1.3h-2.27V72h-1.54v-6.11h-2.27Z"/><circle cx="151.47" cy="68" r="4" fill="#E8E8E8"/><path fill="#646464" d="M150.22 70v-.56l1.32-1.22.28-.3c.08-.08.13-.17.17-.25a.64.64 0 0 0 .06-.28.5.5 0 0 0-.07-.28.49.49 0 0 0-.2-.18.64.64 0 0 0-.3-.06.61.61 0 0 0-.3.07.48.48 0 0 0-.19.2.64.64 0 0 0-.06.3h-.75c0-.24.06-.45.17-.63.1-.18.26-.32.46-.42.2-.1.42-.14.68-.14.27 0 .5.04.7.14.2.1.34.22.45.38a1 1 0 0 1 .17.57c0 .14-.03.28-.08.42-.06.13-.16.28-.3.45-.14.17-.33.36-.59.6l-.54.52v.03h1.56V70h-2.64ZM165 59h69v18h-69z"/><path fill="#E8E8E8" d="M170.2 65.89v-1.3h6.08v1.3H174V72h-1.55v-6.11h-2.27Zm7.08 6.11v-7.4h4.99v1.29h-3.43v1.76h3.17v1.3h-3.17v1.76h3.44V72h-5Zm7.7-7.4 1.5 2.52h.05l1.5-2.53h1.77l-2.26 3.7 2.31 3.71h-1.8l-1.52-2.53h-.06L184.96 72h-1.8l2.32-3.7-2.27-3.7h1.77Zm5.53 1.29v-1.3h6.08v1.3h-2.27V72h-1.54v-6.11h-2.27Z"/><circle cx="224.47" cy="68" r="4" fill="#E8E8E8"/><path fill="#646464" d="M224.51 70.05c-.27 0-.5-.05-.72-.14-.2-.1-.38-.22-.5-.39a.96.96 0 0 1-.18-.57h.79c0 .1.03.17.08.24.06.07.13.12.23.16.09.04.19.06.3.06.12 0 .23-.03.32-.07.1-.04.16-.1.22-.17a.45.45 0 0 0 .07-.26c0-.1-.02-.19-.08-.26a.53.53 0 0 0-.23-.18.91.91 0 0 0-.37-.07h-.34v-.57h.34c.12 0 .23-.03.32-.07a.45.45 0 0 0 .29-.43.45.45 0 0 0-.26-.4.72.72 0 0 0-.57 0 .5.5 0 0 0-.2.16.43.43 0 0 0-.09.24h-.75c0-.21.07-.4.18-.56.12-.17.28-.3.48-.38.2-.1.43-.14.68-.14.26 0 .48.04.67.14.2.09.34.21.45.37.1.16.16.33.16.53s-.06.38-.2.52a.88.88 0 0 1-.5.26v.03c.27.04.48.13.62.29a.8.8 0 0 1 .22.57.9.9 0 0 1-.19.56c-.12.17-.29.3-.5.39-.22.1-.46.14-.74.14ZM17 82h69v18H17z"/><path fill="#E8E8E8" d="M22.36 88.89v-1.3h6.08v1.3h-2.26V95h-1.55v-6.11h-2.27ZM29.44 95v-7.4h5v1.29H31v1.76h3.17v1.3H31v1.76h3.44V95h-5Zm7.7-7.4 1.5 2.52h.06l1.5-2.53h1.77l-2.26 3.7L42 95h-1.8l-1.51-2.53h-.06L37.12 95h-1.8l2.33-3.7-2.28-3.7h1.78Zm5.54 1.29v-1.3h6.08v1.3h-2.27V95h-1.55v-6.11h-2.26Z"/><circle cx="76.64" cy="91" r="4" fill="#E8E8E8"/><path fill="#646464" d="M77.2 89.3V93h-.78v-2.96h-.02l-.85.53v-.7l.92-.57h.73ZM91 82h69v18H91z"/><path fill="#E8E8E8" d="M97.2 88.89v-1.3h6.08v1.3H101V95h-1.55v-6.11H97.2Zm7.08 6.11v-7.4h4.99v1.29h-3.43v1.76h3.17v1.3h-3.17v1.76h3.44V95h-5Zm7.7-7.4 1.5 2.52h.05l1.5-2.53h1.77l-2.26 3.7 2.31 3.71h-1.8l-1.52-2.53h-.06L111.95 95h-1.79l2.32-3.7-2.28-3.7h1.78Zm5.53 1.29v-1.3h6.08v1.3h-2.27V95h-1.54v-6.11h-2.27Z"/><circle cx="151.47" cy="91" r="4" fill="#E8E8E8"/><path fill="#646464" d="M150.22 93v-.56l1.32-1.22.28-.3c.08-.08.13-.17.17-.25a.64.64 0 0 0 .06-.28.5.5 0 0 0-.07-.28.49.49 0 0 0-.2-.18.64.64 0 0 0-.3-.06.61.61 0 0 0-.3.07.48.48 0 0 0-.19.2.64.64 0 0 0-.06.3h-.75c0-.24.06-.45.17-.63.1-.18.26-.32.46-.42.2-.1.42-.14.68-.14.27 0 .5.04.7.14.2.1.34.22.45.38a1 1 0 0 1 .17.57c0 .14-.03.28-.08.42-.06.13-.16.28-.3.45-.14.17-.33.36-.59.6l-.54.52v.03h1.56V93h-2.64ZM165 82h69v18h-69z"/><path fill="#E8E8E8" d="M170.2 88.89v-1.3h6.08v1.3H174V95h-1.55v-6.11h-2.27Zm7.08 6.11v-7.4h4.99v1.29h-3.43v1.76h3.17v1.3h-3.17v1.76h3.44V95h-5Zm7.7-7.4 1.5 2.52h.05l1.5-2.53h1.77l-2.26 3.7 2.31 3.71h-1.8l-1.52-2.53h-.06L184.96 95h-1.8l2.32-3.7-2.27-3.7h1.77Zm5.53 1.29v-1.3h6.08v1.3h-2.27V95h-1.54v-6.11h-2.27Z"/><circle cx="224.47" cy="91" r="4" fill="#E8E8E8"/><path fill="#646464" d="M224.51 93.05c-.27 0-.5-.05-.72-.14-.2-.1-.38-.22-.5-.39a.96.96 0 0 1-.18-.57h.79c0 .1.03.17.08.24.06.07.13.12.23.16.09.04.19.06.3.06.12 0 .23-.03.32-.07.1-.04.16-.1.22-.17a.45.45 0 0 0 .07-.26c0-.1-.02-.19-.08-.26a.53.53 0 0 0-.23-.18.91.91 0 0 0-.37-.07h-.34v-.57h.34c.12 0 .23-.03.32-.07a.45.45 0 0 0 .29-.43.45.45 0 0 0-.26-.4.72.72 0 0 0-.57 0 .5.5 0 0 0-.2.16.43.43 0 0 0-.09.24h-.75c0-.21.07-.4.18-.56.12-.17.28-.3.48-.38.2-.1.43-.14.68-.14.26 0 .48.04.67.14.2.09.34.21.45.37.1.16.16.33.16.53s-.06.38-.2.52a.88.88 0 0 1-.5.26v.03c.27.04.48.13.62.29a.8.8 0 0 1 .22.57.9.9 0 0 1-.19.56c-.12.17-.29.3-.5.39-.22.1-.46.14-.74.14Z"/></svg>