<svg width="61" height="61" viewBox="0 0 61 61" fill="none" xmlns="http://www.w3.org/2000/svg">

<g clip-path="url(#clip0_13_543)">

<g clip-path="url(#clip1_13_543)">

<mask id="mask0_13_543" style="mask-type:luminance" maskUnits="userSpaceOnUse" x="-17" y="-5" width="95" height="71">

<path d="M77.75 -4.75H-16.75V65.75H77.75V-4.75Z" fill="white"/>

</mask>

<g mask="url(#mask0_13_543)">

<g opacity="0.912716">

<path d="M34.1619 7.33708C34.1619 9.34892 32.5226 10.9795 30.5001 10.9795C28.4775 10.9795 26.8383 9.34892 26.8383 7.33708C26.8383 5.32524 28.4775 3.69464 30.5001 3.69464C32.5226 3.69464 34.1619 5.32524 34.1619 7.33708Z" fill="#047DE7"/>

</g>

<g opacity="0.789331">

<path d="M44.9071 12.0264C44.023 13.5483 42.0691 14.0718 40.5424 13.1957C39.0157 12.3197 38.4948 10.3761 39.3789 8.85412C40.263 7.33215 42.217 6.80865 43.7437 7.68472C45.2704 8.56079 45.7912 10.5044 44.9071 12.0264Z" fill="#047DE7"/>

</g>

<g opacity="0.655512">

<path d="M52.0135 21.2376C50.7287 21.9749 49.0842 21.5343 48.3401 20.2534C47.5961 18.9725 48.0344 17.3368 49.3193 16.5994C50.6042 15.8621 52.2486 16.3027 52.9927 17.5836C53.7367 18.8645 53.2984 20.5003 52.0135 21.2376Z" fill="#047DE7"/>

</g>

<g opacity="0.547284">

<path d="M53.7862 32.7677C52.527 32.7677 51.5064 31.7525 51.5064 30.4999C51.5064 29.2474 52.527 28.2322 53.7862 28.2322C55.0454 28.2322 56.066 29.2474 56.066 30.4999C56.066 31.7525 55.0454 32.7677 53.7862 32.7677Z" fill="#047DE7"/>

</g>

<g opacity="0.50135">

<path d="M49.6113 43.8976C48.605 43.3202 48.2617 42.0391 48.8444 41.0359C49.4272 40.0327 50.7151 39.6876 51.7214 40.2651C52.7277 40.8425 53.071 42.1236 52.4883 43.1268C51.9055 44.13 50.6176 44.4751 49.6113 43.8976Z" fill="#047DE7"/>

</g>

<g opacity="0.540788">

<path d="M40.1921 51.6791C39.5681 50.6048 39.9357 49.233 41.0133 48.6146C42.0908 47.9963 43.47 48.3658 44.094 49.44C44.718 50.5142 44.3504 51.8861 43.2728 52.5044C42.1952 53.1228 40.8161 52.7533 40.1921 51.6791Z" fill="#047DE7"/>

</g>

<g opacity="0.645404">

<path d="M27.8492 53.6629C27.8492 52.2065 29.0359 51.0261 30.5001 51.0261C31.9642 51.0261 33.1509 52.2065 33.1509 53.6629C33.1509 55.1194 31.9642 56.2998 30.5001 56.2998C29.0359 56.2998 27.8492 55.1194 27.8492 53.6629Z" fill="#047DE7"/>

</g>

<g opacity="0.778507">

<path d="M16.1284 48.9939C17.0012 47.4914 18.9301 46.9746 20.4372 47.8395C21.9444 48.7043 22.4585 50.623 21.5858 52.1255C20.713 53.6279 18.7841 54.1447 17.2769 53.2799C15.7698 52.415 15.2557 50.4963 16.1284 48.9939Z" fill="#047DE7"/>

</g>

<g opacity="0.904061">

<path d="M8.51574 38.9518C10.2497 37.9568 12.469 38.5514 13.4731 40.28C14.4773 42.0086 13.8857 44.2161 12.1517 45.2112C10.4177 46.2062 8.19847 45.6116 7.19433 43.883C6.19019 42.1544 6.78174 39.9468 8.51574 38.9518Z" fill="#047DE7"/>

</g>

<g opacity="0.985961">

<path d="M7.2139 26.582C9.38945 26.582 11.1527 28.336 11.1527 30.5C11.1527 32.664 9.38945 34.418 7.2139 34.418C5.03836 34.418 3.27509 32.664 3.27509 30.5C3.27509 28.336 5.03836 26.582 7.2139 26.582Z" fill="#047DE7"/>

</g>

<g opacity="0.98957">

<path d="M12.3137 15.51C14.2023 16.5937 14.8465 18.9979 13.7529 20.8806C12.6593 22.7633 10.2423 23.4108 8.35374 22.3271C6.46522 21.2434 5.82095 18.8392 6.91457 16.9565C8.0082 15.0739 10.4252 14.4263 12.3137 15.51Z" fill="#047DE7"/>

</g>

<g opacity="0.912716">

<path d="M22.0248 8.62261C23.038 10.3668 22.4411 12.5943 20.6914 13.5983C18.9418 14.6023 16.7025 14.0023 15.6893 12.2581C14.6761 10.5139 15.273 8.28644 17.0226 7.28244C18.7723 6.27844 21.0116 6.87839 22.0248 8.62261Z" fill="#047DE7"/>

</g>

</g>

</g>

</g>

<defs>

<clipPath id="clip0_13_543">

<rect width="60" height="60" fill="white" transform="translate(0.5 0.5)"/>

</clipPath>

<clipPath id="clip1_13_543">

<rect width="94.5" height="70.5" fill="white" transform="translate(-16.75 -4.75)"/>

</clipPath>

</defs>

</svg>

