<svg width="120" height="33" viewBox="0 0 120 33" fill="none" xmlns="http://www.w3.org/2000/svg">
<path d="M22.2715 15.6592H27.0898V17.2451H22.2715V32.7568H16.3105C15.2781 32.7568 14.2703 32.4986 13.373 31.9824C11.5171 30.9377 10.3497 28.9589 10.3496 26.8203V23.7715H11.9229V26.8203C11.9353 29.2293 13.9016 31.1835 16.3105 31.1836H20.6982V13.4346H22.2715V15.6592ZM49.7432 27.2012H49.1533L49.1162 26.7959C48.854 27.1154 48.493 27.2754 48.0342 27.2754C47.5918 27.2753 47.2352 27.0948 46.9648 26.7344C46.6863 26.3738 46.5469 25.9021 46.5469 25.3203V25.2715C46.5469 24.6897 46.6827 24.2225 46.9531 23.8701C47.2316 23.518 47.5919 23.3419 48.0342 23.3418C48.4849 23.3418 48.8378 23.4937 49.0918 23.7969V21.8174H49.7432V27.2012ZM54.291 27.2012H53.7002L53.6641 26.7959C53.4018 27.1155 53.0409 27.2754 52.582 27.2754C52.1396 27.2754 51.7831 27.0948 51.5127 26.7344C51.2341 26.3738 51.0947 25.9021 51.0947 25.3203V25.2715C51.0947 24.6897 51.2306 24.2225 51.501 23.8701C51.7795 23.518 52.1397 23.3418 52.582 23.3418C53.0327 23.3418 53.3856 23.4937 53.6396 23.7969V21.8174H54.291V27.2012ZM43.7695 23.3418C44.212 23.3418 44.556 23.4526 44.8018 23.6738C45.0474 23.8868 45.1743 24.1855 45.1826 24.5703V26.3164C45.1826 26.6604 45.2282 26.9393 45.3184 27.1523V27.2012H44.6426C44.6016 27.1274 44.5685 26.9961 44.5439 26.8076C44.2408 27.119 43.8798 27.2744 43.4619 27.2744C43.0933 27.2744 42.7903 27.1681 42.5527 26.9551C42.3069 26.742 42.1836 26.4758 42.1836 26.1562C42.1836 25.7548 42.3355 25.4474 42.6387 25.2344C42.9418 25.0132 43.3637 24.9024 43.9043 24.9023H44.5312V24.6074C44.5312 24.3781 44.466 24.1975 44.335 24.0664C44.1957 23.9272 43.9945 23.8574 43.7324 23.8574C43.5032 23.8574 43.3109 23.9193 43.1553 24.042C42.9996 24.1567 42.921 24.2962 42.9209 24.46H42.2695C42.2696 24.2716 42.3357 24.091 42.4668 23.9189C42.5979 23.7389 42.7821 23.5992 43.0195 23.501C43.2489 23.3945 43.4992 23.3418 43.7695 23.3418ZM57.3516 23.3418C57.8677 23.3419 58.2815 23.5223 58.5928 23.8828C58.9122 24.2351 59.0723 24.7105 59.0723 25.3086V25.3447C59.0723 25.7135 59.0026 26.0458 58.8633 26.3408C58.724 26.6358 58.523 26.8654 58.2607 27.0293C57.9986 27.1931 57.6955 27.2744 57.3516 27.2744C56.8353 27.2744 56.4208 27.0949 56.1094 26.7344C55.7898 26.382 55.6309 25.9103 55.6309 25.3203V25.2715C55.6309 24.9027 55.7005 24.5704 55.8398 24.2754C55.9873 23.9725 56.1921 23.7435 56.4541 23.5879C56.7163 23.424 57.0156 23.3418 57.3516 23.3418ZM66.2256 23.3418C66.6516 23.3418 67.0001 23.4526 67.2705 23.6738C67.5407 23.895 67.6757 24.1775 67.6758 24.5215H67.0244C67.0244 24.3495 66.9467 24.1975 66.791 24.0664C66.6436 23.9354 66.4549 23.8701 66.2256 23.8701C65.988 23.8701 65.804 23.9238 65.6729 24.0303C65.5418 24.1286 65.4756 24.2635 65.4756 24.4355C65.4756 24.5912 65.5373 24.7055 65.6602 24.7793C65.7831 24.8612 66.0046 24.9399 66.3242 25.0137C66.6517 25.0874 66.9138 25.1732 67.1104 25.2715C67.3151 25.3698 67.4671 25.4923 67.5654 25.6396C67.6555 25.7789 67.7002 25.9514 67.7002 26.1562C67.7002 26.4922 67.5653 26.7629 67.2949 26.9678C67.0245 27.1726 66.6761 27.2744 66.25 27.2744C65.9468 27.2744 65.6761 27.2217 65.4385 27.1152C65.2092 27.0087 65.025 26.8567 64.8857 26.6602C64.7547 26.4717 64.6895 26.2626 64.6895 26.0332H65.3408C65.3572 26.2544 65.4429 26.4269 65.5986 26.5498C65.7625 26.6809 65.9797 26.7461 66.25 26.7461C66.4958 26.7461 66.6924 26.6969 66.8398 26.5986C66.9873 26.5003 67.0615 26.3654 67.0615 26.1934C67.0615 26.0213 66.9954 25.8864 66.8643 25.7881C66.7332 25.6898 66.5 25.6075 66.1641 25.542C65.8363 25.4682 65.5781 25.3815 65.3896 25.2832C65.1932 25.1849 65.0501 25.0704 64.96 24.9395C64.8699 24.8002 64.8243 24.6366 64.8242 24.4482C64.8242 24.1369 64.9556 23.8742 65.2178 23.6611C65.48 23.4482 65.816 23.3418 66.2256 23.3418ZM75.874 23.3418C76.3903 23.3418 76.8084 23.5223 77.1279 23.8828C77.4474 24.2351 77.6074 24.7105 77.6074 25.3086V25.3447C77.6074 25.7135 77.5332 26.0458 77.3857 26.3408C77.2465 26.6357 77.0462 26.8655 76.7842 27.0293C76.522 27.1932 76.2182 27.2744 75.874 27.2744C75.3662 27.2744 74.9523 27.0947 74.6328 26.7344C74.3132 26.382 74.1533 25.9103 74.1533 25.3203V25.2715C74.1533 24.9027 74.2275 24.5704 74.375 24.2754C74.5142 23.9726 74.7147 23.7435 74.9766 23.5879C75.2387 23.424 75.5381 23.3418 75.874 23.3418ZM92.4424 23.3418C92.934 23.3418 93.3155 23.5053 93.5859 23.833C93.8563 24.1526 93.9912 24.6163 93.9912 25.2227V25.4922H91.4346C91.4428 25.8691 91.55 26.1729 91.7549 26.4023C91.9679 26.6316 92.2343 26.7461 92.5537 26.7461C92.783 26.746 92.9753 26.6969 93.1309 26.5986C93.2946 26.5086 93.4342 26.386 93.5488 26.2305L93.9424 26.5371C93.631 27.0287 93.1557 27.2744 92.5166 27.2744C92.0086 27.2744 91.5905 27.1065 91.2627 26.7705C90.9433 26.4264 90.7832 25.9715 90.7832 25.4062V25.2959C90.7832 24.919 90.8529 24.583 90.9922 24.2881C91.1397 23.9932 91.3408 23.76 91.5947 23.5879C91.8568 23.4241 92.1394 23.3419 92.4424 23.3418ZM103.529 23.3418C104.021 23.3418 104.406 23.5055 104.685 23.833C104.955 24.1526 105.091 24.6163 105.091 25.2227V25.4922H102.521C102.53 25.8691 102.64 26.1729 102.854 26.4023C103.058 26.6317 103.325 26.746 103.652 26.7461C103.874 26.7461 104.067 26.697 104.23 26.5986C104.386 26.5085 104.526 26.386 104.648 26.2305L105.041 26.5371C104.721 27.0288 104.246 27.2744 103.615 27.2744C103.099 27.2743 102.682 27.1064 102.362 26.7705C102.035 26.4264 101.87 25.9716 101.87 25.4062V25.2959C101.87 24.919 101.944 24.5831 102.092 24.2881C102.231 23.9933 102.431 23.7599 102.693 23.5879C102.947 23.4241 103.226 23.3419 103.529 23.3418ZM111.679 23.415H112.392V23.9072H111.679V26.2666C111.679 26.4223 111.712 26.5376 111.777 26.6113C111.843 26.6849 111.949 26.7217 112.097 26.7217C112.17 26.7217 112.273 26.7091 112.404 26.6846V27.2012C112.232 27.2503 112.068 27.2744 111.912 27.2744C111.617 27.2744 111.396 27.1851 111.248 27.0049C111.101 26.8328 111.027 26.5862 111.027 26.2666V23.9072H110.339V23.415H111.027V22.4932H111.679V23.415ZM115.12 23.3418C115.636 23.3418 116.054 23.5223 116.374 23.8828C116.693 24.2351 116.854 24.7105 116.854 25.3086V25.3447C116.854 25.7135 116.784 26.0458 116.645 26.3408C116.505 26.6358 116.304 26.8654 116.042 27.0293C115.78 27.193 115.477 27.2744 115.133 27.2744C114.617 27.2744 114.198 27.0948 113.879 26.7344C113.559 26.382 113.399 25.9103 113.399 25.3203V25.2715C113.399 24.9027 113.474 24.5704 113.621 24.2754C113.769 23.9725 113.973 23.7435 114.235 23.5879C114.498 23.424 114.792 23.3418 115.12 23.3418ZM8.99707 12.0703H5.93652C3.53983 12.0827 1.58594 14.05 1.58594 16.459V20.834H19.3223V22.4199H17.0977V27.2256H15.5244V22.4199H0V16.459C0 15.4266 0.270584 14.4064 0.774414 13.5215C1.83143 11.6533 3.81022 10.4977 5.93652 10.4854H8.99707V12.0703ZM62.1572 23.3418C62.9601 23.3418 63.3657 23.7923 63.374 24.6934V27.2012H62.7227V24.6934C62.7226 24.4232 62.6609 24.2229 62.5381 24.0918C62.4152 23.9608 62.2229 23.8946 61.9609 23.8945C61.7561 23.8945 61.5711 23.9482 61.4072 24.0547C61.2517 24.1694 61.1292 24.3169 61.0391 24.4971V27.2012H60.3877V23.415H61.002L61.0264 23.8828C61.3132 23.5223 61.6902 23.3418 62.1572 23.3418ZM72.8994 21.7441C73.0468 21.7441 73.1944 21.7647 73.3418 21.8057L73.3057 22.334C73.1991 22.3094 73.0839 22.2969 72.9609 22.2969C72.748 22.2969 72.5844 22.3586 72.4697 22.4814C72.355 22.6043 72.2979 22.7804 72.2979 23.0098V23.415H73.1084V23.9072H72.2979V27.2012H71.6455V23.9072H71.0557V23.415H71.6455V23.0225C71.6455 22.6209 71.7563 22.3046 71.9775 22.0752C72.1905 21.8541 72.4981 21.7442 72.8994 21.7441ZM80.459 23.3418C80.59 23.3418 80.6884 23.3579 80.7539 23.3906V23.9932C80.6556 23.9768 80.5492 23.9688 80.4346 23.9688C80.0085 23.9688 79.7172 24.1492 79.5615 24.5098V27.2012H78.9229V23.415H79.5498L79.5615 23.8457C79.7746 23.5097 80.0739 23.3418 80.459 23.3418ZM87.4277 22.6533H84.8965V24.3008H87.1084V24.8408H84.8965V26.6484H87.4648V27.2012H84.2197V22.1006H87.4277V22.6533ZM89.4072 27.2012H88.7559V21.8174H89.4072V27.2012ZM99.2891 23.3418C100.125 23.3418 100.547 23.7804 100.556 24.6572V27.2012H99.916V24.7061C99.916 24.4357 99.8543 24.2311 99.7314 24.0918C99.6003 23.9607 99.3913 23.8945 99.1045 23.8945C98.859 23.8946 98.6585 23.9645 98.5029 24.1035C98.3472 24.251 98.257 24.444 98.2324 24.6816V27.2012H97.5811V24.7188C97.5811 24.1697 97.3103 23.8945 96.7695 23.8945C96.3434 23.8945 96.0522 24.075 95.8965 24.4355V27.2012H95.2451V23.415H95.8604L95.8721 23.833C96.1506 23.5053 96.5278 23.3418 97.0029 23.3418C97.5355 23.3418 97.8965 23.5464 98.085 23.9561C98.2078 23.7677 98.3715 23.6201 98.5762 23.5137C98.781 23.399 99.0187 23.3418 99.2891 23.3418ZM108.114 23.3418C108.909 23.3418 109.31 23.7922 109.318 24.6934V27.2012H108.68V24.6934C108.671 24.4234 108.606 24.2229 108.483 24.0918C108.361 23.9608 108.172 23.8946 107.918 23.8945C107.705 23.8945 107.52 23.9482 107.364 24.0547C107.2 24.1694 107.074 24.3169 106.983 24.4971V27.2012H106.345V23.415H106.959L106.971 23.8828C107.266 23.5223 107.647 23.3418 108.114 23.3418ZM119.718 23.3418C119.84 23.3418 119.935 23.3579 120 23.3906V23.9932C119.902 23.9768 119.795 23.9688 119.681 23.9688C119.255 23.9688 118.968 24.1492 118.82 24.5098V27.2012H118.169V23.415H118.796L118.808 23.8457C119.021 23.5097 119.324 23.3418 119.718 23.3418ZM57.3516 23.8701C57.0321 23.8701 56.7738 23.9971 56.5771 24.251C56.3805 24.5049 56.2823 24.8697 56.2822 25.3447C56.2822 25.7707 56.3761 26.1112 56.5645 26.3652C56.7611 26.6193 57.0238 26.7461 57.3516 26.7461C57.679 26.746 57.9411 26.6154 58.1377 26.3535C58.3343 26.0995 58.4326 25.7385 58.4326 25.2715C58.4326 24.8536 58.3344 24.5177 58.1377 24.2637C57.9329 24.0015 57.671 23.8702 57.3516 23.8701ZM75.874 23.8701C75.5545 23.8702 75.2962 23.997 75.0996 24.251C74.903 24.5049 74.8047 24.8697 74.8047 25.3447C74.8047 25.7707 74.903 26.1112 75.0996 26.3652C75.288 26.6192 75.5463 26.7461 75.874 26.7461C76.2099 26.7461 76.4727 26.6156 76.6611 26.3535C76.8578 26.0995 76.956 25.7385 76.9561 25.2715C76.9561 24.8537 76.8577 24.5177 76.6611 24.2637C76.4645 24.0015 76.2018 23.8701 75.874 23.8701ZM115.12 23.8701C114.801 23.8702 114.542 23.997 114.346 24.251C114.149 24.5049 114.055 24.8697 114.063 25.3447C114.063 25.7707 114.157 26.1112 114.346 26.3652C114.542 26.6193 114.805 26.7461 115.133 26.7461C115.46 26.746 115.722 26.6154 115.919 26.3535C116.107 26.0995 116.202 25.7385 116.202 25.2715C116.202 24.8537 116.104 24.5177 115.907 24.2637C115.711 24.0015 115.448 23.8701 115.12 23.8701ZM48.207 23.8945C47.8875 23.8945 47.6373 24.0179 47.457 24.2637C47.2768 24.5095 47.1865 24.874 47.1865 25.3574C47.1865 25.7835 47.2768 26.1194 47.457 26.3652C47.6373 26.6029 47.883 26.7217 48.1943 26.7217C48.604 26.7217 48.9033 26.5377 49.0918 26.1689V24.4355C48.9034 24.0752 48.6083 23.8947 48.207 23.8945ZM52.7539 23.8945C52.4346 23.8946 52.1851 24.0181 52.0049 24.2637C51.8246 24.5095 51.7344 24.874 51.7344 25.3574C51.7344 25.7835 51.8246 26.1194 52.0049 26.3652C52.1852 26.6028 52.4308 26.7217 52.7422 26.7217C53.1518 26.7216 53.4512 26.5376 53.6396 26.1689V24.4355C53.4512 24.075 53.1554 23.8945 52.7539 23.8945ZM44.0273 25.3574C43.2329 25.3575 42.8352 25.5909 42.835 26.0576C42.835 26.2623 42.9049 26.4224 43.0439 26.5371C43.1751 26.6518 43.3475 26.71 43.5605 26.71C43.7652 26.7099 43.9576 26.6562 44.1377 26.5498C44.3178 26.4434 44.4493 26.3082 44.5312 26.1445V25.3574H44.0273ZM92.4424 23.8701C92.1804 23.8702 91.9594 23.9686 91.7793 24.165C91.5991 24.3535 91.4883 24.6198 91.4473 24.9639H93.3525V24.915C93.328 24.5873 93.2377 24.3291 93.082 24.1406C92.9263 23.9604 92.7128 23.8701 92.4424 23.8701ZM103.529 23.8701C103.267 23.8702 103.05 23.9685 102.878 24.165C102.698 24.3535 102.587 24.6198 102.546 24.9639H104.439V24.915C104.423 24.5873 104.336 24.3291 104.181 24.1406C104.017 23.9605 103.8 23.8701 103.529 23.8701ZM17.0977 10.4854H32.6211V16.4463C32.6211 17.4787 32.3506 18.4988 31.8467 19.3838C30.7896 21.252 28.8109 22.4076 26.6846 22.4199H23.624V20.834H26.6846C29.0813 20.8216 31.0351 18.8553 31.0352 16.4463V12.0703H13.2871V10.4854H15.5244V5.67871H17.0977V10.4854ZM16.3105 0.135742C17.3429 0.135742 18.3509 0.405758 19.248 0.921875C21.104 1.97893 22.2592 3.94627 22.2715 6.08496V9.13281H20.6865V6.08496C20.6742 3.67587 18.7196 1.72168 16.3105 1.72168H11.9229V19.4697H10.3496V17.2451H5.53125V15.6592H10.3496V0.135742H16.3105ZM17.0977 15.6592H19.3223V17.2451H17.0977V19.4697H15.5244V17.2451H13.2871V15.6592H15.5244V13.4346H17.0977V15.6592ZM101.821 13.6064C101.821 14.393 102.01 14.9666 102.387 15.3271C102.764 15.6877 103.288 15.8682 103.96 15.8682C105.353 15.8681 106.058 15.1391 106.074 13.6807V5.67871H108.557V13.5947C108.557 14.9057 108.147 15.9466 107.327 16.7168C106.508 17.4786 105.385 17.8593 103.96 17.8594C102.551 17.8594 101.436 17.4869 100.616 16.7412C99.7887 16.0038 99.367 14.9834 99.3506 13.6807V5.67871H101.821V13.6064ZM115.587 5.50684C116.447 5.50684 117.214 5.66231 117.886 5.97363C118.558 6.28501 119.079 6.72366 119.447 7.28906C119.816 7.86261 120 8.51044 120 9.23145H117.529C117.529 8.67426 117.353 8.24361 117.001 7.94043C116.657 7.63729 116.173 7.4854 115.551 7.48535C114.944 7.48535 114.473 7.61317 114.137 7.86719C113.801 8.12117 113.633 8.45725 113.633 8.875C113.633 9.26815 113.829 9.59627 114.223 9.8584C114.616 10.1288 115.194 10.378 115.956 10.6074C117.365 11.0253 118.394 11.5498 119.041 12.1807C119.68 12.8115 120 13.5943 120 14.5283C120 15.5689 119.607 16.3846 118.82 16.9746C118.034 17.5646 116.976 17.8594 115.648 17.8594C114.723 17.8593 113.879 17.6913 113.117 17.3555C112.355 17.0113 111.777 16.5486 111.384 15.9668C110.982 15.3768 110.781 14.6925 110.781 13.9141H113.265C113.265 15.2414 114.059 15.9052 115.648 15.9053C116.23 15.9053 116.689 15.7864 117.025 15.5488C117.353 15.303 117.518 14.9671 117.518 14.541C117.518 14.0739 117.353 13.713 117.025 13.459C116.689 13.2132 116.095 12.9514 115.243 12.6729C114.383 12.3943 113.703 12.1199 113.203 11.8496C111.835 11.1122 111.151 10.1204 111.15 8.875C111.15 8.21946 111.334 7.63695 111.703 7.12891C112.072 6.62103 112.596 6.22426 113.276 5.9375C113.965 5.65075 114.735 5.50689 115.587 5.50684ZM48.3789 7.68262H44.6914V17.7002H42.2207V7.68262H38.582V5.67871H48.3789V7.68262ZM52.9512 10.5459H57.7812V5.67871H60.2646V17.7002H57.7812V12.5498H52.9512V17.7002H50.4805V5.67871H52.9512V10.5459ZM71.1543 7.68262H65.5859V10.5459H70.3428V12.4883H65.5859V15.709H71.167V17.7002H63.1162V5.67871H71.1543V7.68262ZM82.9053 5.67871C83.8064 5.67876 84.6009 5.84322 85.2891 6.1709C85.9774 6.49866 86.5063 6.96944 86.875 7.58398C87.2437 8.19031 87.4277 8.88275 87.4277 9.66113C87.4277 10.8329 87.0222 11.7593 86.2109 12.4395C85.408 13.1194 84.2937 13.459 82.8682 13.459H80.6924V17.7002H78.2217V5.67871H82.9053ZM92.2959 15.709H97.5557V17.7002H89.8125V5.67871H92.2959V15.709ZM80.6924 11.4561H82.9053C83.5604 11.456 84.0602 11.3004 84.4043 10.9893C84.7484 10.6861 84.9209 10.2473 84.9209 9.67383C84.9209 9.08389 84.7484 8.60858 84.4043 8.24805C84.0602 7.8794 83.5811 7.6909 82.9668 7.68262H80.6924V11.4561Z" fill="white"/>
</svg>
