<svg width="250" height="160" viewBox="0 0 250 160" fill="none" xmlns="http://www.w3.org/2000/svg">
<path d="M85 115C88.4517 115 91.2499 117.798 91.25 121.25V148.75C91.25 152.202 88.4518 155 85 155H56.25C52.7982 155 50 152.202 50 148.75V121.25C50.0001 117.798 52.7983 115 56.25 115H85ZM137.5 115C140.952 115 143.75 117.798 143.75 121.25V148.75C143.75 152.202 140.952 155 137.5 155H112.5C109.048 155 106.25 152.202 106.25 148.75V121.25C106.25 117.798 109.048 115 112.5 115H137.5ZM193.75 115C197.202 115 200 117.798 200 121.25V148.75C200 152.202 197.202 155 193.75 155H165C161.548 155 158.75 152.202 158.75 148.75V121.25C158.75 117.798 161.548 115 165 115H193.75ZM85 60C88.4517 60 91.2499 62.7983 91.25 66.25V93.75C91.25 97.2018 88.4518 100 85 100H56.25C52.7982 100 50 97.2018 50 93.75V66.25C50.0001 62.7983 52.7983 60 56.25 60H85ZM137.5 60C140.952 60 143.75 62.7983 143.75 66.25V93.75C143.75 97.2018 140.952 100 137.5 100H112.5C109.048 100 106.25 97.2018 106.25 93.75V66.25C106.25 62.7983 109.048 60 112.5 60H137.5ZM193.75 60C197.202 60.0001 200 62.7983 200 66.25V93.75C200 97.2017 197.202 99.9999 193.75 100H165C161.548 100 158.75 97.2018 158.75 93.75V66.25C158.75 62.7983 161.548 60 165 60H193.75ZM85 5C88.4518 5 91.25 7.79822 91.25 11.25V38.75C91.25 42.2018 88.4518 45 85 45H56.25C52.7982 45 50 42.2018 50 38.75V11.25C50 7.79822 52.7982 5 56.25 5H85ZM137.5 5C140.952 5 143.75 7.79822 143.75 11.25V38.75C143.75 42.2018 140.952 45 137.5 45H112.5C109.048 45 106.25 42.2018 106.25 38.75V11.25C106.25 7.79822 109.048 5 112.5 5H137.5ZM193.75 5C197.202 5.00011 200 7.79829 200 11.25V38.75C200 42.2017 197.202 44.9999 193.75 45H165C161.548 45 158.75 42.2018 158.75 38.75V11.25C158.75 7.79822 161.548 5 165 5H193.75Z" fill="#646464"/>
</svg>
