<svg width="250" height="160" viewBox="0 0 250 160" fill="none" xmlns="http://www.w3.org/2000/svg">
<path d="M243.507 33.8325H7.49375C6.66878 33.8325 6 34.5013 6 35.3263V124.653C6 125.478 6.66878 126.146 7.49375 126.146H243.507C244.332 126.146 245 125.478 245 124.653V35.3263C245 34.5013 244.332 33.8325 243.507 33.8325Z" fill="#A7A7A7"/>
<path d="M136.807 79.9994V71.0224C136.807 70.3421 136.537 69.6898 136.056 69.2087C135.575 68.7277 134.923 68.4575 134.242 68.4575H116.288C115.608 68.4575 114.956 68.7277 114.475 69.2087C113.994 69.6898 113.724 70.3421 113.724 71.0224V85.1291M136.807 79.9994V88.9764C136.807 89.6566 136.537 90.309 136.056 90.79C135.575 91.271 134.923 91.5412 134.242 91.5412H130.395M136.807 79.9994C128.546 79.9994 123.848 82.545 121.348 85.4407M113.724 85.1291V88.9764C113.724 89.6566 113.994 90.309 114.475 90.79C114.956 91.271 115.608 91.5412 116.288 91.5412H130.395M113.724 85.1291C115.523 84.829 118.388 84.7533 121.348 85.4407M130.395 91.5412C128.21 87.9915 124.718 86.2217 121.348 85.4407M120.777 73.5872C120.136 73.5872 118.853 73.972 118.853 75.5109C118.853 77.0498 120.136 77.4345 120.777 77.4345C121.418 77.4345 122.701 77.0498 122.701 75.5109C122.701 73.972 121.418 73.5872 120.777 73.5872Z" stroke="#646464" stroke-width="1.8467" stroke-linecap="round" stroke-linejoin="round"/>
<path d="M152.601 27.4777L152.835 27.1885L161.484 16.5084L161.718 16.2192L161.748 16.5903L162.532 26.0667L162.544 26.2089L162.402 26.2268L152.97 27.4307L152.601 27.4777Z" fill="#A7A7A7"/>
<path d="M98.8447 132.522L98.6105 132.812L89.9616 143.492L89.7277 143.781L89.6969 143.41L88.9133 133.933L88.9014 133.791L89.0433 133.773L98.4754 132.569L98.8447 132.522Z" fill="#A7A7A7"/>
<path d="M84.7393 23.3544C84.7393 23.3544 97.2569 8.2469 122.927 8.18476C148.597 8.12262 158.829 23.3544 158.829 23.3544M166.71 136.647C166.71 136.647 154.192 151.754 128.523 151.816C102.853 151.878 92.62 136.647 92.62 136.647" stroke="#A7A7A7" stroke-width="2.39" stroke-linecap="round"/>
</svg>
