<svg width="250" height="160" viewBox="0 0 250 160" fill="none" xmlns="http://www.w3.org/2000/svg">
<path d="M201.085 5H48.9854C48.1569 5 47.4854 5.67157 47.4854 6.5V153.5C47.4854 154.328 48.1569 155 48.9854 155H201.085C201.914 155 202.585 154.328 202.585 153.5V6.5C202.585 5.67157 201.914 5 201.085 5Z" fill="#A7A7A7"/>
<path d="M137.217 80.0003V70.6253C137.217 69.9149 136.935 69.2336 136.433 68.7313C135.931 68.229 135.249 67.9468 134.539 67.9468H115.789C115.079 67.9468 114.397 68.229 113.895 68.7313C113.393 69.2336 113.11 69.9149 113.11 70.6253V85.3575M137.217 80.0003V89.3753C137.217 90.0857 136.935 90.7671 136.433 91.2694C135.931 91.7717 135.249 92.0539 134.539 92.0539H130.521M137.217 80.0003C128.59 80.0003 123.684 82.6588 121.072 85.6829M113.11 85.3575V89.3753C113.11 90.0857 113.393 90.7671 113.895 91.2694C114.397 91.7717 115.079 92.0539 115.789 92.0539H130.521M113.11 85.3575C114.989 85.0441 117.981 84.9651 121.072 85.6829M130.521 92.0539C128.239 88.3468 124.592 86.4986 121.072 85.6829M120.476 73.3039C119.807 73.3039 118.467 73.7057 118.467 75.3128C118.467 76.92 119.807 77.3218 120.476 77.3218C121.146 77.3218 122.485 76.92 122.485 75.3128C122.485 73.7057 121.146 73.3039 120.476 73.3039Z" stroke="#646464" stroke-width="1.92857" stroke-linecap="round" stroke-linejoin="round"/>
<path d="M33.3778 53.042L33.0874 52.8068L22.3627 44.1218L22.0723 43.8869L22.4449 43.856L31.9609 43.0691L32.1037 43.0571L32.1217 43.1996L33.3307 52.6712L33.3778 53.042Z" fill="#A7A7A7"/>
<path d="M215.658 110.924L215.949 111.16L226.673 119.845L226.964 120.079L226.591 120.11L217.075 120.897L216.932 120.909L216.914 120.767L215.705 111.295L215.658 110.924Z" fill="#A7A7A7"/>
<path d="M29.2352 121.191C29.2352 121.191 14.0645 108.621 14.0021 82.8434C13.9397 57.0662 29.2352 46.7906 29.2352 46.7906M219.801 42.7769C219.801 42.7769 234.971 55.3469 235.034 81.1241C235.096 106.901 219.801 117.177 219.801 117.177" stroke="#A7A7A7" stroke-width="2.4" stroke-linecap="round"/>
</svg>
