<svg width="250" height="160" viewBox="0 0 250 160" fill="none" xmlns="http://www.w3.org/2000/svg">
<circle cx="33.89" cy="33.89" r="33.89" transform="matrix(-1 0 0 1 158.78 46)" fill="#646464"/>
<path d="M124.933 101.071C118.998 101.071 113.977 99.0172 109.871 94.9091C105.765 90.801 103.711 85.7802 103.709 79.8467C103.709 74.4227 105.478 69.7156 109.015 65.7254C112.552 61.7351 117.072 59.4067 122.575 58.7401C123.086 58.6615 123.538 58.7307 123.931 58.9477C124.324 59.1646 124.638 59.4492 124.874 59.8014C125.11 60.1535 125.238 60.5662 125.258 61.0395C125.279 61.5127 125.131 61.9647 124.815 62.3955C124.147 63.4174 123.645 64.4983 123.311 65.6381C122.976 66.7779 122.809 67.9767 122.811 69.2345C122.811 72.7719 124.049 75.7787 126.525 78.2549C129.001 80.7311 132.008 81.9692 135.545 81.9692C136.763 81.9692 137.972 81.7923 139.172 81.4386C140.371 81.0848 141.442 80.5935 142.384 79.9647C142.816 79.6895 143.259 79.5622 143.711 79.5826C144.164 79.6031 144.567 79.7107 144.919 79.9057C145.312 80.1022 145.617 80.397 145.834 80.7901C146.051 81.1831 146.119 81.6548 146.039 82.205C145.489 87.6291 143.18 92.1295 139.113 95.7062C135.046 99.2829 130.319 101.071 124.933 101.071Z" fill="#E8E8E8"/>
</svg>
