<svg width="250" height="160" viewBox="0 0 250 160" fill="none" xmlns="http://www.w3.org/2000/svg">
<rect x="61.25" y="6.25" width="127.5" height="147.5" rx="3.75" fill="#E8E8E8"/>
<rect x="61.25" y="6.25" width="127.5" height="147.5" rx="3.75" stroke="#A7A7A7" stroke-width="2.5"/>
<rect x="81.0586" y="20" width="87.8788" height="5" fill="#D9D9D9"/>
<rect x="81.0586" y="47.5" width="87.8788" height="5" fill="#D9D9D9"/>
<rect x="75" y="33.75" width="100" height="5" fill="#D9D9D9"/>
<rect x="75" y="61.25" width="100" height="5" fill="#D9D9D9"/>
<rect x="107.5" y="122.5" width="35" height="7.5" fill="#646464"/>
<rect x="92.5" y="135" width="65" height="5" fill="#A7A7A7"/>
<g clip-path="url(#clip0_3375_1480)">
<rect x="110" y="82.5" width="30" height="30" rx="15" fill="#E8E8E8"/>
<path d="M133.75 111.25V108.75C133.75 107.424 133.223 106.152 132.286 105.214C131.348 104.277 130.076 103.75 128.75 103.75H121.25C119.924 103.75 118.652 104.277 117.714 105.214C116.777 106.152 116.25 107.424 116.25 108.75V111.25" stroke="#A7A7A7" stroke-width="2.5" stroke-linecap="round" stroke-linejoin="round"/>
<path d="M125 100C127.761 100 130 97.7614 130 95C130 92.2386 127.761 90 125 90C122.239 90 120 92.2386 120 95C120 97.7614 122.239 100 125 100Z" stroke="#A7A7A7" stroke-width="2.5" stroke-linecap="round" stroke-linejoin="round"/>
</g>
<rect x="111.25" y="83.75" width="27.5" height="27.5" rx="13.75" stroke="#A7A7A7" stroke-width="2.5"/>
<defs>
<clipPath id="clip0_3375_1480">
<rect x="110" y="82.5" width="30" height="30" rx="15" fill="white"/>
</clipPath>
</defs>
</svg>
