<svg width="250" height="160" viewBox="0 0 250 160" fill="none" xmlns="http://www.w3.org/2000/svg">
<rect x="13.75" y="6.25" width="222.5" height="147.5" rx="3.75" fill="#E8E8E8"/>
<rect x="13.75" y="6.25" width="222.5" height="147.5" rx="3.75" stroke="#A7A7A7" stroke-width="2.5"/>
<rect x="32.5" y="24.9995" width="185" height="5.3125" fill="#D9D9D9"/>
<rect x="32.5" y="39.062" width="185" height="5.3125" fill="#D9D9D9"/>
<rect x="32.5" y="53.1245" width="185" height="5.3125" fill="#D9D9D9"/>
<rect x="32.5" y="67.187" width="100" height="5.3125" fill="#D9D9D9"/>
<rect x="32.5" y="87.4995" width="100" height="2.5" fill="#646464"/>
<g clip-path="url(#clip0_3391_38)">
<rect x="32.5" y="105" width="30" height="30" rx="15" fill="#E8E8E8"/>
<path d="M56.25 133.75V131.25C56.25 129.923 55.7232 128.652 54.7855 127.714C53.8479 126.776 52.5761 126.25 51.25 126.25H43.75C42.4239 126.25 41.1521 126.776 40.2145 127.714C39.2768 128.652 38.75 129.923 38.75 131.25V133.75" stroke="#A7A7A7" stroke-width="2.5" stroke-linecap="round" stroke-linejoin="round"/>
<path d="M47.502 122.499C50.2634 122.499 52.502 120.26 52.502 117.499C52.502 114.738 50.2634 112.499 47.502 112.499C44.7405 112.499 42.502 114.738 42.502 117.499C42.502 120.26 44.7405 122.499 47.502 122.499Z" stroke="#A7A7A7" stroke-width="2.5" stroke-linecap="round" stroke-linejoin="round"/>
</g>
<rect x="33.75" y="106.25" width="27.5" height="27.5" rx="13.75" stroke="#A7A7A7" stroke-width="2.5"/>
<rect x="70" y="111.25" width="35" height="7.5" fill="#646464"/>
<rect x="70" y="123.75" width="65" height="5" fill="#A7A7A7"/>
<rect x="85" y="40" width="80" height="80" rx="40" fill="#A7A7A7"/>
<path d="M139.001 70.6663H136.667V65.9997C136.667 59.5597 131.441 54.333 125.001 54.333C118.561 54.333 113.334 59.5597 113.334 65.9997V70.6663H111.001C108.434 70.6663 106.334 72.7663 106.334 75.333V98.6663C106.334 101.233 108.434 103.333 111.001 103.333H139.001C141.567 103.333 143.667 101.233 143.667 98.6663V75.333C143.667 72.7663 141.567 70.6663 139.001 70.6663ZM125.001 91.6663C122.434 91.6663 120.334 89.5663 120.334 86.9997C120.334 84.433 122.434 82.333 125.001 82.333C127.567 82.333 129.667 84.433 129.667 86.9997C129.667 89.5663 127.567 91.6663 125.001 91.6663ZM132.234 70.6663H117.767V65.9997C117.767 62.0097 121.011 58.7663 125.001 58.7663C128.991 58.7663 132.234 62.0097 132.234 65.9997V70.6663Z" fill="#6660EF"/>
<defs>
<clipPath id="clip0_3391_38">
<rect x="32.5" y="105" width="30" height="30" rx="15" fill="white"/>
</clipPath>
</defs>
</svg>
