<svg width="250" height="160" viewBox="0 0 250 160" fill="none" xmlns="http://www.w3.org/2000/svg">
<rect x="107.5" y="137.5" width="35" height="7.50001" fill="#646464"/>
<rect x="92.5" y="150" width="65.0001" height="5" fill="#A7A7A7"/>
<g clip-path="url(#clip0_3375_1462)">
<rect x="110" y="97.5" width="30" height="30" rx="15" fill="#E8E8E8"/>
<path d="M133.751 126.25V123.75C133.751 122.424 133.224 121.152 132.287 120.214C131.349 119.277 130.077 118.75 128.751 118.75H121.251C119.925 118.75 118.653 119.277 117.715 120.214C116.778 121.152 116.251 122.424 116.251 123.75V126.25" stroke="#A7A7A7" stroke-width="2.5" stroke-linecap="round" stroke-linejoin="round"/>
<path d="M125.001 115C127.762 115 130.001 112.761 130.001 110C130.001 107.239 127.762 105 125.001 105C122.24 105 120.001 107.239 120.001 110C120.001 112.761 122.24 115 125.001 115Z" stroke="#A7A7A7" stroke-width="2.5" stroke-linecap="round" stroke-linejoin="round"/>
</g>
<rect x="111.25" y="98.75" width="27.5" height="27.5" rx="13.75" stroke="#A7A7A7" stroke-width="2.5"/>
<mask id="path-7-inside-1_3375_1462" fill="white">
<path d="M126.759 90.7588C125.785 91.723 124.215 91.723 123.241 90.7588L117.422 85H51.25C48.4886 85 46.25 82.7614 46.25 80V10C46.25 7.23858 48.4886 5 51.25 5H198.75C201.511 5 203.75 7.23858 203.75 10V80C203.75 82.7614 201.511 85 198.75 85H132.578L126.759 90.7588Z"/>
</mask>
<path d="M126.759 90.7588C125.785 91.723 124.215 91.723 123.241 90.7588L117.422 85H51.25C48.4886 85 46.25 82.7614 46.25 80V10C46.25 7.23858 48.4886 5 51.25 5H198.75C201.511 5 203.75 7.23858 203.75 10V80C203.75 82.7614 201.511 85 198.75 85H132.578L126.759 90.7588Z" fill="#E8E8E8"/>
<path d="M126.759 90.7588L125 88.9818L125 88.9819L126.759 90.7588ZM123.241 90.7588L125 88.9819L125 88.9818L123.241 90.7588ZM117.422 85L119.18 83.223L118.45 82.5H117.422V85ZM51.25 85L51.25 87.5H51.25V85ZM46.25 10L43.75 9.99999V10H46.25ZM51.25 5L51.25 2.5L51.25 2.5L51.25 5ZM203.75 10L206.25 10L206.25 10L203.75 10ZM132.578 85V82.5H131.55L130.82 83.223L132.578 85ZM126.759 90.7588L125 88.9819L125 88.9819L123.241 90.7588L121.483 92.5356C123.431 94.464 126.569 94.464 128.517 92.5356L126.759 90.7588ZM123.241 90.7588L125 88.9818L119.18 83.223L117.422 85L115.663 86.777L121.483 92.5358L123.241 90.7588ZM117.422 85V82.5H51.25V85V87.5H117.422V85ZM51.25 85L51.25 82.5C49.8693 82.5 48.75 81.3807 48.75 80H46.25H43.75C43.75 84.1421 47.1079 87.5 51.25 87.5L51.25 85ZM46.25 80H48.75V10H46.25H43.75V80H46.25ZM46.25 10L48.75 10C48.75 8.61929 49.8693 7.5 51.25 7.5L51.25 5L51.25 2.5C47.1079 2.5 43.75 5.85787 43.75 9.99999L46.25 10ZM51.25 5V7.5H198.75V5V2.5H51.25V5ZM198.75 5V7.5C200.131 7.5 201.25 8.61929 201.25 10L203.75 10L206.25 10C206.25 5.85786 202.892 2.5 198.75 2.5V5ZM203.75 10H201.25V80H203.75H206.25V10H203.75ZM203.75 80H201.25C201.25 81.3807 200.131 82.5 198.75 82.5V85V87.5C202.892 87.5 206.25 84.1421 206.25 80H203.75ZM198.75 85V82.5H132.578V85V87.5H198.75V85ZM132.578 85L130.82 83.223L125 88.9818L126.759 90.7588L128.517 92.5358L134.337 86.777L132.578 85Z" fill="#A7A7A7" mask="url(#path-7-inside-1_3375_1462)"/>
<rect x="82" y="34" width="87" height="4" fill="#D9D9D9"/>
<rect x="82" y="56" width="87" height="4" fill="#D9D9D9"/>
<rect x="76" y="45" width="99" height="4" fill="#D9D9D9"/>
<rect x="76" y="67" width="99" height="4" fill="#D9D9D9"/>
<defs>
<clipPath id="clip0_3375_1462">
<rect x="110" y="97.5" width="30" height="30" rx="15" fill="white"/>
</clipPath>
</defs>
</svg>
