<svg width="250" height="160" viewBox="0 0 250 160" fill="none" xmlns="http://www.w3.org/2000/svg">
<path d="M80.8814 88.9721L76.4141 93.4394L63.006 80.0344L76.411 66.6294L80.8783 71.0999L75.1062 76.8751H98.918V83.1937H75.1062L80.8814 88.9721Z" fill="#646464"/>
<path fill-rule="evenodd" clip-rule="evenodd" d="M56.4751 104.608C42.9026 91.0353 42.9026 69.0338 56.4751 55.4613C70.0475 41.8889 92.049 41.8889 105.621 55.4613C119.194 69.0338 119.194 91.0353 105.621 104.608C92.049 118.18 70.0475 118.18 56.4751 104.608ZM60.9424 100.14C58.302 97.5001 56.2076 94.3655 54.7786 90.9158C53.3497 87.466 52.6142 83.7685 52.6142 80.0345C52.6142 76.3005 53.3497 72.6031 54.7786 69.1533C56.2076 65.7035 58.302 62.569 60.9424 59.9286C63.5827 57.2883 66.7173 55.1938 70.167 53.7649C73.6168 52.3359 77.3143 51.6005 81.0483 51.6005C84.7823 51.6005 88.4797 52.3359 91.9295 53.7649C95.3793 55.1938 98.5138 57.2883 101.154 59.9286C106.487 65.261 109.482 72.4933 109.482 80.0345C109.482 87.5757 106.487 94.808 101.154 100.14C95.8218 105.473 88.5894 108.469 81.0483 108.469C73.5071 108.469 66.2748 105.473 60.9424 100.14Z" fill="#646464"/>
<path d="M169.255 88.9721L173.723 93.4394L187.131 80.0344L173.726 66.6294L169.258 71.0999L175.031 76.8751H151.219V83.1937H175.031L169.255 88.9721Z" fill="#646464"/>
<path fill-rule="evenodd" clip-rule="evenodd" d="M193.662 104.608C207.234 91.0353 207.234 69.0338 193.662 55.4613C180.089 41.8889 158.088 41.8889 144.515 55.4613C130.943 69.0338 130.943 91.0353 144.515 104.608C158.088 118.18 180.089 118.18 193.662 104.608ZM189.194 100.14C191.835 97.5001 193.929 94.3655 195.358 90.9158C196.787 87.466 197.523 83.7685 197.523 80.0345C197.523 76.3005 196.787 72.6031 195.358 69.1533C193.929 65.7035 191.835 62.569 189.194 59.9286C186.554 57.2883 183.419 55.1938 179.97 53.7649C176.52 52.3359 172.822 51.6005 169.088 51.6005C165.354 51.6005 161.657 52.3359 158.207 53.7649C154.757 55.1938 151.623 57.2883 148.983 59.9286C143.65 65.261 140.654 72.4933 140.654 80.0345C140.654 87.5757 143.65 94.808 148.983 100.14C154.315 105.473 161.547 108.469 169.088 108.469C176.63 108.469 183.862 105.473 189.194 100.14Z" fill="#646464"/>
</svg>
