<svg xmlns="http://www.w3.org/2000/svg" width="250" height="160" fill="none"><path fill="#E8E8E8" d="M174 53a48 48 0 1 1-97 0 48 48 0 0 1 97 0Zm-85 0a36 36 0 1 0 73 0 36 36 0 0 0-73 0Z"/><path fill="#646464" d="M126 5a48 48 0 1 0 48 48h-12a36 36 0 1 1-36-36V5Z"/><path fill="#646464" d="m137 54-8-5 4-10a2 2 0 0 0-3-2l-15 14a2 2 0 0 0 0 3l9 5-5 10a2 2 0 0 0 4 2l15-14v-1a2 2 0 0 0-1-2ZM103 128l7-13h-8v-3h11v3l-6 13h-4Zm18 0h-3l-2-2-1-3h4l1 2 1 1 2-1 1-1v-3l-1-1h-3l-1 1-3-1 1-8h10v3h-8v4l1-1 2-1a5 5 0 0 1 5 3v6l-2 2h-4Zm18-3v-3l1-1h4l2 1v5l-2 1-2 1-2-1-1-1v-2Zm2-1v2l1 1 1-1 1-1v-1l-1-1h-2v1Zm-11-8v-1l1-2 1-1 2-1 2 1 1 1 1 2v1l-1 2-1 1h-4l-1-1-1-2Zm3-1v2h2v-3l-1-1-1 1v1Zm-2 13 12-16h2l-11 16h-3ZM77 143h97v12H77z"/></svg>