<svg xmlns="http://www.w3.org/2000/svg" width="250" height="160" fill="none"><path fill="#E8E8E8" d="M184 64a59 59 0 1 1-117 0 59 59 0 0 1 117 0ZM81 64a44 44 0 1 0 89 0 44 44 0 0 0-89 0Z"/><path fill="#646464" d="M126 5a59 59 0 1 0 58 59h-14a44 44 0 1 1-44-44V5Z"/><path fill="#646464" d="m98 74 8-16v-1h-9v-3h14v4l-8 16h-5Zm23 0-4-1-3-2-1-3h4l1 2 3 1 1-1 1-1 1-2-1-2-1-1h-3l-1 1-4-1 1-10h12v3h-9v5l1-1h3a6 6 0 0 1 5 3l1 3-1 4-3 2-3 1Zm21-4v-3l2-2h4l2 2v5l-2 2h-4l-2-2v-2Zm2-1v1l1 1 1 1 1-1v-3l-1-1-1 1-1 1Zm-13-10v-1l1-2 1-2 3-1 2 1 2 2v5l-2 2h-5l-1-2-1-2Zm3-1v1l1 1 1 1 1-1v-4h-2l-1 2Zm-1 16 13-20h3l-14 20h-2ZM67 141h117v14H67z"/></svg>