<svg width="250" height="160" viewBox="0 0 250 160" fill="none" xmlns="http://www.w3.org/2000/svg">
<rect x="5" y="41.29" width="77.4194" height="77.4194" fill="#A7A7A7"/>
<rect x="91.4512" y="48.7695" width="114.511" height="20.8201" fill="#646464"/>
<rect x="91.4512" y="79.9995" width="153.548" height="10.4101" fill="#646464"/>
<rect x="91.4512" y="100.82" width="10.4101" height="10.4101" fill="#646464"/>
<rect x="107.066" y="100.82" width="10.4101" height="10.4101" fill="#646464"/>
<path d="M43.8571 61.7144C47.6459 61.7144 51.2795 63.2195 53.9586 65.8985C56.6377 68.5776 58.1428 72.2113 58.1428 76.0001C58.1428 79.7889 56.6377 83.4225 53.9586 86.1016C51.2795 88.7807 47.6459 90.2858 43.8571 90.2858C40.0683 90.2858 36.4346 88.7807 33.7555 86.1016C31.0765 83.4225 29.5714 79.7889 29.5714 76.0001C29.5714 72.2113 31.0765 68.5776 33.7555 65.8985C36.4346 63.2195 40.0683 61.7144 43.8571 61.7144ZM43.8571 97.4286C59.6428 97.4286 72.4285 103.821 72.4285 111.714V118.857H15.2856V111.714C15.2856 103.821 28.0714 97.4286 43.8571 97.4286Z" fill="#E8E8E8"/>
</svg>
