<svg width="250" height="160" viewBox="0 0 250 160" fill="none" xmlns="http://www.w3.org/2000/svg">
<rect x="81.3545" y="5" width="87.0406" height="87.0406" fill="#A7A7A7"/>
<path d="M125.031 30C129.175 30 133.15 31.6462 136.08 34.5765C139.01 37.5067 140.656 41.481 140.656 45.625C140.656 49.769 139.01 53.7433 136.08 56.6735C133.15 59.6038 129.175 61.25 125.031 61.25C120.887 61.25 116.913 59.6038 113.983 56.6735C111.052 53.7433 109.406 49.769 109.406 45.625C109.406 41.481 111.052 37.5067 113.983 34.5765C116.913 31.6462 120.887 30 125.031 30ZM125.031 69.0625C142.297 69.0625 156.281 76.0547 156.281 84.6875V92.5H93.7812V84.6875C93.7812 76.0547 107.766 69.0625 125.031 69.0625Z" fill="#E8E8E8"/>
<rect x="77.7622" y="103.604" width="94.2249" height="17.1318" fill="#646464"/>
<rect x="61.7012" y="129.302" width="126.347" height="8.5659" fill="#646464"/>
<rect x="114.167" y="146.434" width="8.5659" height="8.5659" fill="#646464"/>
<rect x="127.016" y="146.434" width="8.5659" height="8.5659" fill="#646464"/>
</svg>
