<svg width="250" height="160" viewBox="0 0 250 160" fill="none" xmlns="http://www.w3.org/2000/svg">
<rect x="33" y="5" width="100" height="150" rx="5" fill="#646464"/>
<rect x="44" y="15" width="78" height="13" rx="2" fill="#E8E8E8"/>
<rect x="44" y="38" width="78" height="13" rx="2" fill="#E8E8E8"/>
<rect x="44" y="61" width="78" height="13" rx="2" fill="#E8E8E8"/>
<rect x="44" y="84" width="78" height="13" rx="2" fill="#E8E8E8"/>
<rect x="44" y="107" width="78" height="13" rx="2" fill="#E8E8E8"/>
<rect x="44" y="130" width="78" height="13" rx="2" fill="#E8E8E8"/>
<rect x="138" y="38" width="78.5714" height="100" rx="3.93701" fill="#A7A7A7"/>
<rect x="146.163" y="46.1631" width="62.2449" height="10.2041" rx="1.5748" fill="#E8E8E8"/>
<rect x="146.163" y="64.5298" width="62.2449" height="10.2041" rx="1.5748" fill="#E8E8E8"/>
<rect x="146.163" y="82.8979" width="62.2449" height="10.2041" rx="1.5748" fill="#E8E8E8"/>
<rect x="146.163" y="101.265" width="62.2449" height="10.2041" rx="1.5748" fill="#E8E8E8"/>
<rect x="146.163" y="119.632" width="62.2449" height="10.2041" rx="1.5748" fill="#E8E8E8"/>
</svg>
