<svg width="250" height="160" viewBox="0 0 250 160" fill="none" xmlns="http://www.w3.org/2000/svg">
<path d="M51.3984 66.7275H101.575M148.728 66.7275H198.904" stroke="#A7A7A7" stroke-width="0.906797"/>
<path d="M28.5767 90.1535C41.5978 90.1535 52.1535 79.5978 52.1535 66.5767C52.1535 53.5557 41.5978 43 28.5767 43C15.5557 43 5 53.5557 5 66.5767C5 79.5978 15.5557 90.1535 28.5767 90.1535Z" fill="#646464"/>
<path d="M125 90.1537C138.021 90.1537 148.576 79.5981 148.576 66.577C148.576 53.5559 138.021 43.0002 125 43.0002C111.979 43.0002 101.423 53.5559 101.423 66.577C101.423 79.5981 111.979 90.1537 125 90.1537Z" fill="#646464"/>
<path d="M221.422 90.1537C234.444 90.1537 244.999 79.5981 244.999 66.577C244.999 53.5559 234.444 43.0002 221.422 43.0002C208.401 43.0002 197.846 53.5559 197.846 66.577C197.846 79.5981 208.401 90.1537 221.422 90.1537Z" fill="#646464"/>
<path d="M36.1126 64.3078C36.0753 64.2405 36.0207 64.1845 35.9544 64.1455C35.8881 64.1064 35.8126 64.0859 35.7357 64.0859H28.6717V57.0331C28.6717 56.8388 28.6282 56.6704 28.4402 56.6169C28.3553 56.5927 28.2645 56.5992 28.1839 56.6353C28.1032 56.6713 28.0379 56.7346 27.9992 56.814L21.0749 68.6048C20.9997 68.7998 21.0026 69.0164 21.0831 69.2093C21.1589 69.3429 21.3125 69.5974 21.4675 69.5974H27.9826V76.1445C27.9829 76.2378 28.0133 76.3284 28.0693 76.403C28.1253 76.4776 28.2039 76.5322 28.2933 76.5586C28.3325 76.5703 28.3733 76.5759 28.4142 76.5752C28.487 76.5752 28.5587 76.5568 28.6224 76.5216C28.6862 76.4864 28.74 76.4356 28.7787 76.3739L36.1002 64.7454C36.1412 64.6802 36.164 64.6053 36.1661 64.5283C36.1683 64.4513 36.1498 64.3752 36.1126 64.3078ZM132.535 64.3078C132.498 64.2405 132.443 64.1845 132.377 64.1455C132.311 64.1064 132.235 64.0859 132.159 64.0859H125.095V57.0331C125.095 56.8388 125.051 56.6704 124.863 56.6169C124.778 56.5927 124.687 56.5992 124.607 56.6353C124.526 56.6713 124.461 56.7346 124.422 56.814L117.498 68.6048C117.422 68.7998 117.425 69.0164 117.506 69.2093C117.582 69.3429 117.735 69.5974 117.89 69.5974H124.405V76.1445C124.406 76.2378 124.436 76.3284 124.492 76.403C124.548 76.4776 124.627 76.5322 124.716 76.5586C124.755 76.5703 124.796 76.5759 124.837 76.5752C124.91 76.5752 124.982 76.5568 125.045 76.5216C125.109 76.4864 125.163 76.4356 125.202 76.3739L132.523 64.7454C132.564 64.6802 132.587 64.6053 132.589 64.5283C132.591 64.4513 132.573 64.3752 132.535 64.3078ZM228.958 64.3078C228.921 64.2405 228.866 64.1845 228.8 64.1455C228.734 64.1064 228.658 64.0859 228.581 64.0859H221.517V57.0331C221.517 56.8388 221.474 56.6704 221.286 56.6169C221.201 56.5927 221.11 56.5992 221.03 56.6353C220.949 56.6713 220.883 56.7346 220.845 56.814L213.921 68.6048C213.845 68.7998 213.848 69.0164 213.929 69.2093C214.005 69.3429 214.158 69.5974 214.313 69.5974H220.828V76.1445C220.829 76.2378 220.859 76.3284 220.915 76.403C220.971 76.4776 221.049 76.5322 221.139 76.5586C221.178 76.5703 221.219 76.5759 221.26 76.5752C221.333 76.5752 221.404 76.5568 221.468 76.5216C221.532 76.4864 221.586 76.4356 221.624 76.3739L228.946 64.7454C228.987 64.6802 229.01 64.6053 229.012 64.5283C229.014 64.4513 228.995 64.3752 228.958 64.3078Z" fill="#E8E8E8"/>
<rect x="13" y="103.868" width="30.8571" height="6.85714" fill="#646464"/>
<rect x="5" y="113.011" width="46.8571" height="4.57143" fill="#A7A7A7"/>
<rect x="109" y="103.868" width="32" height="6.85714" fill="#646464"/>
<rect x="101" y="113.011" width="48" height="4.57143" fill="#A7A7A7"/>
<rect x="205.952" y="103.868" width="31.2381" height="6.85714" fill="#646464"/>
<rect x="198.143" y="113.011" width="46.8571" height="4.57143" fill="#A7A7A7"/>
</svg>
