<svg width="250" height="160" viewBox="0 0 250 160" fill="none" xmlns="http://www.w3.org/2000/svg">
<path d="M87.5209 40.5302C97.3323 40.5302 105.286 32.5765 105.286 22.7651C105.286 12.9537 97.3323 5 87.5209 5C77.7096 5 69.7559 12.9537 69.7559 22.7651C69.7559 32.5765 77.7096 40.5302 87.5209 40.5302Z" fill="#646464"/>
<path d="M87.5209 98.2421C97.3323 98.2421 105.286 90.2884 105.286 80.477C105.286 70.6656 97.3323 62.7119 87.5209 62.7119C77.7096 62.7119 69.7559 70.6656 69.7559 80.477C69.7559 90.2884 77.7096 98.2421 87.5209 98.2421Z" fill="#646464"/>
<path d="M87.5209 155C97.3323 155 105.286 146.979 105.286 137.084C105.286 127.19 97.3323 119.168 87.5209 119.168C77.7096 119.168 69.7559 127.19 69.7559 137.084C69.7559 146.979 77.7096 155 87.5209 155Z" fill="#646464"/>
<path d="M87.6729 40.6809V62.6614M87.6729 98.1916V119.871" stroke="#A7A7A7" stroke-width="0.903309"/>
<path d="M92.9351 21.054C92.9078 21.0048 92.8679 20.9639 92.8195 20.9354C92.771 20.9069 92.7158 20.8919 92.6596 20.892H87.499V15.7392C87.499 15.5971 87.4674 15.4733 87.3298 15.4351C87.2677 15.4174 87.2014 15.4221 87.1425 15.4484C87.0836 15.4748 87.0358 15.521 87.0076 15.579L81.9491 24.1933C81.8939 24.336 81.896 24.4947 81.9551 24.6359C82.0105 24.7334 82.1228 24.9192 82.236 24.9192H86.9956V29.7022C86.9961 29.7702 87.0185 29.8361 87.0593 29.8903C87.1002 29.9445 87.1575 29.9842 87.2226 30.0033C87.251 30.0118 87.2806 30.0158 87.3102 30.0154C87.3634 30.0155 87.4158 30.002 87.4624 29.9763C87.509 29.9506 87.5484 29.9135 87.5767 29.8685L92.9261 21.3734C92.9561 21.3258 92.9727 21.271 92.9743 21.2148C92.9759 21.1585 92.9624 21.1029 92.9351 21.0537V21.054ZM93.1278 78.6797C93.1005 78.6306 93.0606 78.5896 93.0122 78.5611C92.9637 78.5327 92.9085 78.5177 92.8523 78.5177H87.6917V73.3649C87.6917 73.2228 87.6601 73.099 87.5225 73.0608C87.4605 73.0431 87.3941 73.0478 87.3352 73.0742C87.2763 73.1005 87.2286 73.1467 87.2003 73.2047L82.1418 81.819C82.0866 81.9618 82.0887 82.1204 82.1478 82.2616C82.2032 82.3592 82.3155 82.5449 82.4287 82.5449H87.1883V87.328C87.1888 87.3959 87.2112 87.4618 87.252 87.516C87.2929 87.5703 87.3502 87.6099 87.4153 87.6291C87.4437 87.6375 87.4733 87.6416 87.5029 87.6411C87.5562 87.6412 87.6085 87.6277 87.6551 87.602C87.7017 87.5763 87.7411 87.5392 87.7694 87.4942L93.1188 78.9992C93.1488 78.9515 93.1654 78.8967 93.167 78.8405C93.1686 78.7843 93.1551 78.7289 93.1278 78.6797ZM93.1278 135.889C93.1005 135.84 93.0606 135.799 93.0122 135.771C92.9637 135.742 92.9085 135.727 92.8523 135.727H87.6917V130.575C87.6917 130.432 87.6601 130.309 87.5225 130.27C87.4605 130.253 87.3941 130.257 87.3352 130.284C87.2763 130.31 87.2286 130.356 87.2003 130.414L82.1418 139.029C82.0866 139.171 82.0887 139.33 82.1478 139.471C82.2032 139.569 82.3155 139.755 82.4287 139.755H87.1883V144.538C87.1888 144.605 87.2112 144.671 87.252 144.726C87.2929 144.78 87.3502 144.819 87.4153 144.839C87.4437 144.847 87.4733 144.851 87.5029 144.851C87.5562 144.851 87.6085 144.837 87.6551 144.812C87.7017 144.786 87.7411 144.749 87.7694 144.704L93.1188 136.209C93.1488 136.161 93.1654 136.106 93.167 136.05C93.1686 135.994 93.1551 135.938 93.1278 135.889V135.889Z" fill="#E8E8E8"/>
<rect x="115.325" y="15.0369" width="43.911" height="7.5276" fill="#646464"/>
<rect x="115.325" y="25.0737" width="65.2392" height="5.0184" fill="#A7A7A7"/>
<rect x="115.325" y="72.7485" width="43.911" height="7.5276" fill="#646464"/>
<rect x="115.325" y="82.7852" width="65.2392" height="5.0184" fill="#A7A7A7"/>
<rect x="115.325" y="130.46" width="43.911" height="7.5276" fill="#646464"/>
<rect x="115.325" y="140.497" width="65.2392" height="5.0184" fill="#A7A7A7"/>
</svg>
