<svg width="250" height="160" viewBox="0 0 250 160" fill="none" xmlns="http://www.w3.org/2000/svg">
<rect x="49.375" y="5.625" width="151.25" height="106.25" rx="4.375" fill="#A7A7A7"/>
<rect x="49.375" y="5.625" width="151.25" height="106.25" rx="4.375" stroke="#A7A7A7" stroke-width="1.25"/>
<path d="M140 58.7505V47.0838C140 46.1998 139.649 45.3519 139.024 44.7268C138.399 44.1017 137.551 43.7505 136.667 43.7505H113.333C112.449 43.7505 111.601 44.1017 110.976 44.7268C110.351 45.3519 110 46.1998 110 47.0838V65.4172M140 58.7505V70.4172C140 71.3012 139.649 72.1491 139.024 72.7742C138.399 73.3993 137.551 73.7505 136.667 73.7505H131.667M140 58.7505C129.263 58.7505 123.158 62.0588 119.908 65.8222M110 65.4172V70.4172C110 71.3012 110.351 72.1491 110.976 72.7742C111.601 73.3993 112.449 73.7505 113.333 73.7505H131.667M110 65.4172C112.338 65.0272 116.062 64.9288 119.908 65.8222M131.667 73.7505C128.827 69.1372 124.288 66.8372 119.908 65.8222M119.167 50.4172C118.333 50.4172 116.667 50.9172 116.667 52.9172C116.667 54.9172 118.333 55.4172 119.167 55.4172C120 55.4172 121.667 54.9172 121.667 52.9172C121.667 50.9172 120 50.4172 119.167 50.4172Z" stroke="#646464" stroke-width="2.4" stroke-linecap="round" stroke-linejoin="round"/>
<rect x="93.75" y="125" width="62.5" height="10" fill="#646464"/>
<rect x="66.25" y="140" width="117.5" height="5" fill="#A7A7A7"/>
<rect x="90" y="150" width="70" height="5" fill="#A7A7A7"/>
<rect x="85" y="40" width="80" height="80" rx="40" fill="#E8E8E8"/>
<path d="M139.001 70.6663H136.667V65.9997C136.667 59.5597 131.441 54.333 125.001 54.333C118.561 54.333 113.334 59.5597 113.334 65.9997V70.6663H111.001C108.434 70.6663 106.334 72.7663 106.334 75.333V98.6663C106.334 101.233 108.434 103.333 111.001 103.333H139.001C141.567 103.333 143.667 101.233 143.667 98.6663V75.333C143.667 72.7663 141.567 70.6663 139.001 70.6663ZM125.001 91.6663C122.434 91.6663 120.334 89.5663 120.334 86.9997C120.334 84.433 122.434 82.333 125.001 82.333C127.567 82.333 129.667 84.433 129.667 86.9997C129.667 89.5663 127.567 91.6663 125.001 91.6663ZM132.234 70.6663H117.767V65.9997C117.767 62.0097 121.011 58.7663 125.001 58.7663C128.991 58.7663 132.234 62.0097 132.234 65.9997V70.6663Z" fill="#6660EF"/>
</svg>
