<svg width="250" height="160" viewBox="0 0 250 160" fill="none" xmlns="http://www.w3.org/2000/svg">
<g clip-path="url(#clip0_3391_90)">
<rect x="5" y="9" width="240" height="142.574" rx="4.75247" fill="#E8E8E8"/>
<path d="M139.257 80.2872V69.1981C139.257 68.3578 138.923 67.5519 138.329 66.9578C137.735 66.3636 136.929 66.0298 136.089 66.0298H113.911C113.07 66.0298 112.264 66.3636 111.67 66.9578C111.076 67.5519 110.742 68.3578 110.742 69.1981V86.6238M139.257 80.2872V91.3763C139.257 92.2166 138.923 93.0225 138.329 93.6167C137.735 94.2108 136.929 94.5446 136.089 94.5446H131.336M139.257 80.2872C129.052 80.2872 123.249 83.4318 120.16 87.0088M110.742 86.6238V91.3763C110.742 92.2166 111.076 93.0225 111.67 93.6167C112.264 94.2108 113.07 94.5446 113.911 94.5446H131.336M110.742 86.6238C112.965 86.2532 116.504 86.1597 120.16 87.0088M131.336 94.5446C128.637 90.1597 124.323 87.9735 120.16 87.0088M119.455 72.3664C118.663 72.3664 117.079 72.8417 117.079 74.7427C117.079 76.6436 118.663 77.1189 119.455 77.1189C120.247 77.1189 121.831 76.6436 121.831 74.7427C121.831 72.8417 120.247 72.3664 119.455 72.3664Z" stroke="#646464" stroke-width="2.28119" stroke-linecap="round" stroke-linejoin="round"/>
<rect x="5" y="108.802" width="240" height="42.7723" fill="#646464"/>
<rect x="16.8809" y="120.683" width="59.4059" height="9.50495" fill="#E8E8E8"/>
<rect x="16.8809" y="134.94" width="90.297" height="4.75248" fill="#E8E8E8"/>
</g>
<rect x="5.59406" y="9.59406" width="238.812" height="141.386" rx="4.15842" stroke="#A7A7A7" stroke-width="1.18812"/>
<defs>
<clipPath id="clip0_3391_90">
<rect x="5" y="9" width="240" height="142.574" rx="4.75247" fill="white"/>
</clipPath>
</defs>
</svg>
