<svg width="250" height="160" viewBox="0 0 250 160" fill="none" xmlns="http://www.w3.org/2000/svg">
<g clip-path="url(#clip0_3391_174)">
<rect x="5" y="9" width="240" height="142.574" rx="4.75248" fill="#E8E8E8"/>
<path d="M139.257 80.2872V69.1981C139.257 68.3578 138.923 67.5519 138.329 66.9578C137.735 66.3636 136.929 66.0298 136.089 66.0298H113.911C113.07 66.0298 112.264 66.3636 111.67 66.9578C111.076 67.5519 110.742 68.3578 110.742 69.1981V86.6238M139.257 80.2872V91.3763C139.257 92.2166 138.923 93.0225 138.329 93.6167C137.735 94.2108 136.929 94.5446 136.089 94.5446H131.336M139.257 80.2872C129.052 80.2872 123.249 83.4318 120.16 87.0088M110.742 86.6238V91.3763C110.742 92.2166 111.076 93.0225 111.67 93.6167C112.264 94.2108 113.07 94.5446 113.911 94.5446H131.336M110.742 86.6238C112.965 86.2531 116.504 86.1597 120.16 87.0088M131.336 94.5446C128.637 90.1597 124.323 87.9735 120.16 87.0088M119.455 72.3664C118.663 72.3664 117.079 72.8417 117.079 74.7427C117.079 76.6436 118.663 77.1189 119.455 77.1189C120.247 77.1189 121.831 76.6436 121.831 74.7427C121.831 72.8417 120.247 72.3664 119.455 72.3664Z" stroke="#646464" stroke-width="2.28119" stroke-linecap="round" stroke-linejoin="round"/>
<rect opacity="0.8" x="5" y="9" width="240" height="142.574" fill="#646464"/>
<rect x="95.2969" y="66.0298" width="59.4059" height="9.50495" fill="#E8E8E8"/>
<rect x="79.8516" y="80.2871" width="90.297" height="4.75248" fill="#E8E8E8"/>
<rect x="97.6738" y="89.792" width="54.6535" height="4.75248" fill="#E8E8E8"/>
</g>
<rect x="5.59406" y="9.59406" width="238.812" height="141.386" rx="4.15842" stroke="#A7A7A7" stroke-width="1.18812"/>
<rect x="85" y="40" width="80" height="80" rx="40" fill="#E8E8E8"/>
<path d="M139.001 70.6663H136.667V65.9997C136.667 59.5597 131.441 54.333 125.001 54.333C118.561 54.333 113.334 59.5597 113.334 65.9997V70.6663H111.001C108.434 70.6663 106.334 72.7663 106.334 75.333V98.6663C106.334 101.233 108.434 103.333 111.001 103.333H139.001C141.567 103.333 143.667 101.233 143.667 98.6663V75.333C143.667 72.7663 141.567 70.6663 139.001 70.6663ZM125.001 91.6663C122.434 91.6663 120.334 89.5663 120.334 86.9997C120.334 84.433 122.434 82.333 125.001 82.333C127.567 82.333 129.667 84.433 129.667 86.9997C129.667 89.5663 127.567 91.6663 125.001 91.6663ZM132.234 70.6663H117.767V65.9997C117.767 62.0097 121.011 58.7663 125.001 58.7663C128.991 58.7663 132.234 62.0097 132.234 65.9997V70.6663Z" fill="#6660EF"/>
<defs>
<clipPath id="clip0_3391_174">
<rect x="5" y="9" width="240" height="142.574" rx="4.75248" fill="white"/>
</clipPath>
</defs>
</svg>
