<svg width="250" height="160" viewBox="0 0 250 160" fill="none" xmlns="http://www.w3.org/2000/svg">
<rect x="65.5" y="20.5" width="119" height="119" rx="3.5" fill="#F5F5F5"/>
<rect x="65.5" y="20.5" width="119" height="119" rx="3.5" stroke="#D5D5D5"/>
<rect x="75" y="88" width="45.8182" height="7.63636" fill="#989898"/>
<rect x="75" y="98.1816" width="100" height="5.09091" fill="#D5D5D5"/>
<rect x="75" y="105.818" width="42" height="5.09091" fill="#D5D5D5"/>
<rect x="75" y="116.909" width="100" height="1.27273" fill="#D5D5D5"/>
<rect x="75" y="124.182" width="42" height="5.09091" fill="#D5D5D5"/>
<rect x="172" y="43" width="26" height="26" rx="13" fill="#989898" stroke="#F5F5F5" stroke-width="2"/>
<path d="M182.589 58.8492L179.74 56.0003L182.589 53.1514C182.657 53.0845 182.711 53.0049 182.747 52.9171C182.784 52.8293 182.803 52.7351 182.803 52.64C182.803 52.5449 182.784 52.4507 182.747 52.3629C182.711 52.2751 182.657 52.1955 182.589 52.1287C182.522 52.061 182.443 52.0073 182.355 51.9706C182.267 51.9339 182.173 51.915 182.078 51.915C181.983 51.915 181.889 51.9339 181.801 51.9706C181.713 52.0073 181.633 52.061 181.567 52.1287L178.214 55.4816C178.146 55.5492 178.092 55.6295 178.056 55.7179C178.019 55.8062 178 55.901 178 55.9966C178 56.0923 178.019 56.187 178.056 56.2754C178.092 56.3638 178.146 56.444 178.214 56.5116L181.567 59.8719C181.851 60.1568 182.304 60.1568 182.589 59.8719C182.657 59.805 182.711 59.7254 182.747 59.6376C182.784 59.5499 182.803 59.4557 182.803 59.3605C182.803 59.2654 182.784 59.1712 182.747 59.0835C182.711 58.9957 182.657 58.9161 182.589 58.8492ZM187.411 58.8492L190.259 56.0003L187.411 53.1514C187.343 53.0845 187.289 53.0049 187.252 52.9171C187.216 52.8293 187.197 52.7351 187.197 52.64C187.197 52.5449 187.216 52.4507 187.252 52.3629C187.289 52.2751 187.343 52.1955 187.411 52.1287C187.477 52.061 187.557 52.0073 187.645 51.9706C187.733 51.9339 187.827 51.915 187.922 51.915C188.017 51.915 188.111 51.9339 188.199 51.9706C188.287 52.0073 188.366 52.061 188.433 52.1287L191.786 55.4816C192.071 55.7665 192.071 56.2267 191.786 56.5116L188.433 59.8719C188.366 59.9396 188.287 59.9933 188.199 60.03C188.111 60.0666 188.017 60.0855 187.922 60.0855C187.827 60.0855 187.733 60.0666 187.645 60.03C187.557 59.9933 187.477 59.9396 187.411 59.8719C187.343 59.805 187.289 59.7254 187.252 59.6376C187.216 59.5499 187.197 59.4557 187.197 59.3605C187.197 59.2654 187.216 59.1712 187.252 59.0835C187.289 58.9957 187.343 58.9161 187.411 58.8492Z" fill="#F5F5F5"/>
</svg>
