<svg width="250" height="160" viewBox="0 0 250 160" fill="none" xmlns="http://www.w3.org/2000/svg">
<rect x="50.625" y="5.625" width="148.75" height="148.75" rx="4.375" fill="#E8E8E8"/>
<rect x="50.625" y="5.625" width="148.75" height="148.75" rx="4.375" stroke="#A7A7A7" stroke-width="1.25"/>
<rect x="50" y="5" width="150" height="75" fill="#646464"/>
<rect x="102.5" y="92.5" width="45" height="7.5" fill="#646464"/>
<rect x="77.5" y="102.5" width="95" height="5" fill="#A7A7A7"/>
<rect x="110" y="110" width="30" height="5" fill="#A7A7A7"/>
<rect x="62.5" y="126.25" width="125" height="1.25" fill="#A7A7A7"/>
<rect x="107.5" y="137.5" width="36.25" height="5" fill="#A7A7A7"/>
<rect x="100" y="55" width="50" height="50" rx="25" fill="#E8E8E8"/>
<path d="M133.751 74.1663H132.292V71.2497C132.292 67.2247 129.026 63.958 125.001 63.958C120.976 63.958 117.709 67.2247 117.709 71.2497V74.1663H116.251C114.646 74.1663 113.334 75.4788 113.334 77.083V91.6663C113.334 93.2705 114.646 94.583 116.251 94.583H133.751C135.355 94.583 136.667 93.2705 136.667 91.6663V77.083C136.667 75.4788 135.355 74.1663 133.751 74.1663ZM125.001 87.2913C123.396 87.2913 122.084 85.9788 122.084 84.3747C122.084 82.7705 123.396 81.458 125.001 81.458C126.605 81.458 127.917 82.7705 127.917 84.3747C127.917 85.9788 126.605 87.2913 125.001 87.2913ZM129.521 74.1663H120.48V71.2497C120.48 68.7559 122.507 66.7288 125.001 66.7288C127.494 66.7288 129.521 68.7559 129.521 71.2497V74.1663Z" fill="#6660EF"/>
</svg>
