<svg width="250" height="160" viewBox="0 0 250 160" fill="none" xmlns="http://www.w3.org/2000/svg">
<rect x="50.625" y="5.625" width="148.75" height="148.75" rx="4.375" fill="#E8E8E8"/>
<rect x="50.625" y="5.625" width="148.75" height="148.75" rx="4.375" stroke="#A7A7A7" stroke-width="1.25"/>
<rect x="62.5" y="90" width="57.2727" height="9.54545" fill="#646464"/>
<rect x="62.5" y="102.727" width="125" height="6.36364" fill="#A7A7A7"/>
<rect x="62.5" y="112.273" width="52.5" height="6.36364" fill="#A7A7A7"/>
<rect x="62.5" y="126.136" width="125" height="1.59091" fill="#A7A7A7"/>
<rect x="62.5" y="135.227" width="52.5" height="6.36364" fill="#A7A7A7"/>
<rect x="186" y="19" width="26" height="26" rx="13" fill="#646464" stroke="#E8E8E8" stroke-width="2"/>
<path d="M204.25 32V27.9167C204.25 27.6072 204.127 27.3105 203.908 27.0917C203.689 26.8729 203.393 26.75 203.083 26.75H194.917C194.607 26.75 194.311 26.8729 194.092 27.0917C193.873 27.3105 193.75 27.6072 193.75 27.9167V34.3333M204.25 32V36.0833C204.25 36.3928 204.127 36.6895 203.908 36.9083C203.689 37.1271 203.393 37.25 203.083 37.25H201.333M204.25 32C200.492 32 198.355 33.1579 197.218 34.4751M193.75 34.3333V36.0833C193.75 36.3928 193.873 36.6895 194.092 36.9083C194.311 37.1271 194.607 37.25 194.917 37.25H201.333M193.75 34.3333C194.568 34.1968 195.872 34.1624 197.218 34.4751M201.333 37.25C200.339 35.6353 198.751 34.8303 197.218 34.4751M196.958 29.0833C196.667 29.0833 196.083 29.2583 196.083 29.9583C196.083 30.6583 196.667 30.8333 196.958 30.8333C197.25 30.8333 197.833 30.6583 197.833 29.9583C197.833 29.2583 197.25 29.0833 196.958 29.0833Z" stroke="#E8E8E8" stroke-width="0.896" stroke-linecap="round" stroke-linejoin="round"/>
<rect x="37" y="90" width="26" height="26" rx="13" fill="#646464" stroke="#E8E8E8" stroke-width="2"/>
<path fill-rule="evenodd" clip-rule="evenodd" d="M43.6562 97.75C43.4822 97.75 43.3153 97.8191 43.1922 97.9422C43.0691 98.0653 43 98.2322 43 98.4062V99.7188C43 99.8928 43.0691 100.06 43.1922 100.183C43.3153 100.306 43.4822 100.375 43.6562 100.375C43.8303 100.375 43.9972 100.306 44.1203 100.183C44.2434 100.06 44.3125 99.8928 44.3125 99.7188V99.0625H46.7188V106.938H46.2812C46.1072 106.938 45.9403 107.007 45.8172 107.13C45.6941 107.253 45.625 107.42 45.625 107.594C45.625 107.768 45.6941 107.935 45.8172 108.058C45.9403 108.181 46.1072 108.25 46.2812 108.25H48.4688C48.6428 108.25 48.8097 108.181 48.9328 108.058C49.0559 107.935 49.125 107.768 49.125 107.594C49.125 107.42 49.0559 107.253 48.9328 107.13C48.8097 107.007 48.6428 106.938 48.4688 106.938H48.0312V99.0625H50.4375V99.7188C50.4375 99.8928 50.5066 100.06 50.6297 100.183C50.7528 100.306 50.9197 100.375 51.0938 100.375C51.2678 100.375 51.4347 100.306 51.5578 100.183C51.6809 100.06 51.75 99.8928 51.75 99.7188V98.4062C51.75 98.2322 51.6809 98.0653 51.5578 97.9422C51.4347 97.8191 51.2678 97.75 51.0938 97.75H43.6562ZM50 102.781C50 102.607 50.0691 102.44 50.1922 102.317C50.3153 102.194 50.4822 102.125 50.6562 102.125H56.3438C56.5178 102.125 56.6847 102.194 56.8078 102.317C56.9309 102.44 57 102.607 57 102.781C57 102.955 56.9309 103.122 56.8078 103.245C56.6847 103.368 56.5178 103.438 56.3438 103.438H50.6562C50.4822 103.438 50.3153 103.368 50.1922 103.245C50.0691 103.122 50 102.955 50 102.781ZM50 105.844C50 105.67 50.0691 105.503 50.1922 105.38C50.3153 105.257 50.4822 105.188 50.6562 105.188H56.3438C56.5178 105.188 56.6847 105.257 56.8078 105.38C56.9309 105.503 57 105.67 57 105.844C57 106.018 56.9309 106.185 56.8078 106.308C56.6847 106.431 56.5178 106.5 56.3438 106.5H50.6562C50.4822 106.5 50.3153 106.431 50.1922 106.308C50.0691 106.185 50 106.018 50 105.844Z" fill="#E8E8E8"/>
<rect x="37" y="19" width="26" height="26" rx="13" fill="#646464" stroke="#E8E8E8" stroke-width="2"/>
<path d="M45.3929 26C45.2887 26 45.1887 26.0428 45.1151 26.119C45.0414 26.1952 45 26.2985 45 26.4062V38.5938C45 38.7015 45.0414 38.8048 45.1151 38.881C45.1887 38.9572 45.2887 39 45.3929 39C45.497 39 45.597 38.9572 45.6706 38.881C45.7443 38.8048 45.7857 38.7015 45.7857 38.5938V26.4062C45.7857 26.2985 45.7443 26.1952 45.6706 26.119C45.597 26.0428 45.497 26 45.3929 26ZM48.1429 33.3125C47.7261 33.3125 47.3264 33.4837 47.0317 33.7885C46.737 34.0932 46.5714 34.5065 46.5714 34.9375V35.75C46.5714 36.181 46.737 36.5943 47.0317 36.899C47.3264 37.2038 47.7261 37.375 48.1429 37.375H52.0714C52.4882 37.375 52.8879 37.2038 53.1826 36.899C53.4773 36.5943 53.6429 36.181 53.6429 35.75V34.9375C53.6429 34.5065 53.4773 34.0932 53.1826 33.7885C52.8879 33.4837 52.4882 33.3125 52.0714 33.3125H48.1429ZM46.5714 29.25C46.5714 28.819 46.737 28.4057 47.0317 28.101C47.3264 27.7962 47.7261 27.625 48.1429 27.625H54.4286C54.8453 27.625 55.245 27.7962 55.5397 28.101C55.8344 28.4057 56 28.819 56 29.25V30.0625C56 30.4935 55.8344 30.9068 55.5397 31.2115C55.245 31.5163 54.8453 31.6875 54.4286 31.6875H48.1429C47.7261 31.6875 47.3264 31.5163 47.0317 31.2115C46.737 30.9068 46.5714 30.4935 46.5714 30.0625V29.25Z" fill="#E8E8E8"/>
<rect x="186" y="90" width="26" height="26" rx="13" fill="#646464" stroke="#E8E8E8" stroke-width="2"/>
<path d="M198.237 97.4731C194.553 97.4731 192 100.42 192 101.894C192 103.368 192.737 104.473 194.21 104.473C195.683 104.473 196.421 104.842 196.421 105.946C196.421 107.42 197.526 108.526 199 108.526C203.789 108.526 206 105.946 206 103.368C206 98.9464 202.658 97.4731 198.237 97.4731ZM197.253 98.9465C197.374 98.9465 197.494 98.9703 197.606 99.0166C197.718 99.0629 197.819 99.1308 197.905 99.2163C197.99 99.3019 198.058 99.4034 198.105 99.5152C198.151 99.627 198.175 99.7468 198.175 99.8678C198.175 99.9887 198.151 100.109 198.105 100.22C198.058 100.332 197.99 100.434 197.905 100.519C197.819 100.605 197.718 100.673 197.606 100.719C197.494 100.765 197.374 100.789 197.253 100.789C197.009 100.789 196.775 100.692 196.602 100.519C196.429 100.347 196.332 100.112 196.332 99.8678C196.332 99.6234 196.429 99.3891 196.602 99.2163C196.775 99.0435 197.009 98.9465 197.253 98.9465ZM200.201 98.9465C200.322 98.9465 200.441 98.9703 200.553 99.0166C200.665 99.0629 200.767 99.1308 200.852 99.2163C200.938 99.3019 201.006 99.4034 201.052 99.5152C201.098 99.627 201.122 99.7468 201.122 99.8678C201.122 99.9887 201.098 100.109 201.052 100.22C201.006 100.332 200.938 100.434 200.852 100.519C200.767 100.605 200.665 100.673 200.553 100.719C200.441 100.765 200.322 100.789 200.201 100.789C199.956 100.789 199.722 100.692 199.549 100.519C199.376 100.347 199.279 100.112 199.279 99.8678C199.279 99.6234 199.376 99.3891 199.549 99.2163C199.722 99.0435 199.956 98.9465 200.201 98.9465ZM202.868 100.42C202.991 100.417 203.113 100.439 203.228 100.483C203.343 100.528 203.447 100.595 203.535 100.681C203.624 100.767 203.694 100.87 203.742 100.983C203.789 101.097 203.814 101.218 203.814 101.341C203.814 101.465 203.789 101.586 203.742 101.7C203.694 101.813 203.624 101.916 203.535 102.002C203.447 102.087 203.343 102.155 203.228 102.2C203.113 102.244 202.991 102.266 202.868 102.262C202.628 102.256 202.4 102.156 202.233 101.984C202.065 101.812 201.971 101.582 201.971 101.341C201.971 101.101 202.065 100.871 202.233 100.699C202.4 100.527 202.628 100.427 202.868 100.42ZM194.675 100.597C194.919 100.597 195.153 100.694 195.326 100.867C195.499 101.04 195.596 101.274 195.596 101.518C195.596 101.763 195.499 101.997 195.326 102.17C195.153 102.343 194.919 102.44 194.675 102.44C194.43 102.44 194.196 102.343 194.023 102.17C193.85 101.997 193.753 101.763 193.753 101.518C193.753 101.274 193.85 101.04 194.023 100.867C194.196 100.694 194.43 100.597 194.675 100.597ZM199.56 104.842C200.17 104.842 200.665 105.336 200.665 105.946C200.665 106.557 199.89 107.052 199.28 107.052C198.987 107.052 198.706 106.935 198.498 106.728C198.291 106.521 198.175 106.24 198.175 105.946C198.175 105.336 198.949 104.842 199.56 104.842Z" fill="#E8E8E8"/>
</svg>
