<?xml version="1.0" encoding="UTF-8"?>
<svg version="1.1" xmlns="http://www.w3.org/2000/svg" width="250" height="160">
<path d="M0 0 C0 1.32 0 2.64 0 4 C1.2375 4.02126953 1.2375 4.02126953 2.5 4.04296875 C21.86320508 4.84256539 37.46107886 11.90563594 51 26 C58.97531661 35.59214493 66.42972535 49.19870811 66 62 C68.475 61.505 68.475 61.505 71 61 C75.77497591 70.54995182 72.45841197 88.77762861 69.328125 98.609375 C65.53552278 108.29166537 60.99836332 117.20669075 54 125 C53.27167969 125.82113281 52.54335937 126.64226562 51.79296875 127.48828125 C39.31600961 140.77150592 21.75526184 149.60328571 3.3984375 150.3359375 C-17.89272878 150.65714801 -36.7085042 146.62970388 -53 132 C-53.82113281 131.27167969 -54.64226562 130.54335937 -55.48828125 129.79296875 C-68.77150592 117.31600961 -77.60328571 99.75526184 -78.3359375 81.3984375 C-78.65714801 60.10727122 -74.62970388 41.2914958 -60 25 C-59.27167969 24.17886719 -58.54335937 23.35773437 -57.79296875 22.51171875 C-48.31752926 12.423973 -37.09153692 6.24358218 -24 2 C-23.24460938 1.75378906 -22.48921875 1.50757813 -21.7109375 1.25390625 C-14.64733919 -0.66411202 -7.25377688 -0.17202633 0 0 Z M0 9 C0 10.98 0 12.96 0 15 C-0.85980469 15.02578125 -1.71960938 15.0515625 -2.60546875 15.078125 C-18.65348317 15.84814968 -33.09911453 20.7737617 -45.05859375 31.859375 C-57.12040079 45.15891274 -63.78446112 61.11899609 -62.9375 79.1875 C-61.33393288 94.05847509 -55.24764597 108.799124 -44 119 C-29.46604605 130.3146455 -14.05229754 136.58083799 4.62890625 134.56640625 C20.48892931 131.90162833 34.9762114 124.46100044 44.5534668 111.33129883 C54.84635627 96.65327301 57.74760039 81.72089806 57 64 C58.32 63.67 59.64 63.34 61 63 C58.73036908 45.79145512 50.98975836 32.58549692 37.91796875 21.2265625 C26.708483 12.67313964 13.83391805 9.78973154 0 9 Z " fill="#646464" transform="translate(128,5)"/>
<path d="M0 0 C19.30229905 0.33175826 34.5181897 6.32438607 48.71484375 19.62109375 C57.90443115 29.18768986 65.49143916 43.16782384 66.1875 56.625 C66.125625 57.40875 66.06375 58.1925 66 59 C64.35 59 62.7 59 61 59 C60.70867187 57.98421875 60.41734375 56.9684375 60.1171875 55.921875 C54.77579883 37.77266419 47.26448318 23.64798981 30.62890625 13.5625 C21.60359562 8.710493 12.09829407 6.97725426 2 6 C1.34 5.67 0.68 5.34 0 5 C0 3.35 0 1.7 0 0 Z " fill="#E7E7E7" transform="translate(128,9)"/>
<path d="M0 0 C0 1.65 0 3.3 0 5 C-0.56589844 5.26554687 -1.13179687 5.53109375 -1.71484375 5.8046875 C-2.44832031 6.15789063 -3.18179688 6.51109375 -3.9375 6.875 C-4.66839844 7.22304688 -5.39929688 7.57109375 -6.15234375 7.9296875 C-8.16332459 8.8684977 -8.16332459 8.8684977 -9 11 C-7.948125 10.773125 -6.89625 10.54625 -5.8125 10.3125 C-1.55607398 9.96361262 -0.23631945 10.31847817 3 13 C5.32766479 15.99271187 5.41185662 19.23180904 5.328125 22.96484375 C4.79173147 26.29176075 3.11151942 28.45375599 1 31 C-2.71453232 32.85726616 -6.95579425 32.58501089 -11 32 C-13.82424288 29.80977082 -15.41508603 28.16982793 -17 25 C-17.14977039 22.75344413 -17.22150174 20.50136232 -17.25 18.25 C-17.27578125 17.03828125 -17.3015625 15.8265625 -17.328125 14.578125 C-16.8527821 9.39462381 -15.29180302 6.16577346 -11.4375 2.6875 C-7.38675034 -0.11686515 -4.92723625 -0.09124512 0 0 Z M-10 17 C-10.46522293 21.79308342 -10.46522293 21.79308342 -8.5 25.9375 C-8.005 26.288125 -7.51 26.63875 -7 27 C-4.3094472 25.77992056 -4.3094472 25.77992056 -2 24 C-2.28730055 21.66055264 -2.61936779 19.3260857 -3 17 C-6.58327753 15.99782936 -6.58327753 15.99782936 -10 17 Z " fill="#646464" transform="translate(144,51)"/>
<path d="M0 0 C6.27 0 12.54 0 19 0 C19 1.98 19 3.96 19 6 C14.71 6 10.42 6 6 6 C6 7.65 6 9.3 6 11 C7.216875 10.896875 8.43375 10.79375 9.6875 10.6875 C13.17260292 10.69985852 13.92325957 10.94611842 16.9375 13.0625 C19.43467133 16.61907735 20 18.6588867 20 23 C18.90680182 27.09949318 17.62086321 29.5860912 14 32 C11.66015625 32.265625 11.66015625 32.265625 9.0625 32.25 C8.20785156 32.25515625 7.35320312 32.2603125 6.47265625 32.265625 C3.81339378 31.97995383 2.23735482 31.44968995 0 30 C-2.1519437 26.77208445 -2.20086443 25.71599191 -2 22 C0.8125 21.75 0.8125 21.75 4 22 C5.875 24 5.875 24 7 26 C8.32 25.67 9.64 25.34 11 25 C11 22.69 11 20.38 11 18 C7.47783243 17.09853861 7.47783243 17.09853861 3.9375 17.5625 C2 18 2 18 -2 16 C-1.34 10.72 -0.68 5.44 0 0 Z " fill="#646464" transform="translate(104,51)"/>
<path d="M0 0 C0.66 0 1.32 0 2 0 C2.185625 1.7015625 2.185625 1.7015625 2.375 3.4375 C2.684375 5.2009375 2.684375 5.2009375 3 7 C3.66 7.33 4.32 7.66 5 8 C5 5.36 5 2.72 5 0 C10.94 0 16.88 0 23 0 C23 0.66 23 1.32 23 2 C21.68 2 20.36 2 19 2 C19 2.66 19 3.32 19 4 C20.32 4.33 21.64 4.66 23 5 C21.68 5.33 20.36 5.66 19 6 C19 6.66 19 7.32 19 8 C20.32 8 21.64 8 23 8 C23 8.66 23 9.32 23 10 C20.69 10 18.38 10 16 10 C16 7.36 16 4.72 16 2 C15.01 2 14.02 2 13 2 C13 4.64 13 7.28 13 10 C12.34 10 11.68 10 11 10 C11 7.36 11 4.72 11 2 C10.01 2 9.02 2 8 2 C7.67 4.31 7.34 6.62 7 9 C2.25 10.125 2.25 10.125 0 9 C0 6.03 0 3.06 0 0 Z " fill="#646464" transform="translate(122,106)"/>
<path d="M0 0 C0.99 0 1.98 0 3 0 C3.66 1.32 4.32 2.64 5 4 C5.66 2.68 6.32 1.36 7 0 C7.99 0 8.98 0 10 0 C10 3.3 10 6.6 10 10 C9.34 10 8.68 10 8 10 C7.67 9.34 7.34 8.68 7 8 C6.67 8.66 6.34 9.32 6 10 C5.34 10 4.68 10 4 10 C3.67 9.34 3.34 8.68 3 8 C2.67 8.66 2.34 9.32 2 10 C1.34 10 0.68 10 0 10 C0 6.7 0 3.4 0 0 Z " fill="#646464" transform="translate(98,106)"/>
<path d="M0 0 C0.99 0 1.98 0 3 0 C3.66 0.99 4.32 1.98 5 3 C5.33 2.01 5.66 1.02 6 0 C6.66 0 7.32 0 8 0 C8 3.3 8 6.6 8 10 C7.01 10 6.02 10 5 10 C4.34 8.68 3.68 7.36 3 6 C2.67 7.32 2.34 8.64 2 10 C1.34 10 0.68 10 0 10 C0 6.7 0 3.4 0 0 Z " fill="#646464" transform="translate(113,106)"/>
<path d="M0 0 C1.98 0 3.96 0 6 0 C6.33 0.99 6.66 1.98 7 3 C5.68 3 4.36 3 3 3 C4.32 3.66 5.64 4.32 7 5 C6.67 6.65 6.34 8.3 6 10 C4.35 10 2.7 10 1 10 C-0.76462683 6.91190305 -1 5.76687864 -1 2 C-0.67 1.34 -0.34 0.68 0 0 Z M2 6 C2 6.66 2 7.32 2 8 C2.66 8 3.32 8 4 8 C4 7.34 4 6.68 4 6 C3.34 6 2.68 6 2 6 Z " fill="#646464" transform="translate(146,106)"/>
<path d="M0 0 C0.99 0 1.98 0 3 0 C3 3.3 3 6.6 3 10 C2.01 10 1.02 10 0 10 C0 6.7 0 3.4 0 0 Z " fill="#646464" transform="translate(109,106)"/>
</svg>
