<?xml version="1.0" encoding="UTF-8"?>
<svg version="1.1" xmlns="http://www.w3.org/2000/svg" width="250" height="160">
<path d="M0 0 C3.98561154 2.62688033 6.23980531 5.28191592 7.75 9.8125 C8.03353132 13.53673281 8.02764787 17.26617487 8.0625 21 C8.09150391 22.01642578 8.12050781 23.03285156 8.15039062 24.08007812 C8.20400609 30.46856681 7.70644981 35.60848436 3.75 40.8125 C-0.66635175 44.46741179 -4.83091826 44.38198153 -10.3671875 44.21875 C-14.93563551 43.57495787 -16.33115364 42.40492629 -19.25 38.8125 C-21.97620572 32.79784949 -22.71979589 27.87448184 -22.625 21.3125 C-22.63660156 20.50941406 -22.64820313 19.70632812 -22.66015625 18.87890625 C-22.63262682 13.21701954 -21.61602745 8.96908136 -19.25 3.8125 C-13.65671433 -1.64095353 -7.24180865 -2.64604547 0 0 Z M-10.25 6.8125 C-13.29040289 11.37310433 -12.57890373 15.88598014 -12.5625 21.25 C-12.57861328 22.29994141 -12.59472656 23.34988281 -12.61132812 24.43164062 C-12.61197266 25.44291016 -12.61261719 26.45417969 -12.61328125 27.49609375 C-12.61626221 28.41962646 -12.61924316 29.34315918 -12.62231445 30.29467773 C-12.18774183 33.23352853 -11.19762493 34.61381782 -9.25 36.8125 C-6.30272465 36.71080839 -6.30272465 36.71080839 -3.25 35.8125 C-0.64642121 31.424349 -0.95186836 26.75401519 -1 21.8125 C-0.99226563 21.0184375 -0.98453125 20.224375 -0.9765625 19.40625 C-0.93197907 12.5732523 -0.93197907 12.5732523 -4.25 6.8125 C-7.20804573 6.47909529 -7.20804573 6.47909529 -10.25 6.8125 Z " fill="#646464" transform="translate(217.25,32.1875)"/>
<path d="M0 0 C0 2.64 0 5.28 0 8 C-1.216875 8.2475 -2.43375 8.495 -3.6875 8.75 C-7.57996414 9.71793069 -10.12020288 11.12020288 -13 14 C-13 14.66 -13 15.32 -13 16 C-12.34 15.67 -11.68 15.34 -11 15 C-6.33274174 14.61106181 -3.92032129 14.54852163 0.3125 16.625 C3.9701786 19.85736713 5.66115673 22.4691336 6.31640625 27.36328125 C6.60273599 33.45009736 5.67781861 37.12937536 2 42 C-2.63357741 45.35616994 -6.37424443 45.68813609 -11.98046875 45.54296875 C-17.03721884 44.63366957 -19.96385815 42.03759178 -23 38 C-26.48191689 30.31076688 -25.76150223 21.26216937 -23.09765625 13.39453125 C-20.8083308 8.40038 -17.68782529 4.38832019 -12.75390625 1.83984375 C-8.470515 0.28684355 -4.58114091 -0.35239545 0 0 Z M-15 25 C-15.71796173 29.32446714 -15.70355716 32.90557775 -13.3125 36.625 C-11.08106496 38.20740334 -11.08106496 38.20740334 -8.4375 38.0625 C-5.14527251 36.62742648 -4.32636124 35.3159031 -3 32 C-3.23423128 28.09614534 -3.81333314 26.28000029 -6 23 C-11.03018857 22.37154252 -11.03018857 22.37154252 -15 25 Z " fill="#646464" transform="translate(85,31)"/>
<path d="M0 0 C8.25 0 16.5 0 25 0 C25 2.31 25 4.62 25 7 C19.39 7 13.78 7 8 7 C8 9.64 8 12.28 8 15 C9.08667969 14.91298828 9.08667969 14.91298828 10.1953125 14.82421875 C19.08345811 14.40943862 19.08345811 14.40943862 22.5625 17.125 C26.46653312 21.72975701 27.21622621 25.14703329 26.8125 31.0625 C26.29554294 35.01989542 25.64144294 37.88687082 23 41 C19.24132771 43.70072432 16.60910439 44.41027376 12 44.375 C10.989375 44.38273437 9.97875 44.39046875 8.9375 44.3984375 C4.41128267 43.78450909 1.82670012 41.84904337 -1.3125 38.625 C-3.16377251 35.74524277 -3.38269307 34.34856435 -3 31 C-0.03 31 2.94 31 6 31 C6.66 32.32 7.32 33.64 8 35 C10.40110217 36.08024658 10.40110217 36.08024658 13 36 C14.99511774 35.17500647 14.99511774 35.17500647 16 33 C16.36595216 30.19817876 16.22721418 27.86289865 16 25 C14.07964439 22.63563387 14.07964439 22.63563387 10.6875 22.8125 C7.14529343 22.89717078 7.14529343 22.89717078 4.3125 23.5625 C1.80404387 24.03707278 0.41801759 23.68722605 -2 23 C-2.27102873 15.14016697 -1.20718529 7.77125529 0 0 Z " fill="#646464" transform="translate(29,32)"/>
<path d="M0 0 C3.05921075 1.72805717 3.74919761 2.64073245 5.6875 5.8125 C6.68815709 9.6817074 6.8575265 11.65775206 5.625 15.4375 C3.5625 18.3125 3.5625 18.3125 1.625 20.4375 C2.8625 21.6440625 2.8625 21.6440625 4.125 22.875 C6.90877977 26.23939669 7.36415386 28.94652245 7.1171875 33.25390625 C6.14916759 37.54853428 3.54798546 40.20492562 -0.1484375 42.57421875 C-4.95531488 44.43793788 -10.32259308 43.94651115 -15.375 43.4375 C-19.89732768 41.33227849 -22.32498748 38.99308338 -24.375 34.4375 C-24.375 33.1175 -24.375 31.7975 -24.375 30.4375 C-21.075 30.4375 -17.775 30.4375 -14.375 30.4375 C-13.715 31.7575 -13.055 33.0775 -12.375 34.4375 C-9.46495097 35.51973366 -9.46495097 35.51973366 -6.375 35.4375 C-4.29166667 34.52083333 -4.29166667 34.52083333 -3.375 32.4375 C-3.60783149 29.28828091 -3.60783149 29.28828091 -4.375 26.4375 C-7.675 25.7775 -10.975 25.1175 -14.375 24.4375 C-14.375 22.1275 -14.375 19.8175 -14.375 17.4375 C-13.41787109 17.23833984 -13.41787109 17.23833984 -12.44140625 17.03515625 C-11.61511719 16.85855469 -10.78882813 16.68195312 -9.9375 16.5 C-9.11378906 16.32597656 -8.29007813 16.15195312 -7.44140625 15.97265625 C-5.39838796 15.62997006 -5.39838796 15.62997006 -4.375 14.4375 C-4.20833333 11.4375 -4.20833333 11.4375 -4.375 8.4375 C-5.35767859 7.23188816 -5.35767859 7.23188816 -7.22265625 7.33984375 C-9.2734375 7.37239583 -11.32421875 7.40494792 -13.375 7.4375 C-13.705 8.7575 -14.035 10.0775 -14.375 11.4375 C-17.345 11.4375 -20.315 11.4375 -23.375 11.4375 C-23.13599616 5.34290206 -23.13599616 5.34290206 -21.078125 2.89453125 C-14.81913981 -2.38842408 -7.4950748 -3.2418623 0 0 Z " fill="#646464" transform="translate(183.375,32.5625)"/>
<path d="M0 0 C34.65 0 69.3 0 105 0 C105 1.65 105 3.3 105 5 C70.35 5 35.7 5 0 5 C0 3.35 0 1.7 0 0 Z " fill="#E7E7E7" transform="translate(140,103)"/>
<path d="M0 0 C34.65 0 69.3 0 105 0 C105 1.65 105 3.3 105 5 C70.35 5 35.7 5 0 5 C0 3.35 0 1.7 0 0 Z " fill="#E7E7E7" transform="translate(5,103)"/>
<path d="M0 0 C1.65 0 3.3 0 5 0 C8 6.625 8 6.625 8 10 C8.66 10 9.32 10 10 10 C10.12375 9.0925 10.2475 8.185 10.375 7.25 C10.92109677 4.41029677 11.57263803 2.47409409 13 0 C14.32 0 15.64 0 17 0 C17 5.61 17 11.22 17 17 C16.01 17 15.02 17 14 17 C13.67 15.02 13.34 13.04 13 11 C12.01 12.98 11.02 14.96 10 17 C9.01 16.67 8.02 16.34 7 16 C5.8125 13.4375 5.8125 13.4375 5 11 C4.67 12.98 4.34 14.96 4 17 C2.68 17 1.36 17 0 17 C0 11.39 0 5.78 0 0 Z " fill="#646464" transform="translate(11,120)"/>
<path d="M0 0 C1.32 0 2.64 0 4 0 C5.484375 1.75 5.484375 1.75 6.75 4 C7.17796875 4.7425 7.6059375 5.485 8.046875 6.25 C8.36140625 6.8275 8.6759375 7.405 9 8 C9.33 5.36 9.66 2.72 10 0 C10.99 0 11.98 0 13 0 C13 5.61 13 11.22 13 17 C9 16 9 16 6.75 12.9375 C6.1725 11.968125 5.595 10.99875 5 10 C4.34 12.31 3.68 14.62 3 17 C2.01 17 1.02 17 0 17 C0 11.39 0 5.78 0 0 Z " fill="#646464" transform="translate(37,120)"/>
<path d="M0 0 C1.32 0 2.64 0 4 0 C5.484375 1.75 5.484375 1.75 6.75 4 C7.17796875 4.7425 7.6059375 5.485 8.046875 6.25 C8.36140625 6.8275 8.6759375 7.405 9 8 C9.33 5.36 9.66 2.72 10 0 C10.99 0 11.98 0 13 0 C13 5.61 13 11.22 13 17 C9 16 9 16 7.515625 14.15234375 C7.09796875 13.42144531 6.6803125 12.69054687 6.25 11.9375 C5.82203125 11.20402344 5.3940625 10.47054687 4.953125 9.71484375 C4.63859375 9.14894531 4.3240625 8.58304688 4 8 C3.67 10.97 3.34 13.94 3 17 C2.01 17 1.02 17 0 17 C0 11.39 0 5.78 0 0 Z " fill="#636363" transform="translate(200,120)"/>
<path d="M0 0 C2.375 1.5 2.375 1.5 4 4 C4.59434688 8.68048168 4.57487433 10.87324632 2.4375 15.0625 C0 17 0 17 -3.5625 17.0625 C-7 16 -7 16 -8.9375 14.375 C-10.7161243 10.39925157 -10.62301395 6.69103786 -9.125 2.625 C-6.79890631 -0.73491311 -3.78983406 -0.37898341 0 0 Z M-5 3 C-6.4783226 5.95664519 -6.06032783 8.74229737 -6 12 C-4.11683841 13.10836423 -4.11683841 13.10836423 -2 14 C-1.34 13.67 -0.68 13.34 0 13 C0 10.03 0 7.06 0 4 C-1.65 3.67 -3.3 3.34 -5 3 Z " fill="#646464" transform="translate(194,120)"/>
<path d="M0 0 C3.5625 0.3125 3.5625 0.3125 5.5 1.625 C6.5625 3.3125 6.5625 3.3125 6.5625 6.3125 C5.2425 5.9825 3.9225 5.6525 2.5625 5.3125 C2.5625 4.6525 2.5625 3.9925 2.5625 3.3125 C0.5825 4.3025 0.5825 4.3025 -1.4375 5.3125 C-0.48875 5.76625 0.46 6.22 1.4375 6.6875 C4.5625 8.3125 4.5625 8.3125 6.5625 10.3125 C6.3125 13.375 6.3125 13.375 5.5625 16.3125 C2.72166359 17.73291821 0.70772722 17.62702272 -2.4375 17.3125 C-4.8125 15.4375 -4.8125 15.4375 -6.4375 13.3125 C-6.4375 12.6525 -6.4375 11.9925 -6.4375 11.3125 C-5.1175 11.3125 -3.7975 11.3125 -2.4375 11.3125 C-2.1075 11.9725 -1.7775 12.6325 -1.4375 13.3125 C-0.4475 13.3125 0.5425 13.3125 1.5625 13.3125 C1.5625 12.6525 1.5625 11.9925 1.5625 11.3125 C0.593125 10.838125 -0.37625 10.36375 -1.375 9.875 C-4.4375 8.3125 -4.4375 8.3125 -5.4375 7.3125 C-5.625 4.875 -5.625 4.875 -5.4375 2.3125 C-3.4375 0.3125 -3.4375 0.3125 0 0 Z " fill="#646464" transform="translate(98.4375,119.6875)"/>
<path d="M0 0 C0.99 0.66 1.98 1.32 3 2 C3 3.32 3 4.64 3 6 C1.68 5.67 0.36 5.34 -1 5 C-1 4.34 -1 3.68 -1 3 C-2.32 3 -3.64 3 -5 3 C-5 3.99 -5 4.98 -5 6 C-3.2984375 6.4640625 -3.2984375 6.4640625 -1.5625 6.9375 C2 8 2 8 3 9 C3.25 11.9375 3.25 11.9375 3 15 C-0.46998729 17.31332486 -1.92509248 17.33957563 -6 17 C-6.99 16.34 -7.98 15.68 -9 15 C-9 13.68 -9 12.36 -9 11 C-8.01 11 -7.02 11 -6 11 C-5.67 11.66 -5.34 12.32 -5 13 C-3.68 12.67 -2.36 12.34 -1 12 C-3.64 10.35 -6.28 8.7 -9 7 C-8.625 4.0625 -8.625 4.0625 -8 1 C-5.22899606 -0.38550197 -3.0665294 -0.1877467 0 0 Z " fill="#646464" transform="translate(153,120)"/>
<path d="M0 0 C3.5625 0.3125 3.5625 0.3125 5.5 1.625 C6.5625 3.3125 6.5625 3.3125 6.5625 6.3125 C5.2425 5.9825 3.9225 5.6525 2.5625 5.3125 C2.5625 4.6525 2.5625 3.9925 2.5625 3.3125 C0.5825 4.3025 0.5825 4.3025 -1.4375 5.3125 C1.2025 6.9625 3.8425 8.6125 6.5625 10.3125 C5.8125 15.0625 5.8125 15.0625 3.5625 17.3125 C0.6875 17.6875 0.6875 17.6875 -2.4375 17.3125 C-4.8125 15.4375 -4.8125 15.4375 -6.4375 13.3125 C-6.4375 12.6525 -6.4375 11.9925 -6.4375 11.3125 C-5.1175 11.3125 -3.7975 11.3125 -2.4375 11.3125 C-2.1075 11.9725 -1.7775 12.6325 -1.4375 13.3125 C-0.4475 13.3125 0.5425 13.3125 1.5625 13.3125 C1.5625 12.6525 1.5625 11.9925 1.5625 11.3125 C0.593125 10.838125 -0.37625 10.36375 -1.375 9.875 C-4.4375 8.3125 -4.4375 8.3125 -5.4375 7.3125 C-5.625 4.875 -5.625 4.875 -5.4375 2.3125 C-3.4375 0.3125 -3.4375 0.3125 0 0 Z " fill="#646464" transform="translate(235.4375,119.6875)"/>
<path d="M0 0 C7 0 7 0 9.9375 1.5 C12.29738696 4.36046904 12.73661074 6.32366903 12.48046875 10.02734375 C11.62130844 13.55479057 9.93602134 15.00100675 7 17 C4.69 17 2.38 17 0 17 C0 11.39 0 5.78 0 0 Z M3 3 C3 6.63 3 10.26 3 14 C7.20180184 13.4260261 7.20180184 13.4260261 9 10 C8.68493373 6.85778033 8.68493373 6.85778033 8 4 C6.35 3.67 4.7 3.34 3 3 Z " fill="#646464" transform="translate(216,120)"/>
<path d="M0 0 C1.32 0 2.64 0 4 0 C4.33 4.29 4.66 8.58 5 13 C5.99 13 6.98 13 8 13 C9.28446919 10.43106162 9.32977144 8.23423663 9.5625 5.375 C9.64628906 4.37210937 9.73007812 3.36921875 9.81640625 2.3359375 C9.87699219 1.56507812 9.93757813 0.79421875 10 0 C10.99 0 11.98 0 13 0 C13.08097324 2.27024968 13.13917704 4.54132075 13.1875 6.8125 C13.22230469 8.07707031 13.25710937 9.34164062 13.29296875 10.64453125 C13 14 13 14 11.67578125 15.9296875 C9.08175459 17.58647842 6.99913799 17.31241021 4 17 C1 15 1 15 0 12 C-0.068991 9.93854893 -0.08467727 7.87498599 -0.0625 5.8125 C-0.05347656 4.72582031 -0.04445312 3.63914062 -0.03515625 2.51953125 C-0.02355469 1.68808594 -0.01195312 0.85664062 0 0 Z " fill="#646464" transform="translate(52,120)"/>
<path d="M0 0 C3.63 0 7.26 0 11 0 C11 0.99 11 1.98 11 3 C8.36 3 5.72 3 3 3 C3 4.32 3 5.64 3 7 C5.31 7 7.62 7 10 7 C10 7.99 10 8.98 10 10 C7.69 10 5.38 10 3 10 C3 11.32 3 12.64 3 14 C5.64 14 8.28 14 11 14 C11 14.99 11 15.98 11 17 C7.37 17 3.74 17 0 17 C0 11.39 0 5.78 0 0 Z " fill="#646464" transform="translate(158,120)"/>
<path d="M0 0 C3.63 0 7.26 0 11 0 C11 0.99 11 1.98 11 3 C8.36 3 5.72 3 3 3 C3 4.32 3 5.64 3 7 C5.31 7 7.62 7 10 7 C10 7.99 10 8.98 10 10 C7.69 10 5.38 10 3 10 C3 11.32 3 12.64 3 14 C5.64 14 8.28 14 11 14 C11 14.99 11 15.98 11 17 C7.37 17 3.74 17 0 17 C0 11.39 0 5.78 0 0 Z " fill="#646464" transform="translate(81,120)"/>
<path d="M0 0 C1.9375 1.3125 1.9375 1.3125 3 3 C3 3.99 3 4.98 3 6 C1.68 6 0.36 6 -1 6 C-1.33 5.34 -1.66 4.68 -2 4 C-2.99 4 -3.98 4 -5 4 C-6.04214691 8.61507774 -6.04214691 8.61507774 -5 13 C-4.01 13 -3.02 13 -2 13 C-1.67 12.34 -1.34 11.68 -1 11 C0.32 11 1.64 11 3 11 C2.6875 12.875 2.6875 12.875 2 15 C-1 17 -1 17 -4.5625 16.8125 C-8 16 -8 16 -10 13 C-10.57308803 8.95861299 -10.50603314 5.22043287 -8.9375 1.4375 C-5.93408933 -0.79083695 -3.62113687 -0.45264211 0 0 Z " fill="#646464" transform="translate(180,120)"/>
<path d="M0 0 C4.29 0 8.58 0 13 0 C13 0.99 13 1.98 13 3 C11.68 3 10.36 3 9 3 C9 7.29 9 11.58 9 16 C7.68 16.33 6.36 16.66 5 17 C5 12.38 5 7.76 5 3 C3.35 3 1.7 3 0 3 C0 2.01 0 1.02 0 0 Z " fill="#646464" transform="translate(66,120)"/>
<path d="M0 0 C1.32 0 2.64 0 4 0 C4 5.28 4 10.56 4 16 C2.68 16.33 1.36 16.66 0 17 C0 11.39 0 5.78 0 0 Z " fill="#646464" transform="translate(31,120)"/>
</svg>
