<?xml version="1.0" encoding="UTF-8"?>
<svg version="1.1" xmlns="http://www.w3.org/2000/svg" width="250" height="160">
<path d="M0 0 C15.84 0 31.68 0 48 0 C48.04010881 19.42603332 48.04010881 19.42603332 48.04882812 27.67773438 C48.05481645 33.31828751 48.06191648 38.95882448 48.07543945 44.59936523 C48.08626873 49.14455404 48.09227692 53.68972552 48.09487724 58.23492622 C48.09673142 59.97294958 48.10035189 61.71097194 48.10573006 63.44898796 C48.11294103 65.87478595 48.11399092 68.30051146 48.11352539 70.72631836 C48.11712067 71.45208069 48.12071594 72.17784302 48.12442017 72.92559814 C48.11405216 77.88594784 48.11405216 77.88594784 47 79 C45.56259647 79.09813987 44.12043673 79.1279828 42.6796875 79.12939453 C41.76203613 79.13254669 40.84438477 79.13569885 39.89892578 79.13894653 C38.90103027 79.1369223 37.90313477 79.13489807 36.875 79.1328125 C35.85776855 79.13376923 34.84053711 79.13472595 33.79248047 79.13571167 C31.63704364 79.13639361 29.48160478 79.13453835 27.32617188 79.13037109 C24.01427629 79.12502305 20.70251633 79.13031563 17.390625 79.13671875 C15.30208303 79.13605797 13.21354115 79.13477681 11.125 79.1328125 C9.62815674 79.13584885 9.62815674 79.13584885 8.10107422 79.13894653 C7.18342285 79.13579437 6.26577148 79.13264221 5.3203125 79.12939453 C4.50836426 79.12859894 3.69641602 79.12780334 2.85986328 79.12698364 C1 79 1 79 0 78 C-0.09498646 75.56603981 -0.12558417 73.16057048 -0.11352539 70.72631836 C-0.11367142 69.96539383 -0.11381744 69.2044693 -0.1139679 68.42048645 C-0.11326862 65.89357702 -0.10547555 63.36674038 -0.09765625 60.83984375 C-0.09579212 59.0924941 -0.0943682 57.34514393 -0.09336853 55.59779358 C-0.08954293 50.98968066 -0.07971229 46.38159905 -0.06866455 41.77349854 C-0.05665694 36.24940386 -0.05204839 30.72529874 -0.04621124 25.20119476 C-0.03650055 16.8007747 -0.0173443 8.40042341 0 0 Z " fill="#A7A7A7" transform="translate(140,58)"/>
<path d="M0 0 C15.84 0 31.68 0 48 0 C48.04010881 19.42603332 48.04010881 19.42603332 48.04882812 27.67773438 C48.05481645 33.31828751 48.06191648 38.95882448 48.07543945 44.59936523 C48.08626873 49.14455404 48.09227692 53.68972552 48.09487724 58.23492622 C48.09673142 59.97294958 48.10035189 61.71097194 48.10573006 63.44898796 C48.11294103 65.87478595 48.11399092 68.30051146 48.11352539 70.72631836 C48.11712067 71.45208069 48.12071594 72.17784302 48.12442017 72.92559814 C48.11405216 77.88594784 48.11405216 77.88594784 47 79 C45.5985474 79.09804125 44.19223055 79.12798179 42.78735352 79.12939453 C41.89295059 79.13254669 40.99854767 79.13569885 40.07704163 79.13894653 C39.10415695 79.1369223 38.13127228 79.13489807 37.12890625 79.1328125 C36.13624252 79.13376923 35.1435788 79.13472595 34.12083435 79.13571167 C32.01667213 79.13639366 29.91250782 79.13453806 27.80834961 79.13037109 C24.5798674 79.12502874 21.35152469 79.13031255 18.12304688 79.13671875 C16.08333302 79.13605786 14.04361926 79.13477648 12.00390625 79.1328125 C11.03304581 79.13483673 10.06218536 79.13686096 9.06190491 79.13894653 C7.71557228 79.13421829 7.71557228 79.13421829 6.34204102 79.12939453 C5.55007828 79.12859894 4.75811554 79.12780334 3.94215393 79.12698364 C2 79 2 79 0 78 C0 52.26 0 26.52 0 0 Z " fill="#A7A7A7" transform="translate(62,58)"/>
<path d="M0 0 C6.6752034 -0.02526945 13.35039457 -0.04283268 20.02563477 -0.05493164 C22.29842591 -0.05997325 24.5712138 -0.06680637 26.84399414 -0.07543945 C30.10303551 -0.08751261 33.36203417 -0.09322987 36.62109375 -0.09765625 C37.64400009 -0.10281754 38.66690643 -0.10797882 39.72080994 -0.11329651 C40.66170975 -0.11337204 41.60260956 -0.11344757 42.57202148 -0.11352539 C43.40475082 -0.115746 44.23748016 -0.11796661 45.09544373 -0.12025452 C47 0 47 0 48 1 C48.10556617 3.36222218 48.14678498 5.69535384 48.14526367 8.05834961 C48.14862228 8.79655441 48.1519809 9.53475922 48.15544128 10.29533386 C48.16497882 12.74768738 48.16689579 15.19997282 48.16796875 17.65234375 C48.17117939 19.35006235 48.17454331 21.04778066 48.17805481 22.74549866 C48.1840531 26.30909873 48.18589399 29.87267453 48.18530273 33.4362793 C48.18520107 38.01093044 48.1988542 42.5854265 48.21607494 47.16004086 C48.22717344 50.6678184 48.22922261 54.17555821 48.22869301 57.68335152 C48.22987634 59.37031145 48.23431778 61.05727227 48.24202538 62.74421501 C48.25178209 65.10034025 48.24896453 67.45612558 48.24291992 69.81225586 C48.24853943 70.51415039 48.25415894 71.21604492 48.25994873 71.93920898 C48.22831577 76.77168423 48.22831577 76.77168423 46 79 C44.05784607 79.24723816 44.05784607 79.24723816 41.65795898 79.24291992 C40.31162636 79.24753487 40.31162636 79.24753487 38.93809509 79.25224304 C37.96723465 79.24505753 36.99637421 79.23787201 35.99609375 79.23046875 C35.0024733 79.23001053 34.00885284 79.22955231 32.98512268 79.2290802 C30.88272916 79.22605609 28.78033791 79.2181651 26.67797852 79.20581055 C23.44734831 79.18755565 20.21700451 79.1853008 16.98632812 79.18554688 C14.94791417 79.1806318 12.90950217 79.17480353 10.87109375 79.16796875 C9.89820908 79.16685593 8.9253244 79.1657431 7.92295837 79.16459656 C7.02855545 79.15821671 6.13415253 79.15183685 5.21264648 79.14526367 C4.42147934 79.14145187 3.63031219 79.13764008 2.81517029 79.13371277 C1 79 1 79 0 78 C-0.09498646 75.56603981 -0.12558417 73.16057048 -0.11352539 70.72631836 C-0.11367142 69.96539383 -0.11381744 69.2044693 -0.1139679 68.42048645 C-0.11326862 65.89357702 -0.10547555 63.36674038 -0.09765625 60.83984375 C-0.09579212 59.0924941 -0.0943682 57.34514393 -0.09336853 55.59779358 C-0.08954293 50.98968066 -0.07971229 46.38159905 -0.06866455 41.77349854 C-0.05845134 37.07491479 -0.0538711 32.37632601 -0.04882812 27.67773438 C-0.03809005 18.45180913 -0.02101313 9.22590716 0 0 Z " fill="#A7A7A7" transform="translate(5,58)"/>
<path d="M0 0 C0.83272934 0.00222061 1.66545868 0.00444122 2.52342224 0.00672913 C3.46432205 0.00680466 4.40522186 0.00688019 5.37463379 0.00695801 C6.39754013 0.01211929 7.42044647 0.01728058 8.47434998 0.02259827 C9.51614914 0.02401321 10.5579483 0.02542816 11.63131714 0.02688599 C14.97355467 0.03250372 18.31572629 0.04505922 21.65794373 0.05775452 C23.91770839 0.06276723 26.17747409 0.06733053 28.4372406 0.07142639 C33.98999763 0.08247891 39.54271597 0.09923428 45.09544373 0.12025452 C45.11856765 10.27291602 45.13635906 20.42557131 45.1472559 30.57825375 C45.15248462 35.29205185 45.15958206 40.00583199 45.17088318 44.71961975 C45.18171245 49.26480855 45.18772064 53.80998004 45.19032097 58.35518074 C45.19217515 60.0932041 45.19579562 61.83122645 45.20117378 63.56924248 C45.20838476 65.99504046 45.20943465 68.42076598 45.20896912 70.84657288 C45.21256439 71.57233521 45.21615967 72.29809753 45.21986389 73.04585266 C45.20949589 78.00620236 45.20949589 78.00620236 44.09544373 79.12025452 C42.69419036 79.22347649 41.28783103 79.25874882 39.88279724 79.26551819 C38.54119286 79.27508797 38.54119286 79.27508797 37.17248535 79.28485107 C36.19960068 79.2859639 35.226716 79.28707672 34.22434998 79.28822327 C32.73535439 79.29321587 32.73535439 79.29321587 31.21627808 79.29830933 C29.11212123 79.30338292 27.0079563 79.30571752 24.90379333 79.30555725 C21.6752249 79.30774282 18.44699846 79.32589151 15.2184906 79.34486389 C13.17877823 79.34779784 11.13906424 79.34978262 9.09934998 79.35072327 C8.12848953 79.35790878 7.15762909 79.3650943 6.15734863 79.37249756 C5.25979355 79.36942093 4.36223846 79.3663443 3.43748474 79.36317444 C2.645522 79.36459946 1.85355927 79.36602448 1.03759766 79.36749268 C-0.90455627 79.12025452 -0.90455627 79.12025452 -2.90455627 77.12025452 C-3.09748051 74.68641821 -3.16696649 72.36691096 -3.1474762 69.93251038 C-3.14937454 69.19255325 -3.15127289 68.45259613 -3.15322876 67.69021606 C-3.15694089 65.23840319 -3.14622717 62.78688492 -3.13502502 60.33509827 C-3.13383346 58.63641393 -3.13338001 56.93772893 -3.13363647 55.23904419 C-3.13207091 51.67718895 -3.12377503 48.11543411 -3.11036682 44.55360413 C-3.09336396 39.97779864 -3.0895528 35.40210347 -3.090312 30.8262701 C-3.09004068 27.31853168 -3.08456582 23.81081759 -3.07731056 20.30308723 C-3.07411872 18.61530809 -3.07215529 16.92752618 -3.07141685 15.23974419 C-3.06925946 12.88598258 -3.06052875 10.53234029 -3.04981995 8.17860413 C-3.05027313 7.47468536 -3.05072632 6.7707666 -3.05119324 6.04551697 C-3.01204829 0.19018205 -3.01204829 0.19018205 0 0 Z " fill="#E3E3E3" transform="translate(199.90455627441406,57.87974548339844)"/>
<path d="M0 0 C2.97 0 5.94 0 9 0 C9.268125 1.381875 9.53625 2.76375 9.8125 4.1875 C10.91266267 9.05419179 12.23730376 12.40255653 16 15.8125 C20.65522811 17.65519446 25.06445223 17.63778003 30 17 C34.25859264 15.09884257 35.60956388 13.72701898 37.8125 9.625 C38.8735974 6.38586058 39.5881204 3.37741271 40 0 C42.64 0 45.28 0 48 0 C48.02464849 5.39346988 48.04283531 10.78690725 48.05493164 16.18041992 C48.05997231 18.01668875 48.06680477 19.85295354 48.07543945 21.68920898 C48.08751672 24.32276401 48.09323081 26.95626616 48.09765625 29.58984375 C48.10281754 30.41588608 48.10797882 31.24192841 48.11329651 32.09300232 C48.11349205 34.06236368 48.06204152 36.03161614 48 38 C46.44430824 39.55569176 44.95075083 39.13484055 42.78735352 39.14526367 C41.89295059 39.15164352 40.99854767 39.15802338 40.07704163 39.16459656 C39.10415695 39.16570938 38.13127228 39.1668222 37.12890625 39.16796875 C35.63991066 39.17296135 35.63991066 39.17296135 34.12083435 39.17805481 C32.0166775 39.1831284 29.91251257 39.185463 27.80834961 39.18530273 C24.57978117 39.1874883 21.35155473 39.20563699 18.12304688 39.22460938 C16.08333451 39.22754332 14.04362051 39.22952811 12.00390625 39.23046875 C11.03304581 39.23765427 10.06218536 39.24483978 9.06190491 39.25224304 C8.16434982 39.24916641 7.26679474 39.24608978 6.34204102 39.24291992 C5.55007828 39.24434494 4.75811554 39.24576996 3.94215393 39.24723816 C2 39 2 39 0 37 C-0.17525055 34.20315203 -0.23143189 31.5067192 -0.1953125 28.7109375 C-0.1924826 27.89251373 -0.18965271 27.07408997 -0.18673706 26.23086548 C-0.17552532 23.61209607 -0.15041929 20.99366636 -0.125 18.375 C-0.11497147 16.60156743 -0.1058454 14.82812951 -0.09765625 13.0546875 C-0.07558278 8.70299374 -0.04104644 4.3515545 0 0 Z " fill="#A7A7A7" transform="translate(197,98)"/>
<path d="M0 0 C4.77992429 2.0357276 6.82106348 4.46854088 8.9909668 9.09570312 C10.32475313 13.02052313 10.19316668 16.78625132 10.01953125 20.88671875 C10.00148437 21.70914063 9.9834375 22.5315625 9.96484375 23.37890625 C9.91825955 25.38202679 9.84653824 27.38453696 9.76953125 29.38671875 C12.40953125 29.38671875 15.04953125 29.38671875 17.76953125 29.38671875 C17.76953125 29.71671875 17.76953125 30.04671875 17.76953125 30.38671875 C15.12953125 30.38671875 12.48953125 30.38671875 9.76953125 30.38671875 C9.73085937 31.25683594 9.73085937 31.25683594 9.69140625 32.14453125 C9.29618992 37.587738 8.49662575 41.15596283 4.76953125 45.38671875 C-0.17387427 48.91772269 -5.34999674 49.25683737 -11.23046875 48.38671875 C-16.47081157 45.71890786 -19.27333179 42.80474897 -21.41796875 37.38671875 C-22.23046875 34.38671875 -22.23046875 34.38671875 -22.23046875 30.38671875 C-24.54046875 30.38671875 -26.85046875 30.38671875 -29.23046875 30.38671875 C-29.23046875 30.05671875 -29.23046875 29.72671875 -29.23046875 29.38671875 C-26.92046875 29.38671875 -24.61046875 29.38671875 -22.23046875 29.38671875 C-22.276875 28.25234375 -22.32328125 27.11796875 -22.37109375 25.94921875 C-22.8122303 10.70211981 -22.8122303 10.70211981 -18.23046875 4.38671875 C-12.61895755 -0.82397022 -7.44433997 -2.04686756 0 0 Z " fill="#E3E3E3" transform="translate(92.23046875,67.61328125)"/>
<path d="M0 0 C4.6255892 2.6676226 6.82353647 4.9722442 8.73828125 10.09375 C9.07873637 13.39787402 9.02319056 16.65183802 8.92578125 19.96875 C8.90547852 21.28746094 8.90547852 21.28746094 8.88476562 22.6328125 C8.84964748 24.78672552 8.79584819 26.94032004 8.73828125 29.09375 C11.70828125 29.09375 14.67828125 29.09375 17.73828125 29.09375 C17.73828125 29.42375 17.73828125 29.75375 17.73828125 30.09375 C15.09828125 30.09375 12.45828125 30.09375 9.73828125 30.09375 C9.6403125 30.67382812 9.54234375 31.25390625 9.44140625 31.8515625 C8.21591748 38.25368488 6.64190577 43.01973248 1.11328125 46.96875 C-4.75816868 48.92589998 -9.97171824 49.15393542 -15.63671875 46.53125 C-21.99300494 40.62898426 -23.01537388 34.78377724 -23.46484375 26.2265625 C-23.79859556 9.08481591 -23.79859556 9.08481591 -18.83203125 3.48046875 C-13.47767788 -1.24787813 -6.70124575 -2.68512783 0 0 Z " fill="#E3E3E3" transform="translate(35.26171875,67.90625)"/>
<path d="M0 0 C4.41198804 3.89896618 6.85858575 7.55634704 7.6875 13.375 C7.75524144 15.98981958 7.78250258 18.57479256 7.75 21.1875 C7.74548828 21.88037109 7.74097656 22.57324219 7.73632812 23.28710938 C7.72463156 24.98311068 7.70669924 26.67906703 7.6875 28.375 C10.3275 28.375 12.9675 28.375 15.6875 28.375 C15.6875 28.705 15.6875 29.035 15.6875 29.375 C13.0475 29.375 10.4075 29.375 7.6875 29.375 C7.60113281 30.02726562 7.51476562 30.67953125 7.42578125 31.3515625 C6.43739444 37.49950983 5.3425278 41.14315655 0.6875 45.375 C-3.75934837 47.54901476 -8.41945608 48.14012849 -13.3125 47.375 C-17.07436097 45.98865681 -19.75538202 44.11782397 -22.1875 40.875 C-24.9170022 34.80943956 -24.60474102 28.67800679 -24.6875 22.125 C-24.72488281 21.01769531 -24.76226562 19.91039062 -24.80078125 18.76953125 C-24.87551745 11.78584878 -24.21353293 6.62353894 -19.3125 1.375 C-13.12355112 -2.43358393 -6.53501541 -3.20585662 0 0 Z " fill="#E3E3E3" transform="translate(172.3125,68.625)"/>
<path d="M0 0 C0.83272934 0.00222061 1.66545868 0.00444122 2.52342224 0.00672913 C3.46432205 0.00680466 4.40522186 0.00688019 5.37463379 0.00695801 C6.39754013 0.01211929 7.42044647 0.01728058 8.47434998 0.02259827 C9.51614914 0.02401321 10.5579483 0.02542816 11.63131714 0.02688599 C14.97355467 0.03250372 18.31572629 0.04505922 21.65794373 0.05775452 C23.91770839 0.06276723 26.17747409 0.06733053 28.4372406 0.07142639 C33.99002107 0.08162996 39.54265824 0.10120188 45.09544373 0.12025452 C45.09544373 12.99025452 45.09544373 25.86025452 45.09544373 39.12025452 C42.78544373 39.12025452 40.47544373 39.12025452 38.09544373 39.12025452 C38.06966248 38.06966858 38.04388123 37.01908264 38.01731873 35.93666077 C37.67350973 22.94389879 37.67350973 22.94389879 31.09544373 12.12025452 C25.61694428 9.38100479 20.26481868 9.49518038 14.40794373 11.18275452 C10.46489581 13.48906556 8.71841873 15.94943504 7.09544373 20.12025452 C6.51615971 23.43521851 6.40166159 26.6974594 6.34544373 30.05775452 C6.31579529 30.93238342 6.28614685 31.80701233 6.25559998 32.70814514 C6.18553807 34.84503329 6.13815321 36.98264475 6.09544373 39.12025452 C3.12544373 39.12025452 0.15544373 39.12025452 -2.90455627 39.12025452 C-2.92920477 33.72678464 -2.94739158 28.33334726 -2.95948792 22.93983459 C-2.96452859 21.10356577 -2.97136104 19.26730098 -2.97999573 17.43104553 C-2.992073 14.7974905 -2.99778708 12.16398835 -3.00221252 9.53041077 C-3.00737381 8.70436844 -3.0125351 7.87832611 -3.01785278 7.0272522 C-3.01804832 5.05789084 -2.96659779 3.08863838 -2.90455627 1.12025452 C-1.90455627 0.12025452 -1.90455627 0.12025452 0 0 Z " fill="#656565" transform="translate(199.90455627441406,57.87974548339844)"/>
<path d="M0 0 C15.84 0 31.68 0 48 0 C48 12.87 48 25.74 48 39 C45.36 39 42.72 39 40 39 C39.97421875 37.7934375 39.9484375 36.586875 39.921875 35.34375 C39.86555114 33.72913262 39.8082048 32.11455067 39.75 30.5 C39.73582031 29.70851563 39.72164062 28.91703125 39.70703125 28.1015625 C39.47432657 22.42356834 38.36852027 17.67948512 35 13 C29.95059721 9.83174727 24.83168914 9.07416614 19 10 C14.49867216 12.03833714 11.83249631 14.70271548 9.74609375 19.23046875 C8.02449726 25.62110704 8.14961478 32.4169496 8 39 C5.36 39 2.72 39 0 39 C0 26.13 0 13.26 0 0 Z " fill="#656565" transform="translate(62,58)"/>
<path d="M0 0 C6.67525404 -0.02290404 13.3503728 -0.04283264 20.02563477 -0.05493164 C22.29842591 -0.05997325 24.5712138 -0.06680637 26.84399414 -0.07543945 C30.10303551 -0.08751261 33.36203417 -0.09322987 36.62109375 -0.09765625 C37.64400009 -0.10281754 38.66690643 -0.10797882 39.72080994 -0.11329651 C40.66170975 -0.11337204 41.60260956 -0.11344757 42.57202148 -0.11352539 C43.40475082 -0.115746 44.23748016 -0.11796661 45.09544373 -0.12025452 C47 0 47 0 48 1 C48.08861992 3.8116338 48.11522355 6.59858255 48.09765625 9.41015625 C48.0962413 10.25219101 48.09482635 11.09422577 48.09336853 11.96177673 C48.08775263 14.66205335 48.07519748 17.36224828 48.0625 20.0625 C48.05748705 21.88867068 48.05292379 23.71484266 48.04882812 25.54101562 C48.03777804 30.02737542 48.02050279 34.51367384 48 39 C45.03 39 42.06 39 39 39 C38.97421875 37.70964844 38.9484375 36.41929688 38.921875 35.08984375 C38.86556417 33.37236339 38.80821752 31.65491678 38.75 29.9375 C38.73582031 29.08994141 38.72164062 28.24238281 38.70703125 27.36914062 C38.4788679 21.45970988 37.4302865 17.85167593 34 13 C29.28156867 9.5983402 24.62496949 9.27289443 19 10 C13.80085158 11.76574852 11.59099892 14.20185385 9 19 C7.91117564 23.2136011 7.6901612 27.48412367 7.4375 31.8125 C7.39431641 32.50537109 7.35113281 33.19824219 7.30664062 33.91210938 C7.20138547 35.60788686 7.10027137 37.30392052 7 39 C4.69 39 2.38 39 0 39 C0 26.13 0 13.26 0 0 Z " fill="#656565" transform="translate(5,58)"/>
<path d="M0 0 C15.84 0 31.68 0 48 0 C48 12.87 48 25.74 48 39 C45.36 39 42.72 39 40 39 C39.94392578 37.53240234 39.94392578 37.53240234 39.88671875 36.03515625 C39.63386154 23.17604858 39.63386154 23.17604858 33.4375 12.5 C28.81828752 9.65740771 25.36349122 9.53399175 20 10 C15.5091118 11.25155901 13.00080887 12.46930311 10.625 16.4375 C8.27334834 21.59304402 7.76206293 26.12069539 7.4375 31.75 C7.39431641 32.44738281 7.35113281 33.14476562 7.30664062 33.86328125 C7.20110404 35.57531922 7.1001009 37.28763561 7 39 C4.69 39 2.38 39 0 39 C0 26.13 0 13.26 0 0 Z " fill="#646464" transform="translate(140,58)"/>
<path d="M0 0 C3.00373951 1.3437782 3.79613353 2.15358557 5.375 5.0625 C5.74093022 8.15453537 5.6571957 11.20453856 5.5625 14.3125 C5.54896484 15.15296875 5.53542969 15.9934375 5.52148438 16.859375 C5.48623464 18.92735938 5.4324302 20.99501271 5.375 23.0625 C1.085 23.0625 -3.205 23.0625 -7.625 23.0625 C-7.76039281 20.16509378 -7.85926829 17.27404379 -7.9375 14.375 C-7.97939453 13.55837891 -8.02128906 12.74175781 -8.06445312 11.90039062 C-8.15468767 7.44280389 -8.06856394 5.64214906 -5.26953125 1.984375 C-2.625 0.0625 -2.625 0.0625 0 0 Z " fill="#666666" transform="translate(29.625,73.9375)"/>
<path d="M0 0 C3.5 0.5 3.5 0.5 5.20703125 1.953125 C7.17155438 5.8228201 6.8176037 9.47992986 6.6875 13.75 C6.67396484 14.59046875 6.66042969 15.4309375 6.64648438 16.296875 C6.61123464 18.36485938 6.5574302 20.43251271 6.5 22.5 C2.21 22.5 -2.08 22.5 -6.5 22.5 C-6.58103404 19.58277452 -6.64051081 16.66780484 -6.6875 13.75 C-6.71263672 12.925 -6.73777344 12.1 -6.76367188 11.25 C-6.83728817 5.16438636 -6.83728817 5.16438636 -5.20703125 1.953125 C-3.5 0.5 -3.5 0.5 0 0 Z " fill="#656565" transform="translate(221.5,74.5)"/>
<path d="M0 0 C3.5 0.5625 3.5 0.5625 5.20703125 2.01953125 C7.17317526 5.88647914 6.81754585 9.54432857 6.6875 13.8125 C6.67396484 14.65296875 6.66042969 15.4934375 6.64648438 16.359375 C6.61123464 18.42735938 6.5574302 20.49501271 6.5 22.5625 C2.21 22.5625 -2.08 22.5625 -6.5 22.5625 C-6.58126109 19.83272936 -6.64061663 17.1053983 -6.6875 14.375 C-6.71263672 13.60607422 -6.73777344 12.83714844 -6.76367188 12.04492188 C-6.83880961 6.20922473 -6.68109077 1.07374673 0 0 Z " fill="#656565" transform="translate(163.5,74.4375)"/>
<path d="M0 0 C3.09732871 3.09732871 2.9887814 5.55305094 3.09765625 9.890625 C3.09105099 11.34378224 3.07918727 12.79692356 3.0625 14.25 C3.05798828 14.99507812 3.05347656 15.74015625 3.04882812 16.5078125 C3.03709246 18.3385764 3.0191585 20.16929873 3 22 C-1.29 22 -5.58 22 -10 22 C-10.08083562 18.89531355 -10.14041718 15.79272431 -10.1875 12.6875 C-10.21263672 11.80642578 -10.23777344 10.92535156 -10.26367188 10.01757812 C-10.27333984 9.17001953 -10.28300781 8.32246094 -10.29296875 7.44921875 C-10.3086792 6.66893311 -10.32438965 5.88864746 -10.34057617 5.0847168 C-9.39532374 -0.70131228 -4.99098782 -0.45372617 0 0 Z " fill="#666666" transform="translate(90,75)"/>
<path d="M0 0 C1.32 0 2.64 0 4 0 C4.99 2.64 5.98 5.28 7 8 C8.32 5.36 9.64 2.72 11 0 C12.32 0 13.64 0 15 0 C15 4.62 15 9.24 15 14 C13.68 14 12.36 14 11 14 C10.67 13.01 10.34 12.02 10 11 C9.67 11.99 9.34 12.98 9 14 C7.0625 13.625 7.0625 13.625 5 13 C4.67 12.34 4.34 11.68 4 11 C3.67 11.99 3.34 12.98 3 14 C2.01 14 1.02 14 0 14 C0 9.38 0 4.76 0 0 Z M11 6 C12 8 12 8 12 8 Z " fill="#A7A7A7" transform="translate(17,27)"/>
<path d="M0 0 C4.29 0 8.58 0 13 0 C12.38470067 8.49113082 12.38470067 8.49113082 10.64453125 10.79296875 C9 12 9 12 6 12 C3 11 3 11 1.125 8.8125 C0 6 0 6 0 0 Z " fill="#ACACAC" transform="translate(157,97)"/>
<path d="M0 0 C1.32 0 2.64 0 4 0 C5.75 2.5 5.75 2.5 7 5 C7.33 3.35 7.66 1.7 8 0 C9.32 0 10.64 0 12 0 C12 4.62 12 9.24 12 14 C7 13 7 13 5.1875 10.4375 C4.795625 9.633125 4.40375 8.82875 4 8 C3.67 9.98 3.34 11.96 3 14 C2.01 14 1.02 14 0 14 C0 9.38 0 4.76 0 0 Z " fill="#A7A7A7" transform="translate(199,27)"/>
<path d="M0 0 C5 1 5 1 6.8125 3.5625 C7.204375 4.366875 7.59625 5.17125 8 6 C8.33 4.02 8.66 2.04 9 0 C9.99 0 10.98 0 12 0 C12 4.62 12 9.24 12 14 C10.68 14 9.36 14 8 14 C6.02 10.535 6.02 10.535 4 7 C3.67 9.31 3.34 11.62 3 14 C2.01 14 1.02 14 0 14 C0 9.38 0 4.76 0 0 Z " fill="#A7A7A7" transform="translate(39,27)"/>
<path d="M0 0 C4.29 0 8.58 0 13 0 C12.51522843 7.3927665 12.51522843 7.3927665 10.25 10.0625 C7.28638373 11.29734011 5.96954258 11.21827388 3 10 C0.04036917 6.32597552 0 4.92264555 0 0 Z " fill="#A9A9A9" transform="translate(22,98)"/>
<path d="M0 0 C4.29 0 8.58 0 13 0 C13 6.17456556 12.90306688 6.85299144 9 11 C6.1875 10.875 6.1875 10.875 3 10 C0.56650252 6.34975379 0 4.42295798 0 0 Z " fill="#A9A9A9" transform="translate(215,98)"/>
<path d="M0 0 C4.29 0 8.58 0 13 0 C12.70842276 3.79050406 12.45454034 6.35065665 10.25 9.5 C8 11 8 11 5.4375 11 C2.44361296 9.77173865 1.47708175 8.87642235 0 6 C0 4.02 0 2.04 0 0 Z " fill="#A9A9A9" transform="translate(80,98)"/>
<path d="M0 0 C2.45722633 3.68583949 2.68755754 6.71995428 2 11 C0.375 13.5625 0.375 13.5625 -2 15 C-5.125 14.9375 -5.125 14.9375 -8 14 C-10.54393252 10.18410122 -10.57737956 7.4700353 -10 3 C-7.8345233 -1.07619143 -4.1908017 -0.45717837 0 0 Z M-5 2 C-7.36692966 4.84826598 -7.36692966 4.84826598 -6.625 8.1875 C-6.41875 9.115625 -6.2125 10.04375 -6 11 C-4.68 11 -3.36 11 -2 11 C-0.64381501 9.87465895 -0.64381501 9.87465895 -0.9375 6.9375 C-0.958125 5.968125 -0.97875 4.99875 -1 4 C-2.32 3.34 -3.64 2.68 -5 2 Z " fill="#A7A7A7" transform="translate(195,27)"/>
<path d="M0 0 C3.5625 0.1875 3.5625 0.1875 5.5625 2.1875 C5.5625 3.1775 5.5625 4.1675 5.5625 5.1875 C4.5725 5.1875 3.5825 5.1875 2.5625 5.1875 C2.2325 4.5275 1.9025 3.8675 1.5625 3.1875 C0.5725 3.5175 -0.4175 3.8475 -1.4375 4.1875 C2.0275 6.1675 2.0275 6.1675 5.5625 8.1875 C5.2325 10.1675 4.9025 12.1475 4.5625 14.1875 C-0.85288462 15.41826923 -0.85288462 15.41826923 -3.8125 14.25 C-4.34875 13.899375 -4.885 13.54875 -5.4375 13.1875 C-5.4375 11.8675 -5.4375 10.5475 -5.4375 9.1875 C-4.4475 9.1875 -3.4575 9.1875 -2.4375 9.1875 C-2.1075 9.8475 -1.7775 10.5075 -1.4375 11.1875 C-0.4475 10.8575 0.5425 10.5275 1.5625 10.1875 C-1.9025 8.2075 -1.9025 8.2075 -5.4375 6.1875 C-4.36970339 0.23834746 -4.36970339 0.23834746 0 0 Z " fill="#A7A7A7" transform="translate(230.4375,26.8125)"/>
<path d="M0 0 C2.05078125 0.03255208 4.1015625 0.06510417 6.15234375 0.09765625 C6.48234375 1.74765625 6.81234375 3.39765625 7.15234375 5.09765625 C6.16234375 5.09765625 5.17234375 5.09765625 4.15234375 5.09765625 C3.82234375 4.43765625 3.49234375 3.77765625 3.15234375 3.09765625 C2.49234375 3.09765625 1.83234375 3.09765625 1.15234375 3.09765625 C0.82234375 3.75765625 0.49234375 4.41765625 0.15234375 5.09765625 C1.12171875 5.40703125 2.09109375 5.71640625 3.08984375 6.03515625 C6.15234375 7.09765625 6.15234375 7.09765625 7.15234375 8.09765625 C7.40234375 10.53515625 7.40234375 10.53515625 7.15234375 13.09765625 C4.15234375 15.09765625 4.15234375 15.09765625 1.08984375 14.84765625 C-1.84765625 14.09765625 -1.84765625 14.09765625 -3.84765625 12.09765625 C-3.84765625 11.10765625 -3.84765625 10.11765625 -3.84765625 9.09765625 C-2.52765625 9.42765625 -1.20765625 9.75765625 0.15234375 10.09765625 C0.15234375 10.75765625 0.15234375 11.41765625 0.15234375 12.09765625 C1.14234375 11.76765625 2.13234375 11.43765625 3.15234375 11.09765625 C3.48234375 10.43765625 3.81234375 9.77765625 4.15234375 9.09765625 C3.18296875 8.78828125 2.21359375 8.47890625 1.21484375 8.16015625 C-1.84765625 7.09765625 -1.84765625 7.09765625 -2.84765625 6.09765625 C-2.97265625 3.59765625 -2.97265625 3.59765625 -2.84765625 1.09765625 C-1.84765625 0.09765625 -1.84765625 0.09765625 0 0 Z " fill="#A7A7A7" transform="translate(152.84765625,26.90234375)"/>
<path d="M0 0 C3.5 -0.3125 3.5 -0.3125 7 0 C9 2 9 2 9 5 C8.01 5 7.02 5 6 5 C5.67 4.34 5.34 3.68 5 3 C4.34 3 3.68 3 3 3 C2.67 3.66 2.34 4.32 2 5 C2.969375 5.309375 3.93875 5.61875 4.9375 5.9375 C8 7 8 7 9 8 C9.25 10.4375 9.25 10.4375 9 13 C6 15 6 15 2.9375 14.75 C0 14 0 14 -2 12 C-2 11.01 -2 10.02 -2 9 C-1.01 9 -0.02 9 1 9 C1.33 9.66 1.66 10.32 2 11 C2.99 11 3.98 11 5 11 C5.33 10.34 5.66 9.68 6 9 C3.69 8.34 1.38 7.68 -1 7 C-1.625 5.1875 -1.625 5.1875 -2 3 C-1.34 2.01 -0.68 1.02 0 0 Z " fill="#A7A7A7" transform="translate(90,27)"/>
<path d="M0 0 C7.40256709 -0.48541424 7.40256709 -0.48541424 10 1.625 C11.28292178 4.67193922 11.40995912 6.72032701 11 10 C10 12.375 10 12.375 8 14 C5.24528656 14.33686831 2.7936844 14.18319242 0 14 C0 9.38 0 4.76 0 0 Z M3 2 C3 5.3 3 8.6 3 12 C4.32 11.67 5.64 11.34 7 11 C7.79953138 7.71303767 8.09658936 6.28976808 7 3 C5.68 2.67 4.36 2.34 3 2 Z " fill="#A7A7A7" transform="translate(213,27)"/>
<path d="M0 0 C3.4375 0.375 3.4375 0.375 5.4375 2.375 C5.4375 3.365 5.4375 4.355 5.4375 5.375 C3.05185923 4.79915568 0.77067216 4.15272405 -1.5625 3.375 C-2.36203138 6.66196233 -2.65908936 8.08523192 -1.5625 11.375 C-0.5725 11.375 0.4175 11.375 1.4375 11.375 C1.7675 10.715 2.0975 10.055 2.4375 9.375 C3.4275 9.375 4.4175 9.375 5.4375 9.375 C5.125 11.25 5.125 11.25 4.4375 13.375 C1.4375 15.375 1.4375 15.375 -1.0625 15.25 C-4.17216171 14.1616184 -5.06203812 13.29695208 -6.5625 10.375 C-6.97657022 7.06243824 -6.86475246 5.05062315 -5.5 2 C-3.5625 0.375 -3.5625 0.375 0 0 Z " fill="#A7A7A7" transform="translate(178.5625,26.625)"/>
<path d="M0 0 C0.99 0 1.98 0 3 0 C3.33 3.63 3.66 7.26 4 11 C4.99 11 5.98 11 7 11 C7.33 7.37 7.66 3.74 8 0 C8.99 0 9.98 0 11 0 C11.10807131 1.93627769 11.1856225 3.87427756 11.25 5.8125 C11.29640625 6.89144531 11.3428125 7.97039063 11.390625 9.08203125 C11 12 11 12 9.1484375 13.8984375 C7 15 7 15 4.375 14.8125 C2 14 2 14 0 12 C-0.1953125 9.1796875 -0.1953125 9.1796875 -0.125 5.875 C-0.10695312 4.77929688 -0.08890625 3.68359375 -0.0703125 2.5546875 C-0.04710937 1.71164063 -0.02390625 0.86859375 0 0 Z " fill="#A7A7A7" transform="translate(53,27)"/>
<path d="M0 0 C3.3 0 6.6 0 10 0 C10 0.66 10 1.32 10 2 C7.69 2 5.38 2 3 2 C3 2.99 3 3.98 3 5 C4.65 5 6.3 5 8 5 C8.33 5.99 8.66 6.98 9 8 C7.02 8 5.04 8 3 8 C3 9.32 3 10.64 3 12 C5.31 12 7.62 12 10 12 C10 12.66 10 13.32 10 14 C6.7 14 3.4 14 0 14 C0 9.38 0 4.76 0 0 Z " fill="#A7A7A7" transform="translate(162,27)"/>
<path d="M0 0 C3.3 0 6.6 0 10 0 C10 0.66 10 1.32 10 2 C7.69 2 5.38 2 3 2 C3 2.99 3 3.98 3 5 C4.65 5 6.3 5 8 5 C8.33 5.99 8.66 6.98 9 8 C7.02 8 5.04 8 3 8 C3 9.32 3 10.64 3 12 C5.31 12 7.62 12 10 12 C10 12.66 10 13.32 10 14 C6.7 14 3.4 14 0 14 C0 9.38 0 4.76 0 0 Z " fill="#A7A7A7" transform="translate(78,27)"/>
<path d="M0 0 C0.99 0.103125 1.98 0.20625 3 0.3125 C5 3.3125 5 3.3125 4.8125 5.875 C4 8.3125 4 8.3125 1 10.3125 C-3.54054054 9.77195946 -3.54054054 9.77195946 -5 8.3125 C-5.1875 5.375 -5.1875 5.375 -5 2.3125 C-3 0.3125 -3 0.3125 0 0 Z " fill="#646464" transform="translate(125,110.6875)"/>
<path d="M0 0 C0.99 0.103125 1.98 0.20625 3 0.3125 C5 3.3125 5 3.3125 4.9375 5.875 C4 8.3125 4 8.3125 1.6875 9.8125 C-1 10.3125 -1 10.3125 -3.3125 9.25 C-5 7.3125 -5 7.3125 -5.375 4.75 C-4.79696323 0.99276099 -3.72176816 0.38768418 0 0 Z " fill="#646464" transform="translate(125,73.6875)"/>
<path d="M0 0 C3.96 0 7.92 0 12 0 C12 0.66 12 1.32 12 2 C10.35 2 8.7 2 7 2 C7 5.96 7 9.92 7 14 C6.01 14 5.02 14 4 14 C4 10.04 4 6.08 4 2 C2.68 2 1.36 2 0 2 C0 1.34 0 0.68 0 0 Z " fill="#A7A7A7" transform="translate(65,27)"/>
<path d="M0 0 C0.99 0 1.98 0 3 0 C3 4.62 3 9.24 3 14 C2.01 14 1.02 14 0 14 C0 9.38 0 4.76 0 0 Z " fill="#A7A7A7" transform="translate(34,27)"/>
</svg>
