<svg width="28" height="28" viewBox="0 0 28 28" fill="none" xmlns="http://www.w3.org/2000/svg">
<rect width="28" height="28" rx="5" fill="#1717CC"/>
<path d="M14.6719 20.2266C14.7017 20.2266 14.7168 20.2417 14.7168 20.2715C14.8358 20.2715 14.94 20.2857 15.0293 20.3154C15.0591 20.3154 15.0894 20.3307 15.1191 20.3604C15.2683 20.4498 15.3881 20.5545 15.4775 20.6738V20.7188C15.4776 20.7484 15.492 20.778 15.5215 20.8076V20.8525C15.5512 20.9418 15.5663 21.0166 15.5664 21.0762L15.5215 23.2686H12.4346V20.2266H14.6719ZM15.0293 4.60938C15.1784 4.60938 15.2982 4.65465 15.3877 4.74414C15.4772 4.8038 15.5215 4.89339 15.5215 5.0127V17.7646C15.5513 17.9435 15.4625 18.1077 15.2539 18.2568C15.0749 18.406 14.8505 18.4805 14.582 18.4805H12.4346V4.60938H15.0293Z" fill="white"/>
</svg>
