<svg width="250" height="160" viewBox="0 0 250 160" fill="none" xmlns="http://www.w3.org/2000/svg">
<g clip-path="url(#clip0_3397_144)">
<path d="M125 6.25C166.744 6.25 200 32.2771 200 63.75C200 95.2229 166.744 121.25 125 121.25C83.2561 121.25 50 95.2229 50 63.75C50 32.2771 83.2561 6.25 125 6.25Z" fill="#646464" stroke="#A7A7A7" stroke-width="2.5"/>
<path d="M135.938 77.8125V74.6875C135.938 73.0299 135.279 71.4402 134.107 70.2681C132.935 69.096 131.345 68.4375 129.688 68.4375H120.312C118.655 68.4375 117.065 69.096 115.893 70.2681C114.721 71.4402 114.062 73.0299 114.062 74.6875V77.8125" stroke="#E8E8E8" stroke-width="3.125" stroke-linecap="round" stroke-linejoin="round"/>
<path d="M125 62.1875C128.452 62.1875 131.25 59.3893 131.25 55.9375C131.25 52.4857 128.452 49.6875 125 49.6875C121.548 49.6875 118.75 52.4857 118.75 55.9375C118.75 59.3893 121.548 62.1875 125 62.1875Z" stroke="#E8E8E8" stroke-width="3.125" stroke-linecap="round" stroke-linejoin="round"/>
</g>
<rect x="93.75" y="135" width="62.5" height="10" fill="#646464"/>
<rect x="66.25" y="150" width="117.5" height="5" fill="#A7A7A7"/>
<rect x="85" y="40" width="80" height="80" rx="40" fill="#E8E8E8"/>
<path d="M139.001 70.6663H136.667V65.9997C136.667 59.5597 131.441 54.333 125.001 54.333C118.561 54.333 113.334 59.5597 113.334 65.9997V70.6663H111.001C108.434 70.6663 106.334 72.7663 106.334 75.333V98.6663C106.334 101.233 108.434 103.333 111.001 103.333H139.001C141.567 103.333 143.667 101.233 143.667 98.6663V75.333C143.667 72.7663 141.567 70.6663 139.001 70.6663ZM125.001 91.6663C122.434 91.6663 120.334 89.5663 120.334 86.9997C120.334 84.433 122.434 82.333 125.001 82.333C127.567 82.333 129.667 84.433 129.667 86.9997C129.667 89.5663 127.567 91.6663 125.001 91.6663ZM132.234 70.6663H117.767V65.9997C117.767 62.0097 121.011 58.7663 125.001 58.7663C128.991 58.7663 132.234 62.0097 132.234 65.9997V70.6663Z" fill="#6660EF"/>
<defs>
<clipPath id="clip0_3397_144">
<rect x="48.75" y="5" width="152.5" height="117.5" rx="5" fill="white"/>
</clipPath>
</defs>
</svg>
