<svg width="250" height="160" viewBox="0 0 250 160" fill="none" xmlns="http://www.w3.org/2000/svg">
<g clip-path="url(#clip0_3397_168)">
<path d="M200.145 63.9785C200.704 71.8595 199.04 79.7172 195.162 87.1035C191.034 94.9672 186.097 102.82 177.217 107.694C168.228 112.628 159.764 114.712 148.756 116.899C142.979 118.048 136.483 119.572 129.947 120.538C123.418 121.504 117.01 121.884 111.5 120.793C100.236 118.563 86.2213 111.342 77.8623 105.241C74.0315 102.445 70.4846 100.252 67.2852 98.0596C64.0509 95.8431 61.0384 93.5434 58.0293 90.3877C51.4528 83.4906 48.4703 72.4843 49.0215 63.9707C49.2918 59.7962 51.0064 54.919 53.5107 50.1172C56.0064 45.3321 59.2374 40.715 62.4385 37.0762C68.1898 30.5383 73.9099 25.254 81.0391 19.4551C88.8622 13.0918 99.8472 8.43617 111.326 6.56738C116.931 5.65502 122.864 6.37569 128.913 7.64355C131.934 8.27667 134.954 9.03884 137.966 9.79101C140.968 10.5407 143.962 11.2808 146.885 11.8525C149.703 12.4037 152.517 12.834 155.268 13.252C158.027 13.6712 160.72 14.0771 163.341 14.5811C168.583 15.5892 173.438 16.9741 177.718 19.5557C181.91 22.0844 184.415 25.5662 186.385 29.4707C187.375 31.4339 188.22 33.4829 189.085 35.5791C189.943 37.6599 190.821 39.7885 191.857 41.8311C195.671 49.3502 199.605 56.3828 200.145 63.9785Z" fill="#646464" stroke="#A7A7A7" stroke-width="2.5"/>
<path d="M136.188 77.8125V74.6875C136.188 73.0299 135.529 71.4402 134.357 70.2681C133.185 69.096 131.595 68.4375 129.938 68.4375H120.562C118.905 68.4375 117.315 69.096 116.143 70.2681C114.971 71.4402 114.312 73.0299 114.312 74.6875V77.8125" stroke="#E8E8E8" stroke-width="3.125" stroke-linecap="round" stroke-linejoin="round"/>
<path d="M125.25 62.1875C128.702 62.1875 131.5 59.3893 131.5 55.9375C131.5 52.4857 128.702 49.6875 125.25 49.6875C121.798 49.6875 119 52.4857 119 55.9375C119 59.3893 121.798 62.1875 125.25 62.1875Z" stroke="#E8E8E8" stroke-width="3.125" stroke-linecap="round" stroke-linejoin="round"/>
</g>
<rect x="93.75" y="135" width="62.5" height="10" fill="#646464"/>
<rect x="66.25" y="150" width="117.5" height="5" fill="#A7A7A7"/>
<rect x="85" y="40" width="80" height="80" rx="40" fill="#E8E8E8"/>
<path d="M139.001 70.6663H136.667V65.9997C136.667 59.5597 131.441 54.333 125.001 54.333C118.561 54.333 113.334 59.5597 113.334 65.9997V70.6663H111.001C108.434 70.6663 106.334 72.7663 106.334 75.333V98.6663C106.334 101.233 108.434 103.333 111.001 103.333H139.001C141.567 103.333 143.667 101.233 143.667 98.6663V75.333C143.667 72.7663 141.567 70.6663 139.001 70.6663ZM125.001 91.6663C122.434 91.6663 120.334 89.5663 120.334 86.9997C120.334 84.433 122.434 82.333 125.001 82.333C127.567 82.333 129.667 84.433 129.667 86.9997C129.667 89.5663 127.567 91.6663 125.001 91.6663ZM132.234 70.6663H117.767V65.9997C117.767 62.0097 121.011 58.7663 125.001 58.7663C128.991 58.7663 132.234 62.0097 132.234 65.9997V70.6663Z" fill="#6660EF"/>
<defs>
<clipPath id="clip0_3397_168">
<rect x="47" y="5" width="156" height="117.5" rx="5" fill="white"/>
</clipPath>
</defs>
</svg>
