<svg xmlns="http://www.w3.org/2000/svg" xmlns:xlink="http://www.w3.org/1999/xlink" width="242" height="182" fill="none" viewBox="0 0 242 182"><g clip-path="url(#a)"><rect width="242" height="182" fill="#f0f0f1" rx="6"/><g opacity=".32"><path id="b" stroke="#d1d1d6" stroke-width=".7" d="M-313.127 182 3.553 0" data-figma-trr="l40u0.05-0f"/><use xlink:href="#b" transform="translate(15.834)"/><use xlink:href="#b" transform="translate(31.668)"/><use xlink:href="#b" transform="translate(47.502)"/><use xlink:href="#b" transform="translate(63.336)"/><use xlink:href="#b" transform="translate(79.17)"/><use xlink:href="#b" transform="translate(95.004)"/><use xlink:href="#b" transform="translate(110.838)"/><use xlink:href="#b" transform="translate(126.672)"/><use xlink:href="#b" transform="translate(142.506)"/><use xlink:href="#b" transform="translate(158.34)"/><use xlink:href="#b" transform="translate(174.174)"/><use xlink:href="#b" transform="translate(190.008)"/><use xlink:href="#b" transform="translate(205.842)"/><use xlink:href="#b" transform="translate(221.676)"/><use xlink:href="#b" transform="translate(237.51)"/><use xlink:href="#b" transform="translate(253.344)"/><use xlink:href="#b" transform="translate(269.178)"/><use xlink:href="#b" transform="translate(285.012)"/><use xlink:href="#b" transform="translate(300.846)"/><use xlink:href="#b" transform="translate(316.68)"/><use xlink:href="#b" transform="translate(332.514)"/><use xlink:href="#b" transform="translate(348.348)"/><use xlink:href="#b" transform="translate(364.182)"/><use xlink:href="#b" transform="translate(380.016)"/><use xlink:href="#b" transform="translate(395.85)"/><use xlink:href="#b" transform="translate(411.684)"/><use xlink:href="#b" transform="translate(427.518)"/><use xlink:href="#b" transform="translate(443.352)"/><use xlink:href="#b" transform="translate(459.186)"/><use xlink:href="#b" transform="translate(475.02)"/><use xlink:href="#b" transform="translate(490.854)"/><use xlink:href="#b" transform="translate(506.688)"/><use xlink:href="#b" transform="translate(522.522)"/><use xlink:href="#b" transform="translate(538.357)"/><use xlink:href="#b" transform="translate(554.191)"/><use xlink:href="#b" transform="translate(570.025)"/><use xlink:href="#b" transform="translate(585.859)"/><use xlink:href="#b" transform="translate(601.693)"/><use xlink:href="#b" transform="translate(617.527)"/></g><g clip-path="url(#c)"><path fill="#fff" d="M18 32a8 8 0 0 1 8-8h190a8 8 0 0 1 8 8v150H18z"/><rect width="78" height="7" x="82" y="57" fill="#1717cc" rx="3.5"/><g clip-path="url(#d)"><rect width="52" height="40" x="33" y="76" fill="#f0f0f1" rx="4"/><circle cx="45.5" cy="86.5" r="2.5" stroke="#d1d1d6" stroke-linecap="round" stroke-linejoin="round"/><path stroke="#d1d1d6" d="M34 117.956c14.047-16.786 29.794-38.924 53-23.958"/></g><rect width="52" height="3" x="33" y="121" fill="#f0f0f1" rx="1.5"/><rect width="37" height="3" x="33" y="128" fill="#f0f0f1" rx="1.5"/><g clip-path="url(#e)"><rect width="52" height="40" x="95" y="76" fill="#f0f0f1" rx="4"/><circle cx="107.5" cy="86.5" r="2.5" stroke="#d1d1d6" stroke-linecap="round" stroke-linejoin="round"/><path stroke="#d1d1d6" d="M96 117.956c14.047-16.786 29.794-38.924 53-23.958"/></g><rect width="52" height="3" x="95" y="121" fill="#f0f0f1" rx="1.5"/><rect width="37" height="3" x="95" y="128" fill="#f0f0f1" rx="1.5"/><g clip-path="url(#f)"><rect width="52" height="40" x="157" y="76" fill="#f0f0f1" rx="4"/><circle cx="169.5" cy="86.5" r="2.5" stroke="#d1d1d6" stroke-linecap="round" stroke-linejoin="round"/><path stroke="#d1d1d6" d="M158 117.956c14.047-16.786 29.794-38.924 53-23.958"/></g><rect width="52" height="3" x="157" y="121" fill="#f0f0f1" rx="1.5"/><rect width="37" height="3" x="157" y="128" fill="#f0f0f1" rx="1.5"/><g clip-path="url(#g)"><rect width="52" height="40" x="33" y="141" fill="#f0f0f1" rx="4"/><circle cx="45.5" cy="151.5" r="2.5" stroke="#d1d1d6" stroke-linecap="round" stroke-linejoin="round"/><path stroke="#d1d1d6" d="M34 182.956c14.047-16.786 29.794-38.924 53-23.958"/></g><g clip-path="url(#h)"><rect width="52" height="40" x="95" y="141" fill="#f0f0f1" rx="4"/><circle cx="107.5" cy="151.5" r="2.5" stroke="#d1d1d6" stroke-linecap="round" stroke-linejoin="round"/><path stroke="#d1d1d6" d="M96 182.956c14.047-16.786 29.794-38.924 53-23.958"/></g><g clip-path="url(#i)"><rect width="52" height="40" x="157" y="141" fill="#f0f0f1" rx="4"/><circle cx="169.5" cy="151.5" r="2.5" stroke="#d1d1d6" stroke-linecap="round" stroke-linejoin="round"/><path stroke="#d1d1d6" d="M158 182.956c14.047-16.786 29.794-38.924 53-23.958"/></g><path stroke="#d1d1d6" stroke-width=".5" d="M18.5 44.5H223"/><path fill="#ee6d67" d="M33 35a3 3 0 1 1-6 0 3 3 0 0 1 6 0"/><path fill="#f7bd46" d="M43 35a3 3 0 1 1-6 0 3 3 0 0 1 6 0"/><path fill="#61c45c" d="M53 35a3 3 0 1 1-6 0 3 3 0 0 1 6 0"/></g><path stroke="#d1d1d6" d="M26 24.5h190a7.5 7.5 0 0 1 7.5 7.5v149.5h-205V32a7.5 7.5 0 0 1 7.5-7.5Z"/><path stroke="#d9d9de" stroke-width=".7" d="M-5 24h252M224 1v159M18 1v159"/></g><rect width="241" height="181" x=".5" y=".5" stroke="#d1d1d6" rx="5.5"/><defs><clipPath id="a"><rect width="242" height="182" fill="#fff" rx="6"/></clipPath><clipPath id="c"><path fill="#fff" d="M18 32a8 8 0 0 1 8-8h190a8 8 0 0 1 8 8v150H18z"/></clipPath><clipPath id="d"><rect width="52" height="40" x="33" y="76" fill="#fff" rx="4"/></clipPath><clipPath id="e"><rect width="52" height="40" x="95" y="76" fill="#fff" rx="4"/></clipPath><clipPath id="f"><rect width="52" height="40" x="157" y="76" fill="#fff" rx="4"/></clipPath><clipPath id="g"><rect width="52" height="40" x="33" y="141" fill="#fff" rx="4"/></clipPath><clipPath id="h"><rect width="52" height="40" x="95" y="141" fill="#fff" rx="4"/></clipPath><clipPath id="i"><rect width="52" height="40" x="157" y="141" fill="#fff" rx="4"/></clipPath></defs></svg>