<svg xmlns="http://www.w3.org/2000/svg" xmlns:xlink="http://www.w3.org/1999/xlink" width="242" height="182" fill="none" viewBox="0 0 242 182"><g clip-path="url(#a)"><rect width="242" height="182" fill="#f0f0f1" rx="6"/><g opacity=".32"><path id="b" stroke="#d1d1d6" stroke-width=".7" d="M-313.127 182 3.553 0" data-figma-trr="l40u0.05-0f"/><use xlink:href="#b" transform="translate(15.834)"/><use xlink:href="#b" transform="translate(31.668)"/><use xlink:href="#b" transform="translate(47.502)"/><use xlink:href="#b" transform="translate(63.336)"/><use xlink:href="#b" transform="translate(79.17)"/><use xlink:href="#b" transform="translate(95.004)"/><use xlink:href="#b" transform="translate(110.838)"/><use xlink:href="#b" transform="translate(126.672)"/><use xlink:href="#b" transform="translate(142.506)"/><use xlink:href="#b" transform="translate(158.34)"/><use xlink:href="#b" transform="translate(174.174)"/><use xlink:href="#b" transform="translate(190.008)"/><use xlink:href="#b" transform="translate(205.842)"/><use xlink:href="#b" transform="translate(221.676)"/><use xlink:href="#b" transform="translate(237.51)"/><use xlink:href="#b" transform="translate(253.344)"/><use xlink:href="#b" transform="translate(269.178)"/><use xlink:href="#b" transform="translate(285.012)"/><use xlink:href="#b" transform="translate(300.846)"/><use xlink:href="#b" transform="translate(316.68)"/><use xlink:href="#b" transform="translate(332.514)"/><use xlink:href="#b" transform="translate(348.348)"/><use xlink:href="#b" transform="translate(364.182)"/><use xlink:href="#b" transform="translate(380.016)"/><use xlink:href="#b" transform="translate(395.85)"/><use xlink:href="#b" transform="translate(411.684)"/><use xlink:href="#b" transform="translate(427.518)"/><use xlink:href="#b" transform="translate(443.352)"/><use xlink:href="#b" transform="translate(459.186)"/><use xlink:href="#b" transform="translate(475.02)"/><use xlink:href="#b" transform="translate(490.854)"/><use xlink:href="#b" transform="translate(506.688)"/><use xlink:href="#b" transform="translate(522.522)"/><use xlink:href="#b" transform="translate(538.357)"/><use xlink:href="#b" transform="translate(554.191)"/><use xlink:href="#b" transform="translate(570.025)"/><use xlink:href="#b" transform="translate(585.859)"/><use xlink:href="#b" transform="translate(601.693)"/><use xlink:href="#b" transform="translate(617.527)"/></g><path fill="#d9d9de" d="M247 20v.7H-5V20zM247 161.301V162H-5v-.699z"/><path fill="#d9d9de" d="M224.35 182h-.7V1h.7zM18.35 182h-.7V1h.7z"/><path fill="#fff" d="M26 20.5h190a7.5 7.5 0 0 1 7.5 7.5v126a7.5 7.5 0 0 1-7.5 7.5H26a7.5 7.5 0 0 1-7.5-7.5V28l.01-.386A7.5 7.5 0 0 1 26 20.5"/><path stroke="#d1d1d6" d="M26 20.5h190a7.5 7.5 0 0 1 7.5 7.5v126a7.5 7.5 0 0 1-7.5 7.5H26a7.5 7.5 0 0 1-7.5-7.5V28l.01-.386A7.5 7.5 0 0 1 26 20.5Z"/><path fill="#ee6d67" d="M33 31a3 3 0 1 1-6 0 3 3 0 0 1 6 0"/><path fill="#f7bd46" d="M43 31a3 3 0 1 1-6 0 3 3 0 0 1 6 0"/><path fill="#61c45c" d="M53 31a3 3 0 1 1-6 0 3 3 0 0 1 6 0"/><path fill="#d1d1d6" d="M223 41v.5H18.5V41z"/><path fill="#000" d="M38.936 59.432h1.14v3.684h4.512v-3.684h1.14V68h-1.14v-3.924h-4.512V68h-1.14zm9.236 5.472q0 .564.144 1.008.156.432.42.732.264.288.612.444a1.88 1.88 0 0 0 1.5 0q.36-.156.624-.444.264-.3.408-.732a3 3 0 0 0 .156-1.008q0-.564-.156-.996a2.1 2.1 0 0 0-.408-.744 1.75 1.75 0 0 0-.624-.456 1.881 1.881 0 0 0-1.5 0 1.8 1.8 0 0 0-.612.456 2.2 2.2 0 0 0-.42.744q-.144.432-.144.996m-1.08 0q0-.684.192-1.272.192-.6.576-1.032.384-.444.948-.696a3.15 3.15 0 0 1 1.296-.252q.744 0 1.296.252.564.252.948.696.384.432.576 1.032.192.588.192 1.272t-.192 1.272-.576 1.032a2.75 2.75 0 0 1-.948.684q-.552.24-1.296.24-.732 0-1.296-.24a2.75 2.75 0 0 1-.948-.684 3 3 0 0 1-.576-1.032 4 4 0 0 1-.192-1.272m7.227-3.108h.96v.912h.024q.696-1.056 2.004-1.056.576 0 1.044.24t.66.816q.312-.504.816-.78.516-.276 1.128-.276.468 0 .84.108.384.096.648.312.276.216.42.564.156.336.156.816V68h-1.02v-4.068q0-.288-.048-.54a1.05 1.05 0 0 0-.18-.432.87.87 0 0 0-.372-.3q-.228-.108-.6-.108-.756 0-1.188.432t-.432 1.152V68h-1.02v-4.068q0-.3-.06-.552a1.05 1.05 0 0 0-.18-.432.8.8 0 0 0-.36-.288 1.3 1.3 0 0 0-.564-.108q-.444 0-.768.18-.312.18-.516.432a1.9 1.9 0 0 0-.288.528 1.5 1.5 0 0 0-.084.444V68h-1.02zm14.538 2.508a2 2 0 0 0-.168-.684 1.6 1.6 0 0 0-.372-.552 1.6 1.6 0 0 0-.552-.372 1.64 1.64 0 0 0-.696-.144q-.396 0-.72.144a1.6 1.6 0 0 0-.54.372 1.8 1.8 0 0 0-.36.564q-.132.312-.156.672zm.984 1.728q-.204 1.044-.9 1.572t-1.752.528q-.744 0-1.296-.24a2.56 2.56 0 0 1-.912-.672 2.9 2.9 0 0 1-.564-1.032q-.18-.6-.204-1.308 0-.708.216-1.296t.6-1.02q.396-.432.924-.672.54-.24 1.176-.24.828 0 1.368.348.552.336.876.864.336.528.456 1.152.132.624.108 1.188h-4.644q-.012.408.096.78.108.36.348.648.24.276.612.444t.876.168q.648 0 1.056-.3.42-.3.552-.912z"/><path stroke="#000" stroke-linecap="round" stroke-linejoin="round" stroke-width="1.333" d="m83 68 4-4-4-4"/><path fill="#000" d="M101.076 63.116h2.28q.972 0 1.392-.336.432-.348.432-1.032 0-.456-.144-.72a1.02 1.02 0 0 0-.396-.408 1.5 1.5 0 0 0-.588-.18 5 5 0 0 0-.696-.048h-2.28zm-1.14-3.684h3.108q.276 0 .588.012.324 0 .636.036.312.024.576.084.276.06.468.18.42.252.708.696.3.444.3 1.092 0 .684-.336 1.188-.324.492-.936.732v.024q.792.168 1.212.72t.42 1.344q0 .468-.168.912t-.504.792a2.5 2.5 0 0 1-.816.552q-.48.204-1.116.204h-4.14zm1.14 7.608h2.856q.756 0 1.176-.408.432-.408.432-1.128 0-.42-.156-.696a1.15 1.15 0 0 0-.42-.432 1.5 1.5 0 0 0-.588-.228 3.3 3.3 0 0 0-.696-.072h-2.604zm6.967-7.608h1.02V68h-1.02zm3.344 5.472q0 .564.144 1.008.156.432.42.732.264.288.612.444a1.88 1.88 0 0 0 1.5 0q.36-.156.624-.444.264-.3.408-.732a3 3 0 0 0 .156-1.008q0-.564-.156-.996a2.1 2.1 0 0 0-.408-.744 1.75 1.75 0 0 0-.624-.456 1.881 1.881 0 0 0-1.5 0 1.8 1.8 0 0 0-.612.456 2.2 2.2 0 0 0-.42.744q-.144.432-.144.996m-1.08 0q0-.684.192-1.272.192-.6.576-1.032.384-.444.948-.696a3.15 3.15 0 0 1 1.296-.252q.744 0 1.296.252.564.252.948.696.384.432.576 1.032.192.588.192 1.272t-.192 1.272-.576 1.032a2.75 2.75 0 0 1-.948.684q-.552.24-1.296.24-.732 0-1.296-.24a2.75 2.75 0 0 1-.948-.684 3 3 0 0 1-.576-1.032 4 4 0 0 1-.192-1.272m12.579 2.568q0 1.524-.696 2.28t-2.184.756q-.432 0-.888-.096a2.8 2.8 0 0 1-.816-.312 1.9 1.9 0 0 1-.6-.564 1.6 1.6 0 0 1-.264-.852h1.02q.012.276.168.468.168.192.396.312.24.12.516.168.276.06.528.06.504 0 .852-.18.348-.168.576-.48.228-.3.324-.732.108-.432.108-.948v-.408h-.024a1.74 1.74 0 0 1-.804.852 2.5 2.5 0 0 1-1.128.264q-.696 0-1.212-.252a2.6 2.6 0 0 1-.864-.672 3 3 0 0 1-.528-.996 4.3 4.3 0 0 1-.168-1.212q0-.552.144-1.128.144-.588.48-1.056.336-.48.888-.78.552-.312 1.356-.312.588 0 1.08.264.492.252.768.768h.012v-.888h.96zm-2.856-.3q.504 0 .852-.204.36-.216.576-.552.216-.348.312-.78a3.6 3.6 0 0 0 .108-.864 3.4 3.4 0 0 0-.096-.804 2.1 2.1 0 0 0-.312-.708 1.5 1.5 0 0 0-.54-.516q-.336-.192-.816-.192-.492 0-.84.192-.348.18-.576.492a2.3 2.3 0 0 0-.324.72 3.7 3.7 0 0 0-.096.852q0 .42.084.84t.288.768q.204.336.54.552.336.204.84.204"/><path stroke="#000" stroke-linecap="round" stroke-linejoin="round" stroke-width="1.333" d="m136 68 4-4-4-4"/><path fill="#1717cc" d="M154.076 63.536h2.232q.972.012 1.416-.396.456-.408.456-1.176t-.456-1.164q-.444-.408-1.416-.408h-2.232zm-1.14-4.104h3.756q1.296 0 1.956.672.672.66.672 1.86t-.672 1.872q-.66.672-1.956.66h-2.616V68h-1.14zm8.357 5.472q0 .564.144 1.008.156.432.42.732.264.288.612.444a1.88 1.88 0 0 0 1.5 0q.36-.156.624-.444.264-.3.408-.732a3 3 0 0 0 .156-1.008q0-.564-.156-.996a2.1 2.1 0 0 0-.408-.744 1.75 1.75 0 0 0-.624-.456 1.881 1.881 0 0 0-1.5 0 1.8 1.8 0 0 0-.612.456 2.2 2.2 0 0 0-.42.744q-.144.432-.144.996m-1.08 0q0-.684.192-1.272.192-.6.576-1.032.384-.444.948-.696a3.15 3.15 0 0 1 1.296-.252q.744 0 1.296.252.564.252.948.696.384.432.576 1.032.192.588.192 1.272t-.192 1.272-.576 1.032a2.75 2.75 0 0 1-.948.684q-.552.24-1.296.24-.732 0-1.296-.24a2.75 2.75 0 0 1-.948-.684 3 3 0 0 1-.576-1.032 4 4 0 0 1-.192-1.272m7.851 1.14q.012.336.156.576.144.228.372.372.24.132.528.192.3.06.612.06.24 0 .504-.036t.48-.132a.9.9 0 0 0 .372-.276.78.78 0 0 0 .144-.48q0-.396-.3-.6a2.5 2.5 0 0 0-.756-.324 9 9 0 0 0-.972-.228 6 6 0 0 1-.984-.288 2.1 2.1 0 0 1-.744-.528q-.3-.336-.3-.936 0-.468.204-.804a1.74 1.74 0 0 1 .54-.54q.336-.216.744-.312.42-.108.828-.108.528 0 .972.096.444.084.78.312.348.216.552.6.204.372.24.936h-1.02a1 1 0 0 0-.492-.816 1.4 1.4 0 0 0-.456-.168 2 2 0 0 0-.492-.06q-.228 0-.468.036a1.4 1.4 0 0 0-.42.132.8.8 0 0 0-.312.24.58.58 0 0 0-.12.384q0 .264.18.444.192.168.48.288.288.108.648.192.36.072.72.156.384.084.744.204.372.12.648.324.288.192.456.492.18.3.18.744 0 .564-.24.936a1.76 1.76 0 0 1-.612.6 2.4 2.4 0 0 1-.852.312 4.7 4.7 0 0 1-.936.096q-.516 0-.984-.108a2.5 2.5 0 0 1-.828-.348 1.9 1.9 0 0 1-.576-.648q-.216-.408-.24-.984zm6.792-4.248h1.236v.9h-1.236v3.852q0 .18.024.288a.33.33 0 0 0 .12.168q.084.06.228.084.156.012.396.012h.468v.9h-.78q-.396 0-.684-.048a1.1 1.1 0 0 1-.456-.204.87.87 0 0 1-.252-.408 2.4 2.4 0 0 1-.084-.696v-3.948h-1.056v-.9h1.056v-1.86h1.02zm7.821-1.404h-2.856v-.96h6.852v.96h-2.856V68h-1.14zm5.859.288h-1.02v-1.248h1.02zm-1.02 1.116h1.02V68h-1.02zm4.016 0h1.236v.9h-1.236v3.852q0 .18.024.288a.33.33 0 0 0 .12.168q.084.06.228.084.156.012.396.012h.468v.9h-.78q-.396 0-.684-.048a1.1 1.1 0 0 1-.456-.204.87.87 0 0 1-.252-.408 2.4 2.4 0 0 1-.084-.696v-3.948h-1.056v-.9h1.056v-1.86h1.02zm2.429-2.364h1.02V68h-1.02zm6.908 4.872a2 2 0 0 0-.168-.684 1.6 1.6 0 0 0-.372-.552 1.6 1.6 0 0 0-.552-.372 1.64 1.64 0 0 0-.696-.144q-.396 0-.72.144a1.6 1.6 0 0 0-.54.372 1.8 1.8 0 0 0-.36.564q-.132.312-.156.672zm.984 1.728q-.204 1.044-.9 1.572t-1.752.528q-.744 0-1.296-.24a2.56 2.56 0 0 1-.912-.672 2.9 2.9 0 0 1-.564-1.032q-.18-.6-.204-1.308 0-.708.216-1.296t.6-1.02q.396-.432.924-.672.54-.24 1.176-.24.828 0 1.368.348.552.336.876.864.336.528.456 1.152.132.624.108 1.188h-4.644q-.012.408.096.78.108.36.348.648.24.276.612.444t.876.168q.648 0 1.056-.3.42-.3.552-.912z"/><path fill="url(#c)" d="M0 0h204v59H0z" transform="translate(19 87)"/></g><rect width="241" height="181" x=".5" y=".5" stroke="#d1d1d6" rx="5.5"/><defs><linearGradient id="c" x1="102" x2="102" y1="0" y2="59" gradientUnits="userSpaceOnUse"><stop stop-color="#f0f0f1"/><stop offset="1" stop-color="#f0f0f1" stop-opacity="0"/></linearGradient><clipPath id="a"><rect width="242" height="182" fill="#fff" rx="6"/></clipPath></defs></svg>