<svg xmlns="http://www.w3.org/2000/svg" xmlns:xlink="http://www.w3.org/1999/xlink" width="242" height="182" fill="none" viewBox="0 0 242 182"><g clip-path="url(#a)"><rect width="242" height="182" fill="#f0f0f1" rx="6"/><g opacity=".32"><path id="b" stroke="#d1d1d6" stroke-width=".7" d="M-313.127 182 3.553 0" data-figma-trr="l40u0.05-0f"/><use xlink:href="#b" transform="translate(15.834)"/><use xlink:href="#b" transform="translate(31.668)"/><use xlink:href="#b" transform="translate(47.502)"/><use xlink:href="#b" transform="translate(63.336)"/><use xlink:href="#b" transform="translate(79.17)"/><use xlink:href="#b" transform="translate(95.004)"/><use xlink:href="#b" transform="translate(110.838)"/><use xlink:href="#b" transform="translate(126.672)"/><use xlink:href="#b" transform="translate(142.506)"/><use xlink:href="#b" transform="translate(158.34)"/><use xlink:href="#b" transform="translate(174.174)"/><use xlink:href="#b" transform="translate(190.008)"/><use xlink:href="#b" transform="translate(205.842)"/><use xlink:href="#b" transform="translate(221.676)"/><use xlink:href="#b" transform="translate(237.51)"/><use xlink:href="#b" transform="translate(253.344)"/><use xlink:href="#b" transform="translate(269.178)"/><use xlink:href="#b" transform="translate(285.012)"/><use xlink:href="#b" transform="translate(300.846)"/><use xlink:href="#b" transform="translate(316.68)"/><use xlink:href="#b" transform="translate(332.514)"/><use xlink:href="#b" transform="translate(348.348)"/><use xlink:href="#b" transform="translate(364.182)"/><use xlink:href="#b" transform="translate(380.016)"/><use xlink:href="#b" transform="translate(395.85)"/><use xlink:href="#b" transform="translate(411.684)"/><use xlink:href="#b" transform="translate(427.518)"/><use xlink:href="#b" transform="translate(443.352)"/><use xlink:href="#b" transform="translate(459.186)"/><use xlink:href="#b" transform="translate(475.02)"/><use xlink:href="#b" transform="translate(490.854)"/><use xlink:href="#b" transform="translate(506.688)"/><use xlink:href="#b" transform="translate(522.522)"/><use xlink:href="#b" transform="translate(538.357)"/><use xlink:href="#b" transform="translate(554.191)"/><use xlink:href="#b" transform="translate(570.025)"/><use xlink:href="#b" transform="translate(585.859)"/><use xlink:href="#b" transform="translate(601.693)"/><use xlink:href="#b" transform="translate(617.527)"/></g><path fill="#d9d9de" d="M224.35 181h-.7V11h.7zM18.35 181h-.7V11h.7z"/><path fill="#d9d9de" d="M247 161v.699H-5V161z"/><path fill="#fff" d="M223.5.5V154a7.5 7.5 0 0 1-7.5 7.5H26a7.5 7.5 0 0 1-7.5-7.5V.5z"/><path stroke="#d1d1d6" d="M223.5.5V154a7.5 7.5 0 0 1-7.5 7.5H26a7.5 7.5 0 0 1-7.5-7.5V.5z"/><path fill="#fff" d="M19 87h204v71H19z"/><rect width="25" height="6" x="28.574" y="93.718" fill="#1717cc" rx="3"/><rect width="49" height="3.51" x="28.574" y="105.795" fill="#f0f0f1" rx="1.755"/><rect width="7.029" height="7.029" x="28.574" y="115.381" fill="#f0f0f1" rx="3.514"/><rect width="7.029" height="7.029" x="38.955" y="115.381" fill="#f0f0f1" rx="3.514"/><rect width="7.029" height="7.029" x="49.338" y="115.381" fill="#f0f0f1" rx="3.514"/><rect width="7.029" height="7.029" x="59.719" y="115.381" fill="#f0f0f1" rx="3.514"/><rect width="14.668" height="3.514" x="105.66" y="93.718" fill="#d1d1d6" rx="1.757"/><rect width="12.153" height="3.514" x="105.66" y="104.683" fill="#f0f0f1" rx="1.757"/><rect width="14.668" height="3.514" x="105.66" y="112.697" fill="#f0f0f1" rx="1.757"/><rect width="11.734" height="3.514" x="105.66" y="120.712" fill="#f0f0f1" rx="1.757"/><rect width="19.906" height="3.514" x="105.66" y="128.727" fill="#f0f0f1" rx="1.757"/><rect width="14.249" height="3.514" x="140.654" y="93.718" fill="#d1d1d6" rx="1.757"/><rect width="18.649" height="3.514" x="140.654" y="104.683" fill="#f0f0f1" rx="1.757"/><rect width="28.707" height="3.514" x="140.654" y="112.697" fill="#f0f0f1" rx="1.757"/><rect width="22.211" height="3.514" x="140.654" y="120.712" fill="#f0f0f1" rx="1.757"/><rect width="20.745" height="3.514" x="140.654" y="128.727" fill="#f0f0f1" rx="1.757"/><rect width="14.039" height="3.514" x="182.352" y="93.718" fill="#d1d1d6" rx="1.757"/><rect width="31.222" height="3.514" x="182.352" y="104.683" fill="#f0f0f1" rx="1.757"/><rect width="20.326" height="3.514" x="182.352" y="112.697" fill="#f0f0f1" rx="1.757"/><rect width="19.278" height="3.514" x="182.352" y="120.712" fill="#f0f0f1" rx="1.757"/><rect width="23.259" height="3.514" x="182.352" y="128.727" fill="#f0f0f1" rx="1.757"/><rect width="114" height="5" x="64.074" y="146.24" fill="#f0f0f1" rx="2.5"/><path fill="#fff" d="M19 4h204v76H19z"/><path fill="url(#c)" d="M0 0h204v76H0z" transform="translate(19 4)"/></g><rect width="241" height="181" x=".5" y=".5" stroke="#d1d1d6" rx="5.5"/><defs><linearGradient id="c" x1="102" x2="102" y1="0" y2="76" gradientUnits="userSpaceOnUse"><stop stop-color="#f0f0f1" stop-opacity="0"/><stop offset="1" stop-color="#f0f0f1"/></linearGradient><clipPath id="a"><rect width="242" height="182" fill="#fff" rx="6"/></clipPath></defs></svg>