<svg xmlns="http://www.w3.org/2000/svg" xmlns:xlink="http://www.w3.org/1999/xlink" width="242" height="182" fill="none" viewBox="0 0 242 182"><g clip-path="url(#a)"><rect width="242" height="182" fill="#f0f0f1" rx="6"/><g opacity=".32"><path id="b" stroke="#d1d1d6" stroke-width=".7" d="M-313.127 182 3.553 0" data-figma-trr="l40u0.05-0f"/><use xlink:href="#b" transform="translate(15.834)"/><use xlink:href="#b" transform="translate(31.668)"/><use xlink:href="#b" transform="translate(47.502)"/><use xlink:href="#b" transform="translate(63.336)"/><use xlink:href="#b" transform="translate(79.17)"/><use xlink:href="#b" transform="translate(95.004)"/><use xlink:href="#b" transform="translate(110.838)"/><use xlink:href="#b" transform="translate(126.672)"/><use xlink:href="#b" transform="translate(142.506)"/><use xlink:href="#b" transform="translate(158.34)"/><use xlink:href="#b" transform="translate(174.174)"/><use xlink:href="#b" transform="translate(190.008)"/><use xlink:href="#b" transform="translate(205.842)"/><use xlink:href="#b" transform="translate(221.676)"/><use xlink:href="#b" transform="translate(237.51)"/><use xlink:href="#b" transform="translate(253.344)"/><use xlink:href="#b" transform="translate(269.178)"/><use xlink:href="#b" transform="translate(285.012)"/><use xlink:href="#b" transform="translate(300.846)"/><use xlink:href="#b" transform="translate(316.68)"/><use xlink:href="#b" transform="translate(332.514)"/><use xlink:href="#b" transform="translate(348.348)"/><use xlink:href="#b" transform="translate(364.182)"/><use xlink:href="#b" transform="translate(380.016)"/><use xlink:href="#b" transform="translate(395.85)"/><use xlink:href="#b" transform="translate(411.684)"/><use xlink:href="#b" transform="translate(427.518)"/><use xlink:href="#b" transform="translate(443.352)"/><use xlink:href="#b" transform="translate(459.186)"/><use xlink:href="#b" transform="translate(475.02)"/><use xlink:href="#b" transform="translate(490.854)"/><use xlink:href="#b" transform="translate(506.688)"/><use xlink:href="#b" transform="translate(522.522)"/><use xlink:href="#b" transform="translate(538.357)"/><use xlink:href="#b" transform="translate(554.191)"/><use xlink:href="#b" transform="translate(570.025)"/><use xlink:href="#b" transform="translate(585.859)"/><use xlink:href="#b" transform="translate(601.693)"/><use xlink:href="#b" transform="translate(617.527)"/></g><path fill="#d9d9de" d="M247 20v.7H-5V20zM247 161.301V162H-5v-.699z"/><path fill="#d9d9de" d="M224.35 182h-.7V1h.7zM18.35 182h-.7V1h.7z"/><g clip-path="url(#c)"><path fill="#fff" d="M18 28a8 8 0 0 1 8-8h190a8 8 0 0 1 8 8v126a8 8 0 0 1-8 8H26a8 8 0 0 1-8-8z"/><path fill="#ee6d67" d="M33 31a3 3 0 1 1-6 0 3 3 0 0 1 6 0"/><path fill="#f7bd46" d="M43 31a3 3 0 1 1-6 0 3 3 0 0 1 6 0"/><path fill="#61c45c" d="M53 31a3 3 0 1 1-6 0 3 3 0 0 1 6 0"/><path fill="#d1d1d6" d="M223 41v.5H18.5V41z"/><g fill="#d9d9d9" clip-path="url(#d)"><rect width="93.672" height="5.881" x="54.904" y="62.84" rx="2.94"/><rect width="35.285" height="5.881" x="66.244" y="81.322" opacity=".8" rx="2.94"/><path d="M66.244 102.745a2.94 2.94 0 0 1 2.94-2.94h86.532a2.94 2.94 0 1 1 0 5.88H69.184a2.94 2.94 0 0 1-2.94-2.94M66.244 121.227a2.94 2.94 0 0 1 2.94-2.94h40.326a2.94 2.94 0 0 1 0 5.881H69.184a2.94 2.94 0 0 1-2.94-2.941" opacity=".4"/><path d="M66.244 141.154a2.94 2.94 0 0 1 2.94-2.94h54.188a2.94 2.94 0 0 1 0 5.881H69.185a2.94 2.94 0 0 1-2.94-2.941" opacity=".8"/><path d="M66.244 160.477a2.94 2.94 0 0 1 2.94-2.941h35.285a2.94 2.94 0 0 1 0 5.881H69.185a2.94 2.94 0 0 1-2.94-2.94" opacity=".4"/><path d="M114.551 160.477a2.94 2.94 0 0 1 2.94-2.941H188.9a2.941 2.941 0 0 1 0 5.881h-71.409a2.94 2.94 0 0 1-2.94-2.94" opacity=".8"/><path d="M133.453 141.154a2.94 2.94 0 0 1 2.941-2.94h54.186a2.94 2.94 0 1 1 0 5.881h-54.186a2.94 2.94 0 0 1-2.941-2.941" opacity=".4"/><path d="M118.752 121.227a2.94 2.94 0 0 1 2.94-2.94H184.7a2.941 2.941 0 0 1 0 5.881h-63.008a2.94 2.94 0 0 1-2.94-2.941" opacity=".8"/><rect width="72.249" height="5.881" x="108.67" y="81.322" opacity=".4" rx="2.94"/><circle cx="39.781" cy="65.781" r="3.78" opacity=".23"/><circle cx="39.781" cy="84.263" r="3.78" opacity=".23"/><circle cx="39.781" cy="102.745" r="3.78" opacity=".23"/><circle cx="39.781" cy="121.228" r="3.78" opacity=".23"/><circle cx="39.781" cy="141.672" r="3.78" opacity=".23"/><circle cx="39.781" cy="160.233" r="3.78" opacity=".23"/></g></g><path stroke="#d1d1d6" d="M26 20.5h190a7.5 7.5 0 0 1 7.5 7.5v126a7.5 7.5 0 0 1-7.5 7.5H26a7.5 7.5 0 0 1-7.5-7.5V28l.01-.386A7.5 7.5 0 0 1 26 20.5Z"/></g><rect width="241" height="181" x=".5" y=".5" stroke="#d1d1d6" rx="5.5"/><defs><clipPath id="a"><rect width="242" height="182" fill="#fff" rx="6"/></clipPath><clipPath id="c"><path fill="#fff" d="M18 28a8 8 0 0 1 8-8h190a8 8 0 0 1 8 8v126a8 8 0 0 1-8 8H26a8 8 0 0 1-8-8z"/></clipPath><clipPath id="d"><rect width="184" height="117" x="27" y="52" fill="#fff" rx="4"/></clipPath></defs></svg>