<svg xmlns="http://www.w3.org/2000/svg" xmlns:xlink="http://www.w3.org/1999/xlink" width="242" height="182" fill="none" viewBox="0 0 242 182"><g clip-path="url(#a)"><rect width="242" height="182" fill="#f0f0f1" rx="6"/><g opacity=".32"><path id="b" stroke="#d1d1d6" stroke-width=".7" d="M-313.127 182 3.553 0" data-figma-trr="l40u0.05-0f"/><use xlink:href="#b" transform="translate(15.834)"/><use xlink:href="#b" transform="translate(31.668)"/><use xlink:href="#b" transform="translate(47.502)"/><use xlink:href="#b" transform="translate(63.336)"/><use xlink:href="#b" transform="translate(79.17)"/><use xlink:href="#b" transform="translate(95.004)"/><use xlink:href="#b" transform="translate(110.838)"/><use xlink:href="#b" transform="translate(126.672)"/><use xlink:href="#b" transform="translate(142.506)"/><use xlink:href="#b" transform="translate(158.34)"/><use xlink:href="#b" transform="translate(174.174)"/><use xlink:href="#b" transform="translate(190.008)"/><use xlink:href="#b" transform="translate(205.842)"/><use xlink:href="#b" transform="translate(221.676)"/><use xlink:href="#b" transform="translate(237.51)"/><use xlink:href="#b" transform="translate(253.344)"/><use xlink:href="#b" transform="translate(269.178)"/><use xlink:href="#b" transform="translate(285.012)"/><use xlink:href="#b" transform="translate(300.846)"/><use xlink:href="#b" transform="translate(316.68)"/><use xlink:href="#b" transform="translate(332.514)"/><use xlink:href="#b" transform="translate(348.348)"/><use xlink:href="#b" transform="translate(364.182)"/><use xlink:href="#b" transform="translate(380.016)"/><use xlink:href="#b" transform="translate(395.85)"/><use xlink:href="#b" transform="translate(411.684)"/><use xlink:href="#b" transform="translate(427.518)"/><use xlink:href="#b" transform="translate(443.352)"/><use xlink:href="#b" transform="translate(459.186)"/><use xlink:href="#b" transform="translate(475.02)"/><use xlink:href="#b" transform="translate(490.854)"/><use xlink:href="#b" transform="translate(506.688)"/><use xlink:href="#b" transform="translate(522.522)"/><use xlink:href="#b" transform="translate(538.357)"/><use xlink:href="#b" transform="translate(554.191)"/><use xlink:href="#b" transform="translate(570.025)"/><use xlink:href="#b" transform="translate(585.859)"/><use xlink:href="#b" transform="translate(601.693)"/><use xlink:href="#b" transform="translate(617.527)"/></g><path fill="#d9d9de" d="M247 20v.7H-5V20zM247 161.301V162H-5v-.699z"/><path fill="#d9d9de" d="M224.35 182h-.7V1h.7zM18.35 182h-.7V1h.7z"/><path fill="#fff" d="M26 20.5h190a7.5 7.5 0 0 1 7.5 7.5v126a7.5 7.5 0 0 1-7.5 7.5H26a7.5 7.5 0 0 1-7.5-7.5V28l.01-.386A7.5 7.5 0 0 1 26 20.5"/><path stroke="#d1d1d6" d="M26 20.5h190a7.5 7.5 0 0 1 7.5 7.5v126a7.5 7.5 0 0 1-7.5 7.5H26a7.5 7.5 0 0 1-7.5-7.5V28l.01-.386A7.5 7.5 0 0 1 26 20.5Z"/><path fill="#ee6d67" d="M33 31a3 3 0 1 1-6 0 3 3 0 0 1 6 0"/><path fill="#f7bd46" d="M43 31a3 3 0 1 1-6 0 3 3 0 0 1 6 0"/><path fill="#61c45c" d="M53 31a3 3 0 1 1-6 0 3 3 0 0 1 6 0"/><path fill="#f0f0f1" d="M121 41h103v121H121z"/><path fill="#d1d1d6" d="M172.005 90.999c2.166 0 4.126.878 5.544 2.297a7.82 7.82 0 0 1 2.296 5.544s.972 11.276.708 11.556l-.004.001c-.287.297-1.226.602-1.822.602s-.895-.305-1.181-.602c-.276-.285-.537-.553-1.061-.553s-.786.268-1.061.553c-.288.297-.585.602-1.181.602s-.894-.305-1.181-.602c-.275-.285-.536-.553-1.06-.553s-.786.268-1.062.553c-.286.296-.583.602-1.179.602s-.893-.305-1.181-.602c-.277-.283-.538-.553-1.061-.553-.524 0-.785.268-1.061.553-.287.297-.584.602-1.181.602-.596 0-1.534-.305-1.822-.602-.265-.271.701-11.476.708-11.555a7.843 7.843 0 0 1 7.842-7.843m-15.197 12.219h3.035v2.136h-3.035v4.434h-2.454v-4.434h-8.551v-2.295l9.131-12.061h1.874zm38.356 0h3.035v2.136h-3.035v4.434h-2.454v-4.434h-8.551v-2.295l9.131-12.061h1.874zm-23.165-1.946c-.659.001-1.192.759-1.192 1.694s.534 1.693 1.192 1.693c.659 0 1.193-.758 1.193-1.693s-.534-1.694-1.193-1.694m-23.69 1.946h6.045v-7.892h-.054zm38.357 0h6.044v-7.892h-.053zm-17.167-6.91c-.659 0-1.192.759-1.192 1.694s.534 1.693 1.192 1.693c.659 0 1.193-.758 1.193-1.693s-.534-1.693-1.193-1.693m5.002 0c-.659 0-1.192.759-1.192 1.694s.533 1.693 1.192 1.693 1.193-.758 1.193-1.693-.534-1.693-1.193-1.693M223 41v.5H18.5V41z"/><rect width="44" height="5" x="33" y="86" fill="#f0f0f1" rx="2.5"/><rect width="61" height="5" x="33" y="97" fill="#f0f0f1" rx="2.5"/><rect width="30" height="8" x="33" y="108" fill="#1717cc" rx="4"/></g><rect width="241" height="181" x=".5" y=".5" stroke="#d1d1d6" rx="5.5"/><defs><clipPath id="a"><rect width="242" height="182" fill="#fff" rx="6"/></clipPath></defs></svg>