<svg xmlns="http://www.w3.org/2000/svg" xmlns:xlink="http://www.w3.org/1999/xlink" width="242" height="182" fill="none" viewBox="0 0 242 182"><g clip-path="url(#a)"><rect width="242" height="182" fill="#f0f0f1" rx="6"/><g opacity=".32"><path id="b" stroke="#d1d1d6" stroke-width=".7" d="M-313.127 182 3.553 0" data-figma-trr="l40u0.05-0f"/><use xlink:href="#b" transform="translate(15.834)"/><use xlink:href="#b" transform="translate(31.668)"/><use xlink:href="#b" transform="translate(47.502)"/><use xlink:href="#b" transform="translate(63.336)"/><use xlink:href="#b" transform="translate(79.17)"/><use xlink:href="#b" transform="translate(95.004)"/><use xlink:href="#b" transform="translate(110.838)"/><use xlink:href="#b" transform="translate(126.672)"/><use xlink:href="#b" transform="translate(142.506)"/><use xlink:href="#b" transform="translate(158.34)"/><use xlink:href="#b" transform="translate(174.174)"/><use xlink:href="#b" transform="translate(190.008)"/><use xlink:href="#b" transform="translate(205.842)"/><use xlink:href="#b" transform="translate(221.676)"/><use xlink:href="#b" transform="translate(237.51)"/><use xlink:href="#b" transform="translate(253.344)"/><use xlink:href="#b" transform="translate(269.178)"/><use xlink:href="#b" transform="translate(285.012)"/><use xlink:href="#b" transform="translate(300.846)"/><use xlink:href="#b" transform="translate(316.68)"/><use xlink:href="#b" transform="translate(332.514)"/><use xlink:href="#b" transform="translate(348.348)"/><use xlink:href="#b" transform="translate(364.182)"/><use xlink:href="#b" transform="translate(380.016)"/><use xlink:href="#b" transform="translate(395.85)"/><use xlink:href="#b" transform="translate(411.684)"/><use xlink:href="#b" transform="translate(427.518)"/><use xlink:href="#b" transform="translate(443.352)"/><use xlink:href="#b" transform="translate(459.186)"/><use xlink:href="#b" transform="translate(475.02)"/><use xlink:href="#b" transform="translate(490.854)"/><use xlink:href="#b" transform="translate(506.688)"/><use xlink:href="#b" transform="translate(522.522)"/><use xlink:href="#b" transform="translate(538.357)"/><use xlink:href="#b" transform="translate(554.191)"/><use xlink:href="#b" transform="translate(570.025)"/><use xlink:href="#b" transform="translate(585.859)"/><use xlink:href="#b" transform="translate(601.693)"/><use xlink:href="#b" transform="translate(617.527)"/></g><path fill="#d9d9de" d="M247 31v.7H-5V31z"/><path fill="#d9d9de" d="M223.699 182H223V0h.699zM19.35 183h-.7V1h.7z"/><path fill="#d9d9de" d="M247 150.65v.7H-5v-.7z"/><rect width="205" height="119.453" x="18.5" y="31.5" fill="#fff" rx="7.5"/><rect width="205" height="119.453" x="18.5" y="31.5" stroke="#d1d1d6" rx="7.5"/><rect width="81" height="62" x="36" y="64.264" fill="#f0f0f1" rx="4"/><rect width="16" height="16" x="68" y="87.264" fill="#fff" rx="8"/><path fill="#1717cc" d="M78.25 94.83a.5.5 0 0 1 0 .867l-3 1.732a.5.5 0 0 1-.75-.433v-3.464a.5.5 0 0 1 .75-.433z"/><rect width="40" height="12" x="128" y="102.264" fill="#1717cc" rx="6"/><rect width="40" height="6" x="128" y="76.264" fill="#f0f0f1" rx="3"/><rect width="80" height="4" x="128" y="88.264" fill="#f0f0f1" rx="2"/><path stroke="#d1d1d6" d="M18.5 49.764H223"/><path fill="#ee6d67" d="M33 40.264a3 3 0 1 1-6 0 3 3 0 0 1 6 0"/><path fill="#f7bd46" d="M43 40.264a3 3 0 1 1-6 0 3 3 0 0 1 6 0"/><path fill="#61c45c" d="M53 40.264a3 3 0 1 1-6 0 3 3 0 0 1 6 0"/></g><rect width="241" height="181" x=".5" y=".5" stroke="#d1d1d6" rx="5.5"/><defs><clipPath id="a"><rect width="242" height="182" fill="#fff" rx="6"/></clipPath></defs></svg>