<svg width="250" height="160" viewBox="0 0 250 160" fill="none" xmlns="http://www.w3.org/2000/svg">
<rect x="147.5" y="62.5" width="88" height="35" rx="5" fill="#646464"/>
<path d="M163.685 87V73.3636H166.568V78.99H172.421V73.3636H175.297V87H172.421V81.367H166.568V87H163.685ZM190.206 80.1818C190.206 81.6689 189.924 82.9339 189.36 83.9771C188.801 85.0202 188.037 85.817 187.069 86.3675C186.106 86.9134 185.023 87.1864 183.82 87.1864C182.608 87.1864 181.521 86.9112 180.558 86.3608C179.594 85.8104 178.833 85.0136 178.274 83.9704C177.714 82.9273 177.435 81.6644 177.435 80.1818C177.435 78.6948 177.714 77.4297 178.274 76.3865C178.833 75.3434 179.594 74.5488 180.558 74.0028C181.521 73.4524 182.608 73.1772 183.82 73.1772C185.023 73.1772 186.106 73.4524 187.069 74.0028C188.037 74.5488 188.801 75.3434 189.36 76.3865C189.924 77.4297 190.206 78.6948 190.206 80.1818ZM187.282 80.1818C187.282 79.2186 187.138 78.4062 186.85 77.7449C186.566 77.0835 186.164 76.5819 185.645 76.2401C185.125 75.8983 184.517 75.7274 183.82 75.7274C183.123 75.7274 182.515 75.8983 181.996 76.2401C181.476 76.5819 181.072 77.0835 180.784 77.7449C180.5 78.4062 180.358 79.2186 180.358 80.1818C180.358 81.1451 180.5 81.9574 180.784 82.6188C181.072 83.2802 181.476 83.7818 181.996 84.1236C182.515 84.4654 183.123 84.6363 183.82 84.6363C184.517 84.6363 185.125 84.4654 185.645 84.1236C186.164 83.7818 186.566 83.2802 186.85 82.6188C187.138 81.9574 187.282 81.1451 187.282 80.1818ZM192.341 73.3636H195.897L199.652 82.5256H199.812L203.567 73.3636H207.123V87H204.326V78.1244H204.213L200.684 86.9334H198.78L195.251 78.0911H195.138V87H192.341V73.3636ZM209.498 87V73.3636H218.687V75.7407H212.381V78.99H218.214V81.367H212.381V84.623H218.713V87H209.498Z" fill="#E8E8E8"/>
<path d="M140 80L147.5 72.5L147.5 87.5L140 80Z" fill="#646464"/>
<rect x="95" y="60" width="40" height="40" rx="5" fill="#646464"/>
<path fill-rule="evenodd" clip-rule="evenodd" d="M116.229 67.5461C116.417 67.6074 116.581 67.7265 116.697 67.8866C116.814 68.0467 116.876 68.2395 116.876 68.4374V76.2499H123.439C123.612 76.2498 123.781 76.2976 123.929 76.3879C124.076 76.4782 124.196 76.6076 124.275 76.7617C124.353 76.9158 124.387 77.0886 124.374 77.261C124.36 77.4335 124.299 77.5988 124.198 77.7386L114.198 91.4886C114.081 91.6489 113.917 91.7682 113.729 91.8295C113.541 91.8907 113.338 91.8909 113.15 91.8298C112.961 91.7687 112.797 91.6496 112.681 91.4895C112.564 91.3295 112.501 91.1366 112.501 90.9386V83.1261H105.939C105.766 83.1264 105.596 83.0787 105.448 82.9883C105.3 82.8979 105.181 82.7684 105.102 82.6141C105.024 82.4598 104.989 82.2867 105.003 82.1141C105.017 81.9415 105.078 81.776 105.18 81.6361L115.18 67.8861C115.297 67.726 115.461 67.6068 115.649 67.5457C115.838 67.4846 116.041 67.4848 116.229 67.5461Z" fill="#E8E8E8"/>
<rect x="95" y="115" width="40" height="40" rx="5" fill="#A7A7A7"/>
<rect x="95" y="5" width="40" height="40" rx="5" fill="#A7A7A7"/>
<rect x="85" y="40" width="80" height="80" rx="40" fill="#E8E8E8"/>
<path d="M139.001 70.6663H136.667V65.9997C136.667 59.5597 131.441 54.333 125.001 54.333C118.561 54.333 113.334 59.5597 113.334 65.9997V70.6663H111.001C108.434 70.6663 106.334 72.7663 106.334 75.333V98.6663C106.334 101.233 108.434 103.333 111.001 103.333H139.001C141.567 103.333 143.667 101.233 143.667 98.6663V75.333C143.667 72.7663 141.567 70.6663 139.001 70.6663ZM125.001 91.6663C122.434 91.6663 120.334 89.5663 120.334 86.9997C120.334 84.433 122.434 82.333 125.001 82.333C127.567 82.333 129.667 84.433 129.667 86.9997C129.667 89.5663 127.567 91.6663 125.001 91.6663ZM132.234 70.6663H117.767V65.9997C117.767 62.0097 121.011 58.7663 125.001 58.7663C128.991 58.7663 132.234 62.0097 132.234 65.9997V70.6663Z" fill="#6660EF"/>
</svg>
