<svg width="250" height="160" viewBox="0 0 250 160" fill="none" xmlns="http://www.w3.org/2000/svg">
<rect x="146.333" y="60.5557" width="97.3333" height="38.8889" rx="5.55556" fill="#646464"/>
<path d="M164.317 87.5V72.3485H167.52V78.6H174.023V72.3485H177.219V87.5H174.023V81.2411H167.52V87.5H164.317ZM193.784 79.9242C193.784 81.5765 193.471 82.9822 192.844 84.1412C192.223 85.3003 191.375 86.1856 190.299 86.7972C189.229 87.4038 188.026 87.7071 186.689 87.7071C185.343 87.7071 184.134 87.4014 183.064 86.7898C181.994 86.1782 181.148 85.2929 180.526 84.1338C179.905 82.9748 179.594 81.5716 179.594 79.9242C179.594 78.272 179.905 76.8663 180.526 75.7073C181.148 74.5482 181.994 73.6654 183.064 73.0587C184.134 72.4471 185.343 72.1413 186.689 72.1413C188.026 72.1413 189.229 72.4471 190.299 73.0587C191.375 73.6654 192.223 74.5482 192.844 75.7073C193.471 76.8663 193.784 78.272 193.784 79.9242ZM190.536 79.9242C190.536 78.854 190.376 77.9514 190.055 77.2165C189.74 76.4816 189.293 75.9243 188.716 75.5445C188.139 75.1647 187.463 74.9748 186.689 74.9748C185.915 74.9748 185.239 75.1647 184.662 75.5445C184.085 75.9243 183.636 76.4816 183.315 77.2165C183 77.9514 182.842 78.854 182.842 79.9242C182.842 80.9945 183 81.8971 183.315 82.632C183.636 83.3669 184.085 83.9242 184.662 84.304C185.239 84.6838 185.915 84.8736 186.689 84.8736C187.463 84.8736 188.139 84.6838 188.716 84.304C189.293 83.9242 189.74 83.3669 190.055 82.632C190.376 81.8971 190.536 80.9945 190.536 79.9242ZM196.157 72.3485H200.108L204.28 82.5284H204.458L208.63 72.3485H212.581V87.5H209.474V77.6382H209.348L205.427 87.426H203.311L199.39 77.6012H199.264V87.5H196.157V72.3485ZM215.22 87.5V72.3485H225.43V74.9896H218.424V78.6H224.904V81.2411H218.424V84.8588H225.459V87.5H215.22Z" fill="#A7A7A7"/>
<path d="M138 80.0002L146.333 71.6668L146.333 88.3335L138 80.0002Z" fill="#646464"/>
<rect x="96.333" y="5" width="22.2222" height="5.55556" rx="2.77778" fill="#A7A7A7"/>
<rect x="63" y="77" width="69" height="6" rx="3" fill="#646464"/>
<rect x="96.333" y="149.444" width="22.2222" height="5.55556" rx="2.77778" fill="#A7A7A7"/>
<rect x="85" y="40" width="80" height="80" rx="40" fill="#E8E8E8"/>
<path d="M139.001 70.6663H136.667V65.9997C136.667 59.5597 131.441 54.333 125.001 54.333C118.561 54.333 113.334 59.5597 113.334 65.9997V70.6663H111.001C108.434 70.6663 106.334 72.7663 106.334 75.333V98.6663C106.334 101.233 108.434 103.333 111.001 103.333H139.001C141.567 103.333 143.667 101.233 143.667 98.6663V75.333C143.667 72.7663 141.567 70.6663 139.001 70.6663ZM125.001 91.6663C122.434 91.6663 120.334 89.5663 120.334 86.9997C120.334 84.433 122.434 82.333 125.001 82.333C127.567 82.333 129.667 84.433 129.667 86.9997C129.667 89.5663 127.567 91.6663 125.001 91.6663ZM132.234 70.6663H117.767V65.9997C117.767 62.0097 121.011 58.7663 125.001 58.7663C128.991 58.7663 132.234 62.0097 132.234 65.9997V70.6663Z" fill="#6660EF"/>
</svg>
