<svg width="250" height="160" viewBox="0 0 250 160" fill="none" xmlns="http://www.w3.org/2000/svg">
<circle cx="114.75" cy="80" r="8.5" stroke="#646464" stroke-width="3"/>
<circle cx="114.75" cy="145" r="10" fill="#A7A7A7"/>
<circle cx="114.75" cy="15" r="10" fill="#A7A7A7"/>
<rect x="137.25" y="62.5" width="88" height="35" rx="5" fill="#646464"/>
<path d="M153.435 87V73.3636H156.318V78.99H162.171V73.3636H165.047V87H162.171V81.367H156.318V87H153.435ZM179.956 80.1818C179.956 81.6689 179.674 82.9339 179.11 83.9771C178.551 85.0202 177.787 85.817 176.819 86.3675C175.856 86.9134 174.773 87.1864 173.57 87.1864C172.358 87.1864 171.271 86.9112 170.308 86.3608C169.344 85.8104 168.583 85.0136 168.024 83.9704C167.464 82.9273 167.185 81.6644 167.185 80.1818C167.185 78.6948 167.464 77.4297 168.024 76.3865C168.583 75.3434 169.344 74.5488 170.308 74.0028C171.271 73.4524 172.358 73.1772 173.57 73.1772C174.773 73.1772 175.856 73.4524 176.819 74.0028C177.787 74.5488 178.551 75.3434 179.11 76.3865C179.674 77.4297 179.956 78.6948 179.956 80.1818ZM177.032 80.1818C177.032 79.2186 176.888 78.4062 176.6 77.7449C176.316 77.0835 175.914 76.5819 175.395 76.2401C174.875 75.8983 174.267 75.7274 173.57 75.7274C172.873 75.7274 172.265 75.8983 171.746 76.2401C171.226 76.5819 170.822 77.0835 170.534 77.7449C170.25 78.4062 170.108 79.2186 170.108 80.1818C170.108 81.1451 170.25 81.9574 170.534 82.6188C170.822 83.2802 171.226 83.7818 171.746 84.1236C172.265 84.4654 172.873 84.6363 173.57 84.6363C174.267 84.6363 174.875 84.4654 175.395 84.1236C175.914 83.7818 176.316 83.2802 176.6 82.6188C176.888 81.9574 177.032 81.1451 177.032 80.1818ZM182.091 73.3636H185.647L189.402 82.5256H189.562L193.317 73.3636H196.873V87H194.076V78.1244H193.963L190.434 86.9334H188.53L185.001 78.0911H184.888V87H182.091V73.3636ZM199.248 87V73.3636H208.437V75.7407H202.131V78.99H207.964V81.367H202.131V84.623H208.463V87H199.248Z" fill="#E8E8E8"/>
<path d="M129.75 80L137.25 72.5L137.25 87.5L129.75 80Z" fill="#646464"/>
</svg>
