<svg xmlns="http://www.w3.org/2000/svg" width="250" height="160" fill="none"><path fill="#646464" d="M147 68H8c-2 0-3 1-3 3v19c0 1 1 3 3 3h139l3-3V71c0-2-2-3-3-3ZM245 80a34 34 0 1 0-68 0 34 34 0 0 0 68 0Z"/><path fill="#E8E8E8" fill-rule="evenodd" d="M218 79a2 2 0 0 1 0 3l-9 9a2 2 0 1 1-3-3l7-7-7-7a2 2 0 0 1 3-3l9 8Z" clip-rule="evenodd"/><rect width="95" height="95" x="77.5" y="32.5" fill="#E8E8E8" rx="47.5"/><path fill="#6660EF" d="M142 69h-3v-6a14 14 0 0 0-28 0v6h-3c-3 0-5 2-5 5v28c0 3 2 6 5 6h34c3 0 5-3 5-6V74c0-3-2-5-5-5Zm-17 25c-3 0-6-3-6-6s3-5 6-5 6 2 6 5-3 6-6 6Zm9-25h-18v-6a9 9 0 0 1 18 0v6Z"/></svg>