<svg xmlns="http://www.w3.org/2000/svg" width="250" height="160" fill="none"><path fill="#E8E8E8" d="M5 5h240v150H5V5Z"/><path stroke="#646464" stroke-width="12" d="M104 23h42"/><path stroke="#A7A7A7" stroke-width="6" d="M106 67h38"/><path stroke="#A7A7A7" stroke-width="3" d="M55 94h49m-49 18h49m-49 18h49"/><path fill="#646464" d="M103 50v-3l-2-2-1-2 1-3 2-1v-1h2v1l2 1 1 2-2 1-1-2v4l3 1v2l-1 3-2 1v2h-2v-1l-2-2-1-2 2-1 1 2Zm0-9a2 2 0 0 0-1 2l1 1v-3Zm2 10 1-1v-2l-1-1v4Zm14-12 3 2 1 5-1 5-3 2-3-2-1-5 1-5 3-2Zm0 2-1 1v8h2l1-1v-6l-1-1-1-1Zm7 11v-2h2v2h-2Zm8-13 3 2 1 5-1 5-3 2-3-2-1-5 1-5 3-2Zm0 2-1 1v8h2l1-1v-6l-1-1-1-1Zm10-2 3 2 1 5-1 5-3 2-3-2-1-5 1-5 3-2Zm0 2-1 1v8h2l1-1v-6l-1-1-1-1Z"/><path stroke="#A7A7A7" stroke-width=".6" d="M226 80H23l-1 2v60l1 1h203l1-1V82l-1-2Z"/><path fill="#646464" d="M41 98a4 4 0 1 1 2-7h-1a3 3 0 1 0 2 3h1a4 4 0 0 1-4 4Z"/><path fill="#646464" d="m41 95-2-2h1l1 2 4-4-4 4ZM41 116a4 4 0 1 1 2-7h-1a3 3 0 1 0 2 3v-1l1 1a4 4 0 0 1-4 4Z"/><path fill="#646464" d="m41 113-2-2h1l1 1 4-4v1l-4 4ZM41 134a4 4 0 1 1 2-8l-1 1a3 3 0 1 0 2 2h1v1a4 4 0 0 1-4 4Z"/><path fill="#646464" d="m41 131-2-2v-1h1l1 2 4-4-4 5Z"/></svg>