<svg xmlns="http://www.w3.org/2000/svg" width="250" height="160" fill="none"><path fill="#E8E8E8" d="M5 5h240v150H5V5Z"/><path stroke="#888" stroke-width="1.3" d="M227 17H23v63h204V17Z"/><path stroke="#888" stroke-width="2.6" d="M65 102h42m-42 15h42m-42 16h42"/><path stroke="#888" stroke-width="1.3" d="M211 91H37v53h174l1-1V91h-1Z"/><path fill="#888" d="M52 106a3 3 0 1 1 2-7v1a3 3 0 1 0 1 2h1a3 3 0 0 1-1 3l-3 1Z"/><path fill="#888" d="m53 103-2-1v-1h1l1 2 3-4v1l-3 3ZM52 121a3 3 0 1 1 2-6 3 3 0 1 0 1 2h1v1a3 3 0 0 1-4 3Z"/><path fill="#888" d="m53 118-2-1v-1h1l1 2 3-4v1l-3 3ZM52 136a3 3 0 1 1 2-6 3 3 0 1 0 1 2h1v1a3 3 0 0 1-4 3Z"/><path fill="#888" d="m53 133-2-1h1l1 1 3-3h1-1l-3 3Z"/><path stroke="#888" stroke-width="7.7" d="M107 31h36"/><path stroke="#D5D5D5" stroke-width="2.6" d="M109 66h32"/><path fill="#646464" d="M103 52v-4l-2-1-1-3 1-2 2-1v-1h2v1l2 1 1 2h-2l-1-1v3l2 2 1 2-1 3-2 1v2h-2v-2l-2-1-1-3h2v1l1 1Zm0-9a2 2 0 0 0-1 1v1l1 1v-3Zm2 9h1a2 2 0 0 0 0-3h-1v3Zm14-11 3 1 1 6-1 5-3 1-3-1-1-5 1-6 3-1Zm0 2h-1v1l-1 4 1 3v1h2v-1l1-3-1-3v-2h-1Zm6 11v-2h3v2h-3Zm9-13 3 1 1 6-1 5-3 1-3-1-1-5 1-6 3-1Zm0 2h-1v1l-1 4 1 3v1h2v-1l1-3-1-3v-2h-1Zm10-2 3 1 1 6-1 5-3 1-3-1-1-5 1-6 3-1Zm0 2h-1v1l-1 4 1 3v1h2v-1l1-3-1-3v-2h-1Z"/><rect width="95" height="95" x="77.5" y="32.5" fill="#A7A7A7" rx="47.5"/><path fill="#6660EF" d="M142 69h-3v-6a14 14 0 0 0-28 0v6h-3c-3 0-5 2-5 5v28c0 3 2 6 5 6h34c3 0 5-3 5-6V74c0-3-2-5-5-5Zm-17 25c-3 0-6-3-6-6s3-5 6-5 6 2 6 5-3 6-6 6Zm9-25h-18v-6a9 9 0 0 1 18 0v6Z"/></svg>