<svg width="250" height="160" viewBox="0 0 250 160" fill="none" xmlns="http://www.w3.org/2000/svg">
<path d="M100.463 100.37C102.672 100.37 104.463 102.161 104.463 104.37V126C104.463 128.209 102.672 130 100.463 130H77.9072C75.6982 130 73.9075 128.209 73.9072 126V104.37C73.9072 102.161 75.6981 100.37 77.9072 100.37H100.463ZM135.648 100.37C137.857 100.37 139.648 102.161 139.648 104.37V126C139.648 128.209 137.857 130 135.648 130H114.019C111.809 130 110.019 128.209 110.019 126V104.37C110.019 102.161 111.809 100.37 114.019 100.37H135.648ZM171.761 100.37C173.97 100.37 175.761 102.161 175.761 104.37V126C175.761 128.209 173.97 130 171.761 130H149.205C146.996 130 145.205 128.209 145.205 126V104.37C145.205 102.161 146.996 100.37 149.205 100.37H171.761ZM100.463 65.1855C102.672 65.1856 104.463 66.9765 104.463 69.1855V90.8154C104.463 93.0244 102.672 94.8154 100.463 94.8154H77.9072C75.6982 94.8154 73.9074 93.0244 73.9072 90.8154V69.1855C73.9072 66.9764 75.6981 65.1855 77.9072 65.1855H100.463ZM135.648 65.1855C137.857 65.1857 139.648 66.9765 139.648 69.1855V90.8154C139.648 93.0244 137.857 94.8153 135.648 94.8154H114.019C111.809 94.8154 110.019 93.0245 110.019 90.8154V69.1855C110.019 66.9764 111.809 65.1855 114.019 65.1855H135.648ZM171.761 65.1855C173.97 65.1857 175.761 66.9765 175.761 69.1855V90.8154C175.761 93.0243 173.97 94.8153 171.761 94.8154H149.205C146.996 94.8154 145.205 93.0244 145.205 90.8154V69.1855C145.205 66.9764 146.996 65.1855 149.205 65.1855H171.761ZM100.463 30C102.672 30.0001 104.463 31.7909 104.463 34V55.6299C104.463 57.8389 102.672 59.6298 100.463 59.6299H77.9072C75.6982 59.6299 73.9074 57.8389 73.9072 55.6299V34C73.9072 31.7909 75.6981 30 77.9072 30H100.463ZM135.648 30C137.857 30.0001 139.648 31.7909 139.648 34V55.6299C139.648 57.8388 137.857 59.6297 135.648 59.6299H114.019C111.809 59.6299 110.019 57.8389 110.019 55.6299V34C110.019 31.7909 111.809 30 114.019 30H135.648ZM171.761 30C173.97 30.0002 175.761 31.791 175.761 34V55.6299C175.761 57.8388 173.97 59.6297 171.761 59.6299H149.205C146.996 59.6299 145.205 57.8389 145.205 55.6299V34C145.205 31.7909 146.996 30 149.205 30H171.761Z" fill="#989898"/>
</svg>
