<svg width="250" height="160" viewBox="0 0 250 160" fill="none" xmlns="http://www.w3.org/2000/svg">
<g clip-path="url(#clip0_2772_569)">
<path d="M26.1992 15.3999H121.199V76.1999C121.199 78.9982 118.931 81.2666 116.133 81.2666H31.2659C28.4676 81.2666 26.1992 78.9981 26.1992 76.1999V15.3999Z" fill="#D5D5D5"/>
<path d="M128.801 15.3999H223.801V76.1999C223.801 78.9982 221.532 81.2666 218.734 81.2666H133.867C131.069 81.2666 128.801 78.9981 128.801 76.1999V15.3999Z" fill="#D5D5D5"/>
<rect x="64.1992" y="96.4668" width="119.067" height="32.9333" rx="5.06667" fill="#989898"/>
<path d="M80.5884 119.067V108.012H82.5909V117.388H87.4597V119.067H80.5884ZM98.6451 113.54C98.6451 114.731 98.422 115.751 97.9758 116.6C97.5332 117.446 96.9287 118.094 96.1622 118.543C95.3993 118.993 94.5339 119.218 93.5659 119.218C92.5979 119.218 91.7306 118.993 90.9642 118.543C90.2013 118.09 89.5967 117.44 89.1505 116.595C88.7079 115.745 88.4866 114.727 88.4866 113.54C88.4866 112.349 88.7079 111.33 89.1505 110.485C89.5967 109.635 90.2013 108.986 90.9642 108.536C91.7306 108.086 92.5979 107.861 93.5659 107.861C94.5339 107.861 95.3993 108.086 96.1622 108.536C96.9287 108.986 97.5332 109.635 97.9758 110.485C98.422 111.33 98.6451 112.349 98.6451 113.54ZM96.6318 113.54C96.6318 112.701 96.5004 111.994 96.2377 111.418C95.9787 110.839 95.6188 110.402 95.1582 110.107C94.6976 109.808 94.1668 109.659 93.5659 109.659C92.9649 109.659 92.4342 109.808 91.9735 110.107C91.5129 110.402 91.1513 110.839 90.8886 111.418C90.6295 111.994 90.5 112.701 90.5 113.54C90.5 114.378 90.6295 115.087 90.8886 115.666C91.1513 116.242 91.5129 116.679 91.9735 116.978C92.4342 117.273 92.9649 117.421 93.5659 117.421C94.1668 117.421 94.6976 117.273 95.1582 116.978C95.6188 116.679 95.9787 116.242 96.2377 115.666C96.5004 115.087 96.6318 114.378 96.6318 113.54ZM101.364 119.067H99.2267L103.119 108.012H105.591L109.488 119.067H107.35L104.398 110.279H104.311L101.364 119.067ZM101.434 114.733H107.264V116.341H101.434V114.733ZM114.69 119.067H110.944V108.012H114.765C115.863 108.012 116.806 108.234 117.594 108.676C118.386 109.115 118.994 109.747 119.418 110.571C119.843 111.395 120.055 112.381 120.055 113.529C120.055 114.68 119.841 115.67 119.413 116.498C118.988 117.325 118.375 117.96 117.572 118.403C116.773 118.846 115.813 119.067 114.69 119.067ZM112.946 117.334H114.593C115.363 117.334 116.005 117.194 116.52 116.913C117.034 116.629 117.421 116.206 117.68 115.645C117.939 115.08 118.069 114.374 118.069 113.529C118.069 112.683 117.939 111.981 117.68 111.424C117.421 110.862 117.038 110.443 116.531 110.166C116.027 109.885 115.401 109.745 114.652 109.745H112.946V117.334ZM125.728 108.012H128.179L131.461 116.023H131.59L134.872 108.012H137.323V119.067H135.401V111.472H135.298L132.243 119.035H130.807L127.752 111.456H127.65V119.067H125.728V108.012ZM149.381 113.54C149.381 114.731 149.158 115.751 148.712 116.6C148.269 117.446 147.665 118.094 146.898 118.543C146.135 118.993 145.27 119.218 144.302 119.218C143.334 119.218 142.467 118.993 141.7 118.543C140.937 118.09 140.333 117.44 139.886 116.595C139.444 115.745 139.223 114.727 139.223 113.54C139.223 112.349 139.444 111.33 139.886 110.485C140.333 109.635 140.937 108.986 141.7 108.536C142.467 108.086 143.334 107.861 144.302 107.861C145.27 107.861 146.135 108.086 146.898 108.536C147.665 108.986 148.269 109.635 148.712 110.485C149.158 111.33 149.381 112.349 149.381 113.54ZM147.368 113.54C147.368 112.701 147.236 111.994 146.974 111.418C146.715 110.839 146.355 110.402 145.894 110.107C145.434 109.808 144.903 109.659 144.302 109.659C143.701 109.659 143.17 109.808 142.709 110.107C142.249 110.402 141.887 110.839 141.625 111.418C141.365 111.994 141.236 112.701 141.236 113.54C141.236 114.378 141.365 115.087 141.625 115.666C141.887 116.242 142.249 116.679 142.709 116.978C143.17 117.273 143.701 117.421 144.302 117.421C144.903 117.421 145.434 117.273 145.894 116.978C146.355 116.679 146.715 116.242 146.974 115.666C147.236 115.087 147.368 114.378 147.368 113.54ZM151.274 119.067V108.012H155.42C156.269 108.012 156.982 108.16 157.557 108.455C158.137 108.75 158.574 109.164 158.869 109.696C159.168 110.225 159.317 110.843 159.317 111.548C159.317 112.257 159.166 112.872 158.864 113.394C158.565 113.912 158.124 114.313 157.541 114.598C156.958 114.878 156.242 115.019 155.393 115.019H152.44V113.356H155.123C155.619 113.356 156.026 113.288 156.343 113.151C156.659 113.011 156.893 112.807 157.044 112.541C157.199 112.271 157.277 111.94 157.277 111.548C157.277 111.156 157.199 110.821 157.044 110.544C156.89 110.263 156.654 110.051 156.337 109.907C156.021 109.759 155.612 109.686 155.112 109.686H153.277V119.067H151.274ZM156.985 114.058L159.722 119.067H157.487L154.799 114.058H156.985ZM161.16 119.067V108.012H168.35V109.691H163.163V112.692H167.978V114.371H163.163V117.388H168.393V119.067H161.16Z" fill="#F0F0F0"/>
</g>
<rect x="12.2667" y="16.6666" width="225.467" height="126.667" rx="3.8" stroke="#D5D5D5" stroke-width="2.53333"/>
<defs>
<clipPath id="clip0_2772_569">
<rect x="11" y="15.3999" width="228" height="129.2" rx="5.06667" fill="white"/>
</clipPath>
</defs>
</svg>
