<svg width="250" height="160" viewBox="0 0 250 160" fill="none" xmlns="http://www.w3.org/2000/svg">
<path d="M168 103.667C169.657 103.667 171 105.009 171 106.666V137.666C171 139.323 169.657 140.667 168 140.667H147C145.343 140.667 144 139.324 144 137.667V106.667C144 105.01 145.343 103.667 147 103.667H168ZM104 98C105.657 98 107 99.3431 107 101V132C107 133.657 105.657 135 104 135H83C81.3431 135 80 133.657 80 132V101C80 99.3431 81.3431 98 83 98H104ZM136 103.667C137.657 103.667 139 105.01 139 106.667V127.333C139 128.99 137.657 130.333 136 130.333H115C113.343 130.333 112 128.99 112 127.333V106.666C112 105.009 113.343 103.667 115 103.667H136ZM136 61.667C137.657 61.667 139 63.0094 139 64.666V95.666C139 97.3229 137.657 98.667 136 98.667H115C113.343 98.667 112 97.3236 112 95.667V64.667C112 63.0101 113.343 61.667 115 61.667H136ZM168 72C169.657 72 171 73.3431 171 75V95.667C171 97.3237 169.657 98.667 168 98.667H147C145.343 98.667 144 97.3237 144 95.667V75C144 73.3431 145.343 72 147 72H168ZM104 30C105.657 30 107 31.3431 107 33V90C107 91.6569 105.657 93 104 93H83C81.3431 93 80 91.6569 80 90V33C80 31.3431 81.3431 30 83 30H104ZM168 30C169.657 30 171 31.3431 171 33V64C171 65.6569 169.657 67 168 67H148C146.343 67 145 65.6569 145 64V33C145 31.3431 146.343 30 148 30H168ZM136 30C137.657 30 139 31.3431 139 33V53.667C139 55.3237 137.657 56.667 136 56.667H115C113.343 56.667 112 55.3237 112 53.667V33C112 31.3431 113.343 30 115 30H136Z" fill="url(#paint0_linear_2757_861)"/>
<defs>
<linearGradient id="paint0_linear_2757_861" x1="130" y1="30" x2="130" y2="131" gradientUnits="userSpaceOnUse">
<stop stop-color="#989898"/>
<stop offset="1" stop-color="#989898" stop-opacity="0"/>
</linearGradient>
</defs>
</svg>
