<svg width="250" height="160" viewBox="0 0 250 160" fill="none" xmlns="http://www.w3.org/2000/svg">
<path d="M117.368 30C120.13 30 122.368 32.2386 122.368 35V125C122.368 127.761 120.13 130 117.368 130H80C77.2386 130 75 127.761 75 125V35C75 32.2386 77.2386 30 80 30H117.368ZM170 82.6318C172.761 82.6318 175 84.8704 175 87.6318V125C175 127.761 172.761 130 170 130H132.632C129.87 130 127.632 127.761 127.632 125V87.6318C127.632 84.8704 129.87 82.6319 132.632 82.6318H170ZM170 30C172.761 30 175 32.2386 175 35V72.3682C175 75.1296 172.761 77.3682 170 77.3682H132.632C129.87 77.3681 127.632 75.1296 127.632 72.3682V35C127.632 32.2386 129.87 30.0001 132.632 30H170Z" fill="#989898"/>
</svg>
