<svg width="250" height="160" viewBox="0 0 250 160" fill="none" xmlns="http://www.w3.org/2000/svg">
<g clip-path="url(#clip0_2861_549)">
<path d="M25.333 14.8335H121.166V76.1668C121.166 78.9896 118.878 81.2779 116.055 81.2779H30.4441C27.6213 81.2779 25.333 78.9896 25.333 76.1668V14.8335Z" fill="#A7A7A7"/>
<path d="M128.834 14.8335H224.667V76.1668C224.667 78.9896 222.379 81.2779 219.556 81.2779H133.945C131.122 81.2779 128.834 78.9896 128.834 76.1668V14.8335Z" fill="#A7A7A7"/>
<rect x="25.9719" y="97.2502" width="31.9444" height="31.9444" rx="4.47222" fill="#E8E8E8"/>
<rect x="25.9719" y="97.2502" width="31.9444" height="31.9444" rx="4.47222" stroke="#A7A7A7" stroke-width="1.27778"/>
<g clip-path="url(#clip1_2861_549)">
<path fill-rule="evenodd" clip-rule="evenodd" d="M38.0505 112.207C37.7813 112.476 37.6301 112.842 37.6301 113.222C37.6301 113.603 37.7813 113.969 38.0505 114.238L43.4709 119.661C43.7405 119.93 44.1062 120.081 44.4875 120.081C44.8688 120.081 45.2344 119.93 45.504 119.66C45.7735 119.39 45.9249 119.025 45.9248 118.643C45.9247 118.262 45.7732 117.897 45.5035 117.627L41.099 113.222L45.5035 108.818C45.7655 108.547 45.9105 108.184 45.9074 107.807C45.9044 107.43 45.7533 107.07 45.4869 106.803C45.2205 106.536 44.8601 106.385 44.4832 106.381C44.1063 106.378 43.7431 106.523 43.4718 106.784L38.0496 112.206L38.0505 112.207Z" fill="#A7A7A7"/>
</g>
<rect x="66.8606" y="97.2502" width="31.9444" height="31.9444" rx="4.47222" fill="#E8E8E8"/>
<rect x="66.8606" y="97.2502" width="31.9444" height="31.9444" rx="4.47222" stroke="#A7A7A7" stroke-width="1.27778"/>
<path d="M84.8441 108.127V119.278H82.824V110.092H82.7587L80.1505 111.759V109.907L82.922 108.127H84.8441Z" fill="#A7A7A7"/>
<rect x="107.11" y="96.6113" width="33.2222" height="33.2222" rx="5.11111" fill="#646464"/>
<path d="M119.841 119.278V117.819L123.712 114.024C124.082 113.65 124.391 113.318 124.638 113.027C124.885 112.737 125.07 112.456 125.193 112.183C125.317 111.911 125.378 111.621 125.378 111.312C125.378 110.96 125.298 110.659 125.139 110.408C124.979 110.154 124.759 109.958 124.48 109.82C124.2 109.682 123.883 109.613 123.527 109.613C123.16 109.613 122.839 109.69 122.563 109.842C122.287 109.991 122.073 110.203 121.921 110.479C121.772 110.755 121.697 111.083 121.697 111.465H119.775C119.775 110.757 119.937 110.141 120.26 109.619C120.583 109.096 121.028 108.691 121.594 108.405C122.164 108.118 122.817 107.974 123.554 107.974C124.302 107.974 124.959 108.114 125.525 108.394C126.092 108.673 126.531 109.056 126.843 109.543C127.159 110.029 127.317 110.584 127.317 111.209C127.317 111.626 127.237 112.036 127.077 112.439C126.917 112.842 126.636 113.289 126.233 113.779C125.834 114.269 125.273 114.862 124.551 115.559L122.628 117.514V117.59H127.485V119.278H119.841Z" fill="#E8E8E8"/>
<rect x="148.639" y="97.2502" width="31.9444" height="31.9444" rx="4.47222" fill="#E8E8E8"/>
<rect x="148.639" y="97.2502" width="31.9444" height="31.9444" rx="4.47222" stroke="#A7A7A7" stroke-width="1.27778"/>
<path d="M164.5 119.431C163.716 119.431 163.019 119.296 162.409 119.028C161.803 118.759 161.324 118.385 160.972 117.906C160.62 117.427 160.433 116.873 160.411 116.245H162.458C162.477 116.547 162.576 116.81 162.758 117.035C162.939 117.256 163.181 117.429 163.482 117.552C163.783 117.676 164.121 117.737 164.495 117.737C164.894 117.737 165.248 117.668 165.557 117.53C165.865 117.389 166.107 117.193 166.281 116.942C166.455 116.692 166.54 116.403 166.537 116.077C166.54 115.739 166.453 115.441 166.275 115.184C166.098 114.926 165.84 114.724 165.502 114.579C165.168 114.434 164.765 114.361 164.293 114.361H163.308V112.804H164.293C164.682 112.804 165.021 112.737 165.312 112.603C165.606 112.468 165.836 112.28 166.003 112.036C166.17 111.79 166.252 111.505 166.248 111.181C166.252 110.866 166.181 110.592 166.036 110.359C165.894 110.123 165.693 109.94 165.431 109.809C165.174 109.679 164.871 109.613 164.522 109.613C164.181 109.613 163.865 109.675 163.575 109.798C163.284 109.922 163.05 110.098 162.872 110.327C162.694 110.552 162.6 110.82 162.589 111.132H160.645C160.66 110.508 160.839 109.96 161.184 109.488C161.533 109.013 161.997 108.642 162.578 108.377C163.159 108.109 163.811 107.974 164.533 107.974C165.277 107.974 165.923 108.114 166.471 108.394C167.023 108.669 167.45 109.042 167.751 109.51C168.052 109.978 168.203 110.495 168.203 111.062C168.207 111.69 168.021 112.216 167.648 112.641C167.277 113.065 166.791 113.343 166.188 113.474V113.561C166.972 113.67 167.573 113.96 167.991 114.432C168.412 114.9 168.62 115.483 168.617 116.18C168.617 116.804 168.439 117.363 168.083 117.857C167.731 118.347 167.245 118.732 166.624 119.012C166.007 119.291 165.299 119.431 164.5 119.431Z" fill="#A7A7A7"/>
<rect x="189.528" y="97.2502" width="31.9444" height="31.9444" rx="4.47222" fill="#E8E8E8"/>
<rect x="189.528" y="97.2502" width="31.9444" height="31.9444" rx="4.47222" stroke="#A7A7A7" stroke-width="1.27778"/>
<g clip-path="url(#clip2_2861_549)">
<path fill-rule="evenodd" clip-rule="evenodd" d="M209.391 112.207C209.66 112.476 209.811 112.842 209.811 113.222C209.811 113.603 209.66 113.969 209.391 114.238L203.971 119.661C203.701 119.93 203.335 120.081 202.954 120.081C202.573 120.081 202.207 119.93 201.937 119.66C201.668 119.39 201.517 119.025 201.517 118.643C201.517 118.262 201.668 117.897 201.938 117.627L206.342 113.222L201.938 108.818C201.676 108.547 201.531 108.184 201.534 107.807C201.537 107.43 201.688 107.07 201.954 106.803C202.221 106.536 202.581 106.385 202.958 106.381C203.335 106.378 203.698 106.523 203.97 106.784L209.392 112.206L209.391 112.207Z" fill="#A7A7A7"/>
</g>
</g>
<rect x="11.2778" y="16.1113" width="227.444" height="127.778" rx="3.83333" stroke="#A7A7A7" stroke-width="2.55556"/>
<rect x="100" y="55" width="50" height="50" rx="25" fill="#E8E8E8"/>
<path d="M133.751 74.1663H132.292V71.2497C132.292 67.2247 129.026 63.958 125.001 63.958C120.976 63.958 117.709 67.2247 117.709 71.2497V74.1663H116.251C114.646 74.1663 113.334 75.4788 113.334 77.083V91.6663C113.334 93.2705 114.646 94.583 116.251 94.583H133.751C135.355 94.583 136.667 93.2705 136.667 91.6663V77.083C136.667 75.4788 135.355 74.1663 133.751 74.1663ZM125.001 87.2913C123.396 87.2913 122.084 85.9788 122.084 84.3747C122.084 82.7705 123.396 81.458 125.001 81.458C126.605 81.458 127.917 82.7705 127.917 84.3747C127.917 85.9788 126.605 87.2913 125.001 87.2913ZM129.521 74.1663H120.48V71.2497C120.48 68.7559 122.507 66.7288 125.001 66.7288C127.494 66.7288 129.521 68.7559 129.521 71.2497V74.1663Z" fill="#6660EF"/>
<defs>
<clipPath id="clip0_2861_549">
<rect x="10" y="14.8335" width="230" height="130.333" rx="5.11111" fill="white"/>
</clipPath>
<clipPath id="clip1_2861_549">
<rect width="23" height="23" fill="white" transform="matrix(-1 0 0 1 53.4434 101.723)"/>
</clipPath>
<clipPath id="clip2_2861_549">
<rect width="23" height="23" fill="white" transform="translate(194.002 101.723)"/>
</clipPath>
</defs>
</svg>
