<svg width="150" height="36" viewBox="0 0 150 36" fill="none" xmlns="http://www.w3.org/2000/svg">
<path d="M36 16.4633L24.5182 30L18 24.0387L11.4817 30L0 16.4633L6.51825 10.502L13.6644 18.9161V6H22.3356V18.9161L29.4818 10.502L33.6379 14.2897L36 16.4633Z" fill="#C22076"/>
<path d="M44.176 27V23.688H48.376C49.4 23.688 50.296 23.488 51.064 23.088C51.832 22.672 52.424 22.072 52.84 21.288C53.256 20.504 53.464 19.576 53.464 18.504C53.464 17.432 53.248 16.512 52.816 15.744C52.4 14.976 51.808 14.384 51.04 13.968C50.288 13.552 49.4 13.344 48.376 13.344H44.056V10.056H48.424C49.704 10.056 50.88 10.264 51.952 10.68C53.04 11.08 53.984 11.664 54.784 12.432C55.6 13.184 56.224 14.08 56.656 15.12C57.104 16.144 57.328 17.28 57.328 18.528C57.328 19.76 57.104 20.896 56.656 21.936C56.224 22.976 55.608 23.872 54.808 24.624C54.008 25.376 53.064 25.96 51.976 26.376C50.904 26.792 49.736 27 48.472 27H44.176ZM41.632 27V10.056H45.4V27H41.632ZM65.1497 27.264C63.8858 27.264 62.7578 27.008 61.7658 26.496C60.7898 25.968 60.0218 25.24 59.4618 24.312C58.9018 23.384 58.6218 22.336 58.6218 21.168C58.6218 20 58.8938 18.96 59.4378 18.048C59.9978 17.12 60.7498 16.392 61.6938 15.864C62.6378 15.336 63.7018 15.072 64.8858 15.072C66.0378 15.072 67.0538 15.32 67.9338 15.816C68.8138 16.312 69.5018 17 69.9978 17.88C70.5098 18.76 70.7657 19.768 70.7657 20.904C70.7657 21.112 70.7498 21.336 70.7178 21.576C70.7018 21.8 70.6618 22.064 70.5978 22.368L60.5418 22.392V19.872L69.0378 19.848L67.4538 20.904C67.4378 20.232 67.3338 19.68 67.1418 19.248C66.9498 18.8 66.6618 18.464 66.2778 18.24C65.9098 18 65.4538 17.88 64.9098 17.88C64.3338 17.88 63.8298 18.016 63.3978 18.288C62.9818 18.544 62.6538 18.912 62.4138 19.392C62.1898 19.872 62.0778 20.456 62.0778 21.144C62.0778 21.832 62.1978 22.424 62.4378 22.92C62.6938 23.4 63.0458 23.776 63.4938 24.048C63.9578 24.304 64.5018 24.432 65.1258 24.432C65.7018 24.432 66.2218 24.336 66.6858 24.144C67.1498 23.936 67.5578 23.632 67.9098 23.232L69.9258 25.248C69.3498 25.92 68.6538 26.424 67.8378 26.76C67.0218 27.096 66.1258 27.264 65.1497 27.264ZM76.7862 27.288C76.0982 27.288 75.4182 27.2 74.7462 27.024C74.0902 26.848 73.4742 26.6 72.8982 26.28C72.3382 25.944 71.8582 25.56 71.4582 25.128L73.5462 23.016C73.9302 23.432 74.3862 23.76 74.9142 24C75.4422 24.224 76.0182 24.336 76.6422 24.336C77.0742 24.336 77.4022 24.272 77.6262 24.144C77.8662 24.016 77.9862 23.84 77.9862 23.616C77.9862 23.328 77.8422 23.112 77.5542 22.968C77.2822 22.808 76.9302 22.672 76.4982 22.56C76.0662 22.432 75.6102 22.296 75.1302 22.152C74.6502 22.008 74.1942 21.808 73.7622 21.552C73.3302 21.296 72.9782 20.944 72.7062 20.496C72.4342 20.032 72.2982 19.448 72.2982 18.744C72.2982 17.992 72.4902 17.344 72.8742 16.8C73.2582 16.24 73.8022 15.8 74.5062 15.48C75.2102 15.16 76.0342 15 76.9782 15C77.9702 15 78.8822 15.176 79.7142 15.528C80.5622 15.864 81.2502 16.368 81.7782 17.04L79.6902 19.152C79.3222 18.72 78.9062 18.416 78.4422 18.24C77.9942 18.064 77.5542 17.976 77.1222 17.976C76.7062 17.976 76.3942 18.04 76.1862 18.168C75.9782 18.28 75.8742 18.448 75.8742 18.672C75.8742 18.912 76.0102 19.104 76.2822 19.248C76.5542 19.392 76.9062 19.52 77.3382 19.632C77.7702 19.744 78.2262 19.88 78.7062 20.04C79.1862 20.2 79.6422 20.416 80.0742 20.688C80.5062 20.96 80.8582 21.328 81.1302 21.792C81.4022 22.24 81.5382 22.832 81.5382 23.568C81.5382 24.704 81.1062 25.608 80.2422 26.28C79.3942 26.952 78.2422 27.288 76.7862 27.288ZM83.5304 27V15.336H87.2024V27H83.5304ZM85.3784 13.728C84.8024 13.728 84.3224 13.536 83.9384 13.152C83.5704 12.752 83.3864 12.272 83.3864 11.712C83.3864 11.136 83.5704 10.656 83.9384 10.272C84.3224 9.888 84.8024 9.696 85.3784 9.696C85.9544 9.696 86.4264 9.888 86.7944 10.272C87.1624 10.656 87.3464 11.136 87.3464 11.712C87.3464 12.272 87.1624 12.752 86.7944 13.152C86.4264 13.536 85.9544 13.728 85.3784 13.728ZM94.7322 32.232C93.4522 32.232 92.3242 32.008 91.3482 31.56C90.3882 31.128 89.6282 30.512 89.0682 29.712L91.3242 27.456C91.7402 27.952 92.2042 28.328 92.7162 28.584C93.2442 28.84 93.8762 28.968 94.6122 28.968C95.5242 28.968 96.2362 28.744 96.7482 28.296C97.2762 27.848 97.5402 27.216 97.5402 26.4V23.424L98.1642 20.88L97.6122 18.336V15.336H101.212V26.304C101.212 27.504 100.932 28.544 100.372 29.424C99.8122 30.304 99.0442 30.992 98.0682 31.488C97.0922 31.984 95.9802 32.232 94.7322 32.232ZM94.5642 26.64C93.4922 26.64 92.5402 26.384 91.7082 25.872C90.8762 25.36 90.2202 24.664 89.7402 23.784C89.2602 22.904 89.0202 21.928 89.0202 20.856C89.0202 19.768 89.2602 18.792 89.7402 17.928C90.2202 17.048 90.8762 16.36 91.7082 15.864C92.5402 15.352 93.4922 15.096 94.5642 15.096C95.3642 15.096 96.0762 15.248 96.7002 15.552C97.3402 15.84 97.8522 16.256 98.2362 16.8C98.6362 17.328 98.8602 17.944 98.9082 18.648V23.088C98.8602 23.776 98.6362 24.392 98.2362 24.936C97.8522 25.464 97.3402 25.88 96.7002 26.184C96.0602 26.488 95.3482 26.64 94.5642 26.64ZM95.2602 23.376C95.7722 23.376 96.2122 23.264 96.5802 23.04C96.9642 22.816 97.2522 22.52 97.4442 22.152C97.6522 21.768 97.7562 21.336 97.7562 20.856C97.7562 20.376 97.6522 19.944 97.4442 19.56C97.2522 19.176 96.9642 18.872 96.5802 18.648C96.2122 18.424 95.7722 18.312 95.2602 18.312C94.7642 18.312 94.3242 18.424 93.9402 18.648C93.5562 18.872 93.2602 19.176 93.0522 19.56C92.8442 19.944 92.7402 20.376 92.7402 20.856C92.7402 21.304 92.8442 21.728 93.0522 22.128C93.2602 22.512 93.5482 22.816 93.9162 23.04C94.3002 23.264 94.7482 23.376 95.2602 23.376ZM111.508 27V20.352C111.508 19.744 111.316 19.256 110.932 18.888C110.564 18.504 110.092 18.312 109.516 18.312C109.116 18.312 108.764 18.4 108.46 18.576C108.156 18.736 107.916 18.976 107.74 19.296C107.564 19.6 107.476 19.952 107.476 20.352L106.06 19.656C106.06 18.744 106.26 17.944 106.66 17.256C107.06 16.568 107.612 16.04 108.316 15.672C109.036 15.288 109.844 15.096 110.74 15.096C111.604 15.096 112.364 15.304 113.02 15.72C113.692 16.12 114.22 16.656 114.604 17.328C114.988 18 115.18 18.736 115.18 19.536V27H111.508ZM103.804 27V15.336H107.476V27H103.804Z" fill="#040483"/>
<path d="M128.88 27L122.016 18.168L128.664 10.056H133.32L125.832 18.864V17.328L133.56 27H128.88ZM118.632 27V10.056H122.4V27H118.632ZM135.218 27V15.336H138.89V27H135.218ZM137.066 13.728C136.49 13.728 136.01 13.536 135.626 13.152C135.258 12.752 135.074 12.272 135.074 11.712C135.074 11.136 135.258 10.656 135.626 10.272C136.01 9.888 136.49 9.696 137.066 9.696C137.642 9.696 138.114 9.888 138.482 10.272C138.85 10.656 139.034 11.136 139.034 11.712C139.034 12.272 138.85 12.752 138.482 13.152C138.114 13.536 137.642 13.728 137.066 13.728ZM143.132 27V10.512H146.804V27H143.132ZM140.492 18.456V15.336H149.444V18.456H140.492Z" fill="#C22076"/>
</svg>
